<?xml version="1.0" encoding="UTF-8"?>
<svg xmlns="http://www.w3.org/2000/svg" viewBox="0 0 1000 1000">
  <defs>
    <style>
      .cls-1 {
        fill: #333;
        stroke: #444;
        stroke-miterlimit: 10;
        stroke-width: .77px;
      }

      .cls-2 {
        fill: #d8cabc;
      }

      .cls-3 {
        fill: #1b191a;
      }

      .cls-4 {
        fill: #e37135;
      }

      .cls-5 {
        fill: #e2d2c3;
      }

      .cls-6 {
        fill: #ecd7ac;
      }

      .cls-7 {
        fill: #ea895e;
      }

      .cls-8 {
        fill: #232323;
      }

      .cls-9 {
        fill: #f7eabd;
      }

      .cls-10, .cls-11 {
        fill: #ddc9bf;
      }

      .cls-12 {
        fill: #353535;
      }

      .cls-13 {
        fill: #565656;
      }

      .cls-14 {
        fill: #7a7a7a;
      }

      .cls-11 {
        stroke: #ddc9bf;
        stroke-linejoin: round;
        stroke-width: 5.17px;
      }
    </style>
  </defs>
  <g id="Keys">
    <path class="cls-12" d="M982.07,764.94h-5.56v-22.85h5.56c1.17,9,.99,16.4,0,22.85Z"/>
    <path class="cls-12" d="M17.93,764.94h5.56v-22.85s-5.56,0-5.56,0c-1.17,9-.99,16.4,0,22.85Z"/>
    <path class="cls-5" d="M957.6,308.12c9.56,124.79,16.54,301.03,21.96,508.12,0,22.12-17.93,40.05-40.05,40.05H60.35c-22.12,0-40.05-17.93-40.05-40.05,5.15-218.92,11.14-391.66,18.15-508.13"/>
    <path class="cls-2" d="M38.45,308.1c4.53-75.35,9.5-127.16,14.94-152.68,1.46-6.84,7.53-11.71,14.53-11.71h857.46c7.1,0,13.22,5.01,14.59,11.98,6.71,34.17,12.54,86.01,17.63,152.42"/>
    <path class="cls-11" d="M127.05,363.39l-6.92,322.9c0,11.22,11.09,20.31,24.78,20.31h714.41c13.68,0,24.78-9.09,24.78-20.31l-7.59-322.9v310.72c0,13.42-10.88,24.31-24.31,24.31H151.36c-13.42,0-24.31-10.88-24.31-24.31v-310.72Z"/>
    <polygon class="cls-10" points="957.03 300.78 38.92 300.35 37.99 315.8 958.18 315.8 957.03 300.78"/>
    <polygon class="cls-8" points="838.59 286.79 160.52 286.79 167.41 164.86 831.31 164.86 838.59 286.79"/>
    <g>
      <path class="cls-1" d="M169.56,182.15l-3.7-20.35c-.61-3.35,1.97-6.44,5.37-6.44h656.07c3.2,0,5.71,2.73,5.44,5.92l-3.82,20.87"/>
      <path class="cls-1" d="M169.56,193.78l-3.7-20.35c-.61-3.35,1.97-6.44,5.37-6.44h656.07c3.2,0,5.71,2.73,5.44,5.92l-3.82,20.87"/>
      <path class="cls-1" d="M169.56,205.4l-3.7-20.35c-.61-3.35,1.97-6.44,5.37-6.44h656.07c3.2,0,5.71,2.73,5.44,5.92l-3.82,20.87"/>
      <path class="cls-1" d="M169.56,217.03l-3.7-20.35c-.61-3.35,1.97-6.44,5.37-6.44h656.07c3.2,0,5.71,2.73,5.44,5.92l-3.82,20.87"/>
      <path class="cls-1" d="M169.56,228.66l-3.7-20.35c-.61-3.35,1.97-6.44,5.37-6.44h656.07c3.2,0,5.71,2.73,5.44,5.92l-3.82,20.87"/>
      <path class="cls-1" d="M169.56,240.28l-3.7-20.35c-.61-3.35,1.97-6.44,5.37-6.44h656.07c3.2,0,5.71,2.73,5.44,5.92l-3.82,20.87"/>
      <path class="cls-1" d="M169.56,251.91l-3.7-20.35c-.61-3.35,1.97-6.44,5.37-6.44h656.07c3.2,0,5.71,2.73,5.44,5.92l-3.82,20.87"/>
      <path class="cls-1" d="M169.56,263.54l-3.7-20.35c-.61-3.35,1.97-6.44,5.37-6.44h656.07c3.2,0,5.71,2.73,5.44,5.92l-3.82,20.87"/>
      <path class="cls-1" d="M169.56,275.17l-3.7-20.35c-.61-3.35,1.97-6.44,5.37-6.44h656.07c3.2,0,5.71,2.73,5.44,5.92l-3.82,20.87"/>
      <path class="cls-1" d="M169.56,286.79l-3.7-20.35c-.61-3.35,1.97-6.44,5.37-6.44h656.07c3.2,0,5.71,2.73,5.44,5.92l-3.82,20.87"/>
    </g>
    <polygon class="cls-3" points="175.12 439.37 801.6 439.37 801.6 483.51 849.83 483.51 849.83 539.47 839.62 539.47 839.62 635.92 675.12 635.92 675.12 682.78 280.22 682.78 280.22 636.37 162.84 636.37 162.84 540.38 151.92 540.38 151.92 483.05 175.12 483.05 175.12 439.37"/>
    <g>
      <path class="cls-6" d="M501.69,486.1h26.39c5.21,0,9.43,4.23,9.43,9.43v33.89c0,1.83-1.49,3.32-3.32,3.32h-38.61c-1.83,0-3.32-1.49-3.32-3.32v-33.89c0-5.21,4.23-9.43,9.43-9.43Z"/>
      <path class="cls-9" d="M508.24,487.15h13.27c5.28,0,9.56,4.29,9.56,9.56v12.11c0,4.61-3.74,8.35-8.35,8.35h-15.7c-4.61,0-8.35-3.74-8.35-8.35v-12.11c0-5.28,4.29-9.56,9.56-9.56Z"/>
    </g>
    <g>
      <path class="cls-6" d="M549.47,486.1h26.39c5.21,0,9.43,4.23,9.43,9.43v33.89c0,1.83-1.49,3.32-3.32,3.32h-38.61c-1.83,0-3.32-1.49-3.32-3.32v-33.89c0-5.21,4.23-9.43,9.43-9.43Z"/>
      <path class="cls-9" d="M556.02,487.15h13.27c5.28,0,9.56,4.29,9.56,9.56v12.11c0,4.61-3.74,8.35-8.35,8.35h-15.7c-4.61,0-8.35-3.74-8.35-8.35v-12.11c0-5.28,4.29-9.56,9.56-9.56Z"/>
    </g>
    <g>
      <path class="cls-6" d="M597.25,486.1h26.39c5.21,0,9.43,4.23,9.43,9.43v33.89c0,1.83-1.49,3.32-3.32,3.32h-38.61c-1.83,0-3.32-1.49-3.32-3.32v-33.89c0-5.21,4.23-9.43,9.43-9.43Z"/>
      <path class="cls-9" d="M603.8,487.15h13.27c5.28,0,9.56,4.29,9.56,9.56v12.11c0,4.61-3.74,8.35-8.35,8.35h-15.7c-4.61,0-8.35-3.74-8.35-8.35v-12.11c0-5.28,4.29-9.56,9.56-9.56Z"/>
    </g>
    <g>
      <path class="cls-6" d="M645.03,486.1h26.39c5.21,0,9.43,4.23,9.43,9.43v33.89c0,1.83-1.49,3.32-3.32,3.32h-38.61c-1.83,0-3.32-1.49-3.32-3.32v-33.89c0-5.21,4.23-9.43,9.43-9.43Z"/>
      <path class="cls-9" d="M651.58,487.15h13.27c5.28,0,9.56,4.29,9.56,9.56v12.11c0,4.61-3.74,8.35-8.35,8.35h-15.7c-4.61,0-8.35-3.74-8.35-8.35v-12.11c0-5.28,4.29-9.56,9.56-9.56Z"/>
    </g>
    <g>
      <path class="cls-6" d="M310.57,486.1h26.39c5.21,0,9.43,4.23,9.43,9.43v33.89c0,1.83-1.49,3.32-3.32,3.32h-38.61c-1.83,0-3.32-1.49-3.32-3.32v-33.89c0-5.21,4.23-9.43,9.43-9.43Z"/>
      <path class="cls-9" d="M317.12,487.15h13.27c5.28,0,9.56,4.29,9.56,9.56v12.11c0,4.61-3.74,8.35-8.35,8.35h-15.7c-4.61,0-8.35-3.74-8.35-8.35v-12.11c0-5.28,4.29-9.56,9.56-9.56Z"/>
    </g>
    <g>
      <path class="cls-6" d="M358.35,486.1h26.39c5.21,0,9.43,4.23,9.43,9.43v33.89c0,1.83-1.49,3.32-3.32,3.32h-38.61c-1.83,0-3.32-1.49-3.32-3.32v-33.89c0-5.21,4.23-9.43,9.43-9.43Z"/>
      <path class="cls-9" d="M364.9,487.15h13.27c5.28,0,9.56,4.29,9.56,9.56v12.11c0,4.61-3.74,8.35-8.35,8.35h-15.7c-4.61,0-8.35-3.74-8.35-8.35v-12.11c0-5.28,4.29-9.56,9.56-9.56Z"/>
    </g>
    <g>
      <path class="cls-6" d="M215.01,486.1h26.39c5.21,0,9.43,4.23,9.43,9.43v33.89c0,1.83-1.49,3.32-3.32,3.32h-38.61c-1.83,0-3.32-1.49-3.32-3.32v-33.89c0-5.21,4.23-9.43,9.43-9.43Z"/>
      <path class="cls-9" d="M221.56,487.15h13.27c5.28,0,9.56,4.29,9.56,9.56v12.11c0,4.61-3.74,8.35-8.35,8.35h-15.7c-4.61,0-8.35-3.74-8.35-8.35v-12.11c0-5.28,4.29-9.56,9.56-9.56Z"/>
    </g>
    <g>
      <path class="cls-4" d="M167.69,486.1h26.39c5.21,0,9.43,4.23,9.43,9.43v33.89c0,1.83-1.49,3.32-3.32,3.32h-38.61c-1.83,0-3.32-1.49-3.32-3.32v-33.89c0-5.21,4.23-9.43,9.43-9.43Z"/>
      <path class="cls-7" d="M174.25,487.15h13.27c5.28,0,9.56,4.29,9.56,9.56v12.11c0,4.61-3.74,8.35-8.35,8.35h-15.7c-4.61,0-8.35-3.74-8.35-8.35v-12.11c0-5.28,4.29-9.56,9.56-9.56Z"/>
    </g>
    <g>
      <path class="cls-4" d="M178.53,535.48h26.39c5.21,0,9.43,4.23,9.43,9.43v33.89c0,1.83-1.49,3.32-3.32,3.32h-38.61c-1.83,0-3.32-1.49-3.32-3.32v-33.89c0-5.21,4.23-9.43,9.43-9.43Z"/>
      <path class="cls-7" d="M185.09,536.53h13.27c5.28,0,9.56,4.29,9.56,9.56v12.11c0,4.61-3.74,8.35-8.35,8.35h-15.7c-4.61,0-8.35-3.74-8.35-8.35v-12.11c0-5.28,4.29-9.56,9.56-9.56Z"/>
    </g>
    <g>
      <path class="cls-4" d="M799.49,535.48h26.39c5.21,0,9.43,4.23,9.43,9.43v33.89c0,1.83-1.49,3.32-3.32,3.32h-38.61c-1.83,0-3.32-1.49-3.32-3.32v-33.89c0-5.21,4.23-9.43,9.43-9.43Z"/>
      <path class="cls-7" d="M806.04,536.53h13.27c5.28,0,9.56,4.29,9.56,9.56v12.11c0,4.61-3.74,8.35-8.35,8.35h-15.7c-4.61,0-8.35-3.74-8.35-8.35v-12.11c0-5.28,4.29-9.56,9.56-9.56Z"/>
    </g>
    <g>
      <path class="cls-4" d="M799.49,584.86h26.39c5.21,0,9.43,4.23,9.43,9.43v33.89c0,1.83-1.49,3.32-3.32,3.32h-38.61c-1.83,0-3.32-1.49-3.32-3.32v-33.89c0-5.21,4.23-9.43,9.43-9.43Z"/>
      <path class="cls-7" d="M806.04,585.91h13.27c5.28,0,9.56,4.29,9.56,9.56v12.11c0,4.61-3.74,8.35-8.35,8.35h-15.7c-4.61,0-8.35-3.74-8.35-8.35v-12.11c0-5.28,4.29-9.56,9.56-9.56Z"/>
    </g>
    <g>
      <path class="cls-4" d="M727.72,584.86h50.37c5.21,0,9.43,4.23,9.43,9.43v33.89c0,1.83-1.49,3.32-3.32,3.32h-62.59c-1.83,0-3.32-1.49-3.32-3.32v-33.89c0-5.21,4.23-9.43,9.43-9.43Z"/>
      <path class="cls-7" d="M732.63,585.91h40.55c5.28,0,9.56,4.29,9.56,9.56v12.11c0,4.61-3.74,8.35-8.35,8.35h-42.98c-4.61,0-8.35-3.74-8.35-8.35v-12.11c0-5.28,4.29-9.56,9.56-9.56Z"/>
    </g>
    <g>
      <path class="cls-4" d="M178.09,584.86h50.37c5.21,0,9.43,4.23,9.43,9.43v33.89c0,1.83-1.49,3.32-3.32,3.32h-62.59c-1.83,0-3.32-1.49-3.32-3.32v-33.89c0-5.21,4.23-9.43,9.43-9.43Z"/>
      <path class="cls-7" d="M183,585.91h40.55c5.28,0,9.56,4.29,9.56,9.56v12.11c0,4.61-3.74,8.35-8.35,8.35h-42.98c-4.61,0-8.35-3.74-8.35-8.35v-12.11c0-5.28,4.29-9.56,9.56-9.56Z"/>
    </g>
    <g>
      <path class="cls-4" d="M787.61,486.1h50.37c5.21,0,9.43,4.23,9.43,9.43v33.89c0,1.83-1.49,3.32-3.32,3.32h-62.59c-1.83,0-3.32-1.49-3.32-3.32v-33.89c0-5.21,4.23-9.43,9.43-9.43Z"/>
      <path class="cls-7" d="M792.52,487.15h40.55c5.28,0,9.56,4.29,9.56,9.56v12.11c0,4.61-3.74,8.35-8.35,8.35h-42.98c-4.61,0-8.35-3.74-8.35-8.35v-12.11c0-5.28,4.29-9.56,9.56-9.56Z"/>
    </g>
    <g>
      <path class="cls-6" d="M262.79,486.1h26.39c5.21,0,9.43,4.23,9.43,9.43v33.89c0,1.83-1.49,3.32-3.32,3.32h-38.61c-1.83,0-3.32-1.49-3.32-3.32v-33.89c0-5.21,4.23-9.43,9.43-9.43Z"/>
      <path class="cls-9" d="M269.34,487.15h13.27c5.28,0,9.56,4.29,9.56,9.56v12.11c0,4.61-3.74,8.35-8.35,8.35h-15.7c-4.61,0-8.35-3.74-8.35-8.35v-12.11c0-5.28,4.29-9.56,9.56-9.56Z"/>
    </g>
    <g>
      <path class="cls-6" d="M406.13,486.1h26.39c5.21,0,9.43,4.23,9.43,9.43v33.89c0,1.83-1.49,3.32-3.32,3.32h-38.61c-1.83,0-3.32-1.49-3.32-3.32v-33.89c0-5.21,4.23-9.43,9.43-9.43Z"/>
      <path class="cls-9" d="M412.68,487.15h13.27c5.28,0,9.56,4.29,9.56,9.56v12.11c0,4.61-3.74,8.35-8.35,8.35h-15.7c-4.61,0-8.35-3.74-8.35-8.35v-12.11c0-5.28,4.29-9.56,9.56-9.56Z"/>
    </g>
    <g>
      <path class="cls-6" d="M453.91,486.1h26.39c5.21,0,9.43,4.23,9.43,9.43v33.89c0,1.83-1.49,3.32-3.32,3.32h-38.61c-1.83,0-3.32-1.49-3.32-3.32v-33.89c0-5.21,4.23-9.43,9.43-9.43Z"/>
      <path class="cls-9" d="M460.46,487.15h13.27c5.28,0,9.56,4.29,9.56,9.56v12.11c0,4.61-3.74,8.35-8.35,8.35h-15.7c-4.61,0-8.35-3.74-8.35-8.35v-12.11c0-5.28,4.29-9.56,9.56-9.56Z"/>
    </g>
    <g>
      <path class="cls-6" d="M692.81,486.1h26.39c5.21,0,9.43,4.23,9.43,9.43v33.89c0,1.83-1.49,3.32-3.32,3.32h-38.61c-1.83,0-3.32-1.49-3.32-3.32v-33.89c0-5.21,4.23-9.43,9.43-9.43Z"/>
      <path class="cls-9" d="M699.36,487.15h13.27c5.28,0,9.56,4.29,9.56,9.56v12.11c0,4.61-3.74,8.35-8.35,8.35h-15.7c-4.61,0-8.35-3.74-8.35-8.35v-12.11c0-5.28,4.29-9.56,9.56-9.56Z"/>
    </g>
    <g>
      <path class="cls-6" d="M740.59,486.1h26.39c5.21,0,9.43,4.23,9.43,9.43v33.89c0,1.83-1.49,3.32-3.32,3.32h-38.61c-1.83,0-3.32-1.49-3.32-3.32v-33.89c0-5.21,4.23-9.43,9.43-9.43Z"/>
      <path class="cls-9" d="M747.14,487.15h13.27c5.28,0,9.56,4.29,9.56,9.56v12.11c0,4.61-3.74,8.35-8.35,8.35h-15.7c-4.61,0-8.35-3.74-8.35-8.35v-12.11c0-5.28,4.29-9.56,9.56-9.56Z"/>
    </g>
    <g>
      <path class="cls-6" d="M512.8,535.48h26.39c5.21,0,9.43,4.23,9.43,9.43v33.89c0,1.83-1.49,3.32-3.32,3.32h-38.61c-1.83,0-3.32-1.49-3.32-3.32v-33.89c0-5.21,4.23-9.43,9.43-9.43Z"/>
      <path class="cls-9" d="M519.36,536.53h13.27c5.28,0,9.56,4.29,9.56,9.56v12.11c0,4.61-3.74,8.35-8.35,8.35h-15.7c-4.61,0-8.35-3.74-8.35-8.35v-12.11c0-5.28,4.29-9.56,9.56-9.56Z"/>
    </g>
    <g>
      <path class="cls-6" d="M560.58,535.48h26.39c5.21,0,9.43,4.23,9.43,9.43v33.89c0,1.83-1.49,3.32-3.32,3.32h-38.61c-1.83,0-3.32-1.49-3.32-3.32v-33.89c0-5.21,4.23-9.43,9.43-9.43Z"/>
      <path class="cls-9" d="M567.14,536.53h13.27c5.28,0,9.56,4.29,9.56,9.56v12.11c0,4.61-3.74,8.35-8.35,8.35h-15.7c-4.61,0-8.35-3.74-8.35-8.35v-12.11c0-5.28,4.29-9.56,9.56-9.56Z"/>
    </g>
    <g>
      <path class="cls-6" d="M608.36,535.48h26.39c5.21,0,9.43,4.23,9.43,9.43v33.89c0,1.83-1.49,3.32-3.32,3.32h-38.61c-1.83,0-3.32-1.49-3.32-3.32v-33.89c0-5.21,4.23-9.43,9.43-9.43Z"/>
      <path class="cls-9" d="M614.92,536.53h13.27c5.28,0,9.56,4.29,9.56,9.56v12.11c0,4.61-3.74,8.35-8.35,8.35h-15.7c-4.61,0-8.35-3.74-8.35-8.35v-12.11c0-5.28,4.29-9.56,9.56-9.56Z"/>
    </g>
    <g>
      <path class="cls-6" d="M656.14,535.48h26.39c5.21,0,9.43,4.23,9.43,9.43v33.89c0,1.83-1.49,3.32-3.32,3.32h-38.61c-1.83,0-3.32-1.49-3.32-3.32v-33.89c0-5.21,4.23-9.43,9.43-9.43Z"/>
      <path class="cls-9" d="M662.7,536.53h13.27c5.28,0,9.56,4.29,9.56,9.56v12.11c0,4.61-3.74,8.35-8.35,8.35h-15.7c-4.61,0-8.35-3.74-8.35-8.35v-12.11c0-5.28,4.29-9.56,9.56-9.56Z"/>
    </g>
    <g>
      <path class="cls-6" d="M321.68,535.48h26.39c5.21,0,9.43,4.23,9.43,9.43v33.89c0,1.83-1.49,3.32-3.32,3.32h-38.61c-1.83,0-3.32-1.49-3.32-3.32v-33.89c0-5.21,4.23-9.43,9.43-9.43Z"/>
      <path class="cls-9" d="M328.24,536.53h13.27c5.28,0,9.56,4.29,9.56,9.56v12.11c0,4.61-3.74,8.35-8.35,8.35h-15.7c-4.61,0-8.35-3.74-8.35-8.35v-12.11c0-5.28,4.29-9.56,9.56-9.56Z"/>
    </g>
    <g>
      <path class="cls-6" d="M369.46,535.48h26.39c5.21,0,9.43,4.23,9.43,9.43v33.89c0,1.83-1.49,3.32-3.32,3.32h-38.61c-1.83,0-3.32-1.49-3.32-3.32v-33.89c0-5.21,4.23-9.43,9.43-9.43Z"/>
      <path class="cls-9" d="M376.02,536.53h13.27c5.28,0,9.56,4.29,9.56,9.56v12.11c0,4.61-3.74,8.35-8.35,8.35h-15.7c-4.61,0-8.35-3.74-8.35-8.35v-12.11c0-5.28,4.29-9.56,9.56-9.56Z"/>
    </g>
    <g>
      <path class="cls-6" d="M226.12,535.48h26.39c5.21,0,9.43,4.23,9.43,9.43v33.89c0,1.83-1.49,3.32-3.32,3.32h-38.61c-1.83,0-3.32-1.49-3.32-3.32v-33.89c0-5.21,4.23-9.43,9.43-9.43Z"/>
      <path class="cls-9" d="M232.68,536.53h13.27c5.28,0,9.56,4.29,9.56,9.56v12.11c0,4.61-3.74,8.35-8.35,8.35h-15.7c-4.61,0-8.35-3.74-8.35-8.35v-12.11c0-5.28,4.29-9.56,9.56-9.56Z"/>
    </g>
    <g>
      <path class="cls-6" d="M273.9,535.48h26.39c5.21,0,9.43,4.23,9.43,9.43v33.89c0,1.83-1.49,3.32-3.32,3.32h-38.61c-1.83,0-3.32-1.49-3.32-3.32v-33.89c0-5.21,4.23-9.43,9.43-9.43Z"/>
      <path class="cls-9" d="M280.46,536.53h13.27c5.28,0,9.56,4.29,9.56,9.56v12.11c0,4.61-3.74,8.35-8.35,8.35h-15.7c-4.61,0-8.35-3.74-8.35-8.35v-12.11c0-5.28,4.29-9.56,9.56-9.56Z"/>
    </g>
    <g>
      <path class="cls-6" d="M417.24,535.48h26.39c5.21,0,9.43,4.23,9.43,9.43v33.89c0,1.83-1.49,3.32-3.32,3.32h-38.61c-1.83,0-3.32-1.49-3.32-3.32v-33.89c0-5.21,4.23-9.43,9.43-9.43Z"/>
      <path class="cls-9" d="M423.8,536.53h13.27c5.28,0,9.56,4.29,9.56,9.56v12.11c0,4.61-3.74,8.35-8.35,8.35h-15.7c-4.61,0-8.35-3.74-8.35-8.35v-12.11c0-5.28,4.29-9.56,9.56-9.56Z"/>
    </g>
    <g>
      <path class="cls-6" d="M465.02,535.48h26.39c5.21,0,9.43,4.23,9.43,9.43v33.89c0,1.83-1.49,3.32-3.32,3.32h-38.61c-1.83,0-3.32-1.49-3.32-3.32v-33.89c0-5.21,4.23-9.43,9.43-9.43Z"/>
      <path class="cls-9" d="M471.58,536.53h13.27c5.28,0,9.56,4.29,9.56,9.56v12.11c0,4.61-3.74,8.35-8.35,8.35h-15.7c-4.61,0-8.35-3.74-8.35-8.35v-12.11c0-5.28,4.29-9.56,9.56-9.56Z"/>
    </g>
    <g>
      <path class="cls-6" d="M703.92,535.48h26.39c5.21,0,9.43,4.23,9.43,9.43v33.89c0,1.83-1.49,3.32-3.32,3.32h-38.61c-1.83,0-3.32-1.49-3.32-3.32v-33.89c0-5.21,4.23-9.43,9.43-9.43Z"/>
      <path class="cls-9" d="M710.48,536.53h13.27c5.28,0,9.56,4.29,9.56,9.56v12.11c0,4.61-3.74,8.35-8.35,8.35h-15.7c-4.61,0-8.35-3.74-8.35-8.35v-12.11c0-5.28,4.29-9.56,9.56-9.56Z"/>
    </g>
    <g>
      <path class="cls-6" d="M751.7,535.48h26.39c5.21,0,9.43,4.23,9.43,9.43v33.89c0,1.83-1.49,3.32-3.32,3.32h-38.61c-1.83,0-3.32-1.49-3.32-3.32v-33.89c0-5.21,4.23-9.43,9.43-9.43Z"/>
      <path class="cls-9" d="M758.26,536.53h13.27c5.28,0,9.56,4.29,9.56,9.56v12.11c0,4.61-3.74,8.35-8.35,8.35h-15.7c-4.61,0-8.35-3.74-8.35-8.35v-12.11c0-5.28,4.29-9.56,9.56-9.56Z"/>
    </g>
    <g>
      <path class="cls-6" d="M536.69,584.86h26.39c5.21,0,9.43,4.23,9.43,9.43v33.89c0,1.83-1.49,3.32-3.32,3.32h-38.61c-1.83,0-3.32-1.49-3.32-3.32v-33.89c0-5.21,4.23-9.43,9.43-9.43Z"/>
      <path class="cls-9" d="M543.25,585.91h13.27c5.28,0,9.56,4.29,9.56,9.56v12.11c0,4.61-3.74,8.35-8.35,8.35h-15.7c-4.61,0-8.35-3.74-8.35-8.35v-12.11c0-5.28,4.29-9.56,9.56-9.56Z"/>
    </g>
    <g>
      <path class="cls-6" d="M584.47,584.86h26.39c5.21,0,9.43,4.23,9.43,9.43v33.89c0,1.83-1.49,3.32-3.32,3.32h-38.61c-1.83,0-3.32-1.49-3.32-3.32v-33.89c0-5.21,4.23-9.43,9.43-9.43Z"/>
      <path class="cls-9" d="M591.03,585.91h13.27c5.28,0,9.56,4.29,9.56,9.56v12.11c0,4.61-3.74,8.35-8.35,8.35h-15.7c-4.61,0-8.35-3.74-8.35-8.35v-12.11c0-5.28,4.29-9.56,9.56-9.56Z"/>
    </g>
    <g>
      <path class="cls-6" d="M632.25,584.86h26.39c5.21,0,9.43,4.23,9.43,9.43v33.89c0,1.83-1.49,3.32-3.32,3.32h-38.61c-1.83,0-3.32-1.49-3.32-3.32v-33.89c0-5.21,4.23-9.43,9.43-9.43Z"/>
      <path class="cls-9" d="M638.81,585.91h13.27c5.28,0,9.56,4.29,9.56,9.56v12.11c0,4.61-3.74,8.35-8.35,8.35h-15.7c-4.61,0-8.35-3.74-8.35-8.35v-12.11c0-5.28,4.29-9.56,9.56-9.56Z"/>
    </g>
    <g>
      <path class="cls-6" d="M680.03,584.86h26.39c5.21,0,9.43,4.23,9.43,9.43v33.89c0,1.83-1.49,3.32-3.32,3.32h-38.61c-1.83,0-3.32-1.49-3.32-3.32v-33.89c0-5.21,4.23-9.43,9.43-9.43Z"/>
      <path class="cls-9" d="M686.59,585.91h13.27c5.28,0,9.56,4.29,9.56,9.56v12.11c0,4.61-3.74,8.35-8.35,8.35h-15.7c-4.61,0-8.35-3.74-8.35-8.35v-12.11c0-5.28,4.29-9.56,9.56-9.56Z"/>
    </g>
    <path class="cls-6" d="M297.79,634.09h363.96c5.21,0,9.43,4.23,9.43,9.43v31.31c0,1.83-1.49,3.32-3.32,3.32h-376.18c-1.83,0-3.32-1.49-3.32-3.32v-31.31c0-5.21,4.23-9.43,9.43-9.43Z"/>
    <path class="cls-9" d="M302.78,635.07h353.98c5.28,0,9.56,4.29,9.56,9.56v10.45c0,4.61-3.74,8.35-8.35,8.35h-356.41c-4.61,0-8.35-3.74-8.35-8.35v-10.45c0-5.28,4.29-9.56,9.56-9.56Z"/>
    <g>
      <path class="cls-6" d="M345.57,584.86h26.39c5.21,0,9.43,4.23,9.43,9.43v33.89c0,1.83-1.49,3.32-3.32,3.32h-38.61c-1.83,0-3.32-1.49-3.32-3.32v-33.89c0-5.21,4.23-9.43,9.43-9.43Z"/>
      <path class="cls-9" d="M352.13,585.91h13.27c5.28,0,9.56,4.29,9.56,9.56v12.11c0,4.61-3.74,8.35-8.35,8.35h-15.7c-4.61,0-8.35-3.74-8.35-8.35v-12.11c0-5.28,4.29-9.56,9.56-9.56Z"/>
    </g>
    <g>
      <path class="cls-6" d="M393.35,584.86h26.39c5.21,0,9.43,4.23,9.43,9.43v33.89c0,1.83-1.49,3.32-3.32,3.32h-38.61c-1.83,0-3.32-1.49-3.32-3.32v-33.89c0-5.21,4.23-9.43,9.43-9.43Z"/>
      <path class="cls-9" d="M399.91,585.91h13.27c5.28,0,9.56,4.29,9.56,9.56v12.11c0,4.61-3.74,8.35-8.35,8.35h-15.7c-4.61,0-8.35-3.74-8.35-8.35v-12.11c0-5.28,4.29-9.56,9.56-9.56Z"/>
    </g>
    <g>
      <path class="cls-6" d="M250.01,584.86h26.39c5.21,0,9.43,4.23,9.43,9.43v33.89c0,1.83-1.49,3.32-3.32,3.32h-38.61c-1.83,0-3.32-1.49-3.32-3.32v-33.89c0-5.21,4.23-9.43,9.43-9.43Z"/>
      <path class="cls-9" d="M256.57,585.91h13.27c5.28,0,9.56,4.29,9.56,9.56v12.11c0,4.61-3.74,8.35-8.35,8.35h-15.7c-4.61,0-8.35-3.74-8.35-8.35v-12.11c0-5.28,4.29-9.56,9.56-9.56Z"/>
    </g>
    <g>
      <path class="cls-6" d="M297.79,584.86h26.39c5.21,0,9.43,4.23,9.43,9.43v33.89c0,1.83-1.49,3.32-3.32,3.32h-38.61c-1.83,0-3.32-1.49-3.32-3.32v-33.89c0-5.21,4.23-9.43,9.43-9.43Z"/>
      <path class="cls-9" d="M304.35,585.91h13.27c5.28,0,9.56,4.29,9.56,9.56v12.11c0,4.61-3.74,8.35-8.35,8.35h-15.7c-4.61,0-8.35-3.74-8.35-8.35v-12.11c0-5.28,4.29-9.56,9.56-9.56Z"/>
    </g>
    <g>
      <path class="cls-6" d="M441.13,584.86h26.39c5.21,0,9.43,4.23,9.43,9.43v33.89c0,1.83-1.49,3.32-3.32,3.32h-38.61c-1.83,0-3.32-1.49-3.32-3.32v-33.89c0-5.21,4.23-9.43,9.43-9.43Z"/>
      <path class="cls-9" d="M447.69,585.91h13.27c5.28,0,9.56,4.29,9.56,9.56v12.11c0,4.61-3.74,8.35-8.35,8.35h-15.7c-4.61,0-8.35-3.74-8.35-8.35v-12.11c0-5.28,4.29-9.56,9.56-9.56Z"/>
    </g>
    <g>
      <path class="cls-6" d="M488.91,584.86h26.39c5.21,0,9.43,4.23,9.43,9.43v33.89c0,1.83-1.49,3.32-3.32,3.32h-38.61c-1.83,0-3.32-1.49-3.32-3.32v-33.89c0-5.21,4.23-9.43,9.43-9.43Z"/>
      <path class="cls-9" d="M495.47,585.91h13.27c5.28,0,9.56,4.29,9.56,9.56v12.11c0,4.61-3.74,8.35-8.35,8.35h-15.7c-4.61,0-8.35-3.74-8.35-8.35v-12.11c0-5.28,4.29-9.56,9.56-9.56Z"/>
    </g>
    <g>
      <path class="cls-6" d="M476.77,436.72h26.39c5.21,0,9.43,4.23,9.43,9.43v33.89c0,1.83-1.49,3.32-3.32,3.32h-38.61c-1.83,0-3.32-1.49-3.32-3.32v-33.89c0-5.21,4.23-9.43,9.43-9.43Z"/>
      <path class="cls-9" d="M483.32,437.76h13.27c5.28,0,9.56,4.29,9.56,9.56v12.11c0,4.61-3.74,8.35-8.35,8.35h-15.7c-4.61,0-8.35-3.74-8.35-8.35v-12.11c0-5.28,4.29-9.56,9.56-9.56Z"/>
    </g>
    <g>
      <path class="cls-6" d="M524.51,436.72h26.39c5.21,0,9.43,4.23,9.43,9.43v33.89c0,1.83-1.49,3.32-3.32,3.32h-38.61c-1.83,0-3.32-1.49-3.32-3.32v-33.89c0-5.21,4.23-9.43,9.43-9.43Z"/>
      <path class="cls-9" d="M531.06,437.76h13.27c5.28,0,9.56,4.29,9.56,9.56v12.11c0,4.61-3.74,8.35-8.35,8.35h-15.7c-4.61,0-8.35-3.74-8.35-8.35v-12.11c0-5.28,4.29-9.56,9.56-9.56Z"/>
    </g>
    <g>
      <path class="cls-6" d="M572.25,436.72h26.39c5.21,0,9.43,4.23,9.43,9.43v33.89c0,1.83-1.49,3.32-3.32,3.32h-38.61c-1.83,0-3.32-1.49-3.32-3.32v-33.89c0-5.21,4.23-9.43,9.43-9.43Z"/>
      <path class="cls-9" d="M578.8,437.76h13.27c5.28,0,9.56,4.29,9.56,9.56v12.11c0,4.61-3.74,8.35-8.35,8.35h-15.7c-4.61,0-8.35-3.74-8.35-8.35v-12.11c0-5.28,4.29-9.56,9.56-9.56Z"/>
    </g>
    <g>
      <path class="cls-6" d="M619.99,436.72h26.39c5.21,0,9.43,4.23,9.43,9.43v33.89c0,1.83-1.49,3.32-3.32,3.32h-38.61c-1.83,0-3.32-1.49-3.32-3.32v-33.89c0-5.21,4.23-9.43,9.43-9.43Z"/>
      <path class="cls-9" d="M626.54,437.76h13.27c5.28,0,9.56,4.29,9.56,9.56v12.11c0,4.61-3.74,8.35-8.35,8.35h-15.7c-4.61,0-8.35-3.74-8.35-8.35v-12.11c0-5.28,4.29-9.56,9.56-9.56Z"/>
    </g>
    <g>
      <path class="cls-6" d="M285.65,436.72h26.39c5.21,0,9.43,4.23,9.43,9.43v33.89c0,1.83-1.49,3.32-3.32,3.32h-38.61c-1.83,0-3.32-1.49-3.32-3.32v-33.89c0-5.21,4.23-9.43,9.43-9.43Z"/>
      <path class="cls-9" d="M292.2,437.76h13.27c5.28,0,9.56,4.29,9.56,9.56v12.11c0,4.61-3.74,8.35-8.35,8.35h-15.7c-4.61,0-8.35-3.74-8.35-8.35v-12.11c0-5.28,4.29-9.56,9.56-9.56Z"/>
    </g>
    <g>
      <path class="cls-6" d="M333.43,436.72h26.39c5.21,0,9.43,4.23,9.43,9.43v33.89c0,1.83-1.49,3.32-3.32,3.32h-38.61c-1.83,0-3.32-1.49-3.32-3.32v-33.89c0-5.21,4.23-9.43,9.43-9.43Z"/>
      <path class="cls-9" d="M339.98,437.76h13.27c5.28,0,9.56,4.29,9.56,9.56v12.11c0,4.61-3.74,8.35-8.35,8.35h-15.7c-4.61,0-8.35-3.74-8.35-8.35v-12.11c0-5.28,4.29-9.56,9.56-9.56Z"/>
    </g>
    <g>
      <path class="cls-6" d="M190.09,436.72h26.39c5.21,0,9.43,4.23,9.43,9.43v33.89c0,1.83-1.49,3.32-3.32,3.32h-38.61c-1.83,0-3.32-1.49-3.32-3.32v-33.89c0-5.21,4.23-9.43,9.43-9.43Z"/>
      <path class="cls-9" d="M196.64,437.76h13.27c5.28,0,9.56,4.29,9.56,9.56v12.11c0,4.61-3.74,8.35-8.35,8.35h-15.7c-4.61,0-8.35-3.74-8.35-8.35v-12.11c0-5.28,4.29-9.56,9.56-9.56Z"/>
    </g>
    <g>
      <path class="cls-6" d="M237.87,436.72h26.39c5.21,0,9.43,4.23,9.43,9.43v33.89c0,1.83-1.49,3.32-3.32,3.32h-38.61c-1.83,0-3.32-1.49-3.32-3.32v-33.89c0-5.21,4.23-9.43,9.43-9.43Z"/>
      <path class="cls-9" d="M244.42,437.76h13.27c5.28,0,9.56,4.29,9.56,9.56v12.11c0,4.61-3.74,8.35-8.35,8.35h-15.7c-4.61,0-8.35-3.74-8.35-8.35v-12.11c0-5.28,4.29-9.56,9.56-9.56Z"/>
    </g>
    <g>
      <path class="cls-6" d="M381.21,436.72h26.39c5.21,0,9.43,4.23,9.43,9.43v33.89c0,1.83-1.49,3.32-3.32,3.32h-38.61c-1.83,0-3.32-1.49-3.32-3.32v-33.89c0-5.21,4.23-9.43,9.43-9.43Z"/>
      <path class="cls-9" d="M387.76,437.76h13.27c5.28,0,9.56,4.29,9.56,9.56v12.11c0,4.61-3.74,8.35-8.35,8.35h-15.7c-4.61,0-8.35-3.74-8.35-8.35v-12.11c0-5.28,4.29-9.56,9.56-9.56Z"/>
    </g>
    <g>
      <path class="cls-6" d="M428.99,436.72h26.39c5.21,0,9.43,4.23,9.43,9.43v33.89c0,1.83-1.49,3.32-3.32,3.32h-38.61c-1.83,0-3.32-1.49-3.32-3.32v-33.89c0-5.21,4.23-9.43,9.43-9.43Z"/>
      <path class="cls-9" d="M435.54,437.76h13.27c5.28,0,9.56,4.29,9.56,9.56v12.11c0,4.61-3.74,8.35-8.35,8.35h-15.7c-4.61,0-8.35-3.74-8.35-8.35v-12.11c0-5.28,4.29-9.56,9.56-9.56Z"/>
    </g>
    <g>
      <path class="cls-6" d="M667.73,436.72h26.39c5.21,0,9.43,4.23,9.43,9.43v33.89c0,1.83-1.49,3.32-3.32,3.32h-38.61c-1.83,0-3.32-1.49-3.32-3.32v-33.89c0-5.21,4.23-9.43,9.43-9.43Z"/>
      <path class="cls-9" d="M674.29,437.76h13.27c5.28,0,9.56,4.29,9.56,9.56v12.11c0,4.61-3.74,8.35-8.35,8.35h-15.7c-4.61,0-8.35-3.74-8.35-8.35v-12.11c0-5.28,4.29-9.56,9.56-9.56Z"/>
    </g>
    <g>
      <path class="cls-6" d="M715.47,436.72h26.39c5.21,0,9.43,4.23,9.43,9.43v33.89c0,1.83-1.49,3.32-3.32,3.32h-38.61c-1.83,0-3.32-1.49-3.32-3.32v-33.89c0-5.21,4.23-9.43,9.43-9.43Z"/>
      <path class="cls-9" d="M722.03,437.76h13.27c5.28,0,9.56,4.29,9.56,9.56v12.11c0,4.61-3.74,8.35-8.35,8.35h-15.7c-4.61,0-8.35-3.74-8.35-8.35v-12.11c0-5.28,4.29-9.56,9.56-9.56Z"/>
    </g>
    <g>
      <path class="cls-6" d="M763.21,436.72h26.39c5.21,0,9.43,4.23,9.43,9.43v33.89c0,1.83-1.49,3.32-3.32,3.32h-38.61c-1.83,0-3.32-1.49-3.32-3.32v-33.89c0-5.21,4.23-9.43,9.43-9.43Z"/>
      <path class="cls-9" d="M769.77,437.76h13.27c5.28,0,9.56,4.29,9.56,9.56v12.11c0,4.61-3.74,8.35-8.35,8.35h-15.7c-4.61,0-8.35-3.74-8.35-8.35v-12.11c0-5.28,4.29-9.56,9.56-9.56Z"/>
    </g>
  </g>
  <g id="TEXT">
    <g>
      <path class="cls-14" d="M190.21,387.38l.47-25.2h1.93l-.47,25.2h-1.93ZM199.57,387.38l-4.13-13.75-.2,13.75h-1.93l.47-25.2h3.4l4.53,15.12,4.43-15.12h2l-7.53,25.2h-1.03ZM200.7,380.56l-5.06-17.14v4.17l4.46,15.24.6-2.27ZM209.36,362.18h3.33l.47,25.2h-1.93l-.47-23.75-1.1,4.05.37,19.7h-1.93l-.27-13.75-4.06,13.75h-1.93l7.53-25.2Z"/>
      <path class="cls-14" d="M228.98,364.49h-14.59l-.27-2.31h15.12l-.27,2.31ZM214.82,368.29l-.27-2.31h14.26l-.27,2.31h-4.33v19.08h-1.93v-19.08h-1.2v19.08h-1.93v-19.08h-4.33Z"/>
      <path class="cls-14" d="M230.5,387.38v-25.2h1.93v25.2h-1.93ZM239.53,387.38l-2.17-6.32h-1.8v6.32h-1.93v-25.2h3.76c4.56,0,7.66,4.13,7.66,9.46,0,3.18-1.13,5.91-2.86,7.39l2.83,8.34h-2.1l-2.43-7.15c-.33.21-.7.37-1.13.5l2.27,6.65h-2.1ZM237.37,378.75c3.43,0,5.76-3.06,5.76-7.1s-2.33-7.15-5.73-7.15h-1.83v1.49h1.23c2.93,0,4.96,2.15,4.96,5.66s-2.03,5.62-4.96,5.62h-1.23v1.49h1.8ZM236.8,374.94c1.8,0,3.03-1.24,3.03-3.3s-1.23-3.35-3.03-3.35h-1.23v6.65h1.23Z"/>
    </g>
    <g>
      <path class="cls-13" d="M255.3,379.24c0,2.75-1.73,4.43-4.55,4.43s-4.51-1.69-4.51-4.43c0-1.98.92-3.35,2.55-3.92-1.37-.59-2.12-1.82-2.12-3.56,0-2.52,1.61-4.07,4.08-4.07s4.12,1.55,4.12,4.07c0,1.73-.77,2.97-2.15,3.56,1.64.56,2.58,1.96,2.58,3.92ZM254.43,379.24c0-2.09-1.37-3.42-3.67-3.42s-3.64,1.33-3.64,3.42,1.33,3.44,3.64,3.44,3.67-1.33,3.67-3.44ZM250.75,374.87c2.03,0,3.25-1.19,3.25-3.06s-1.26-3.13-3.25-3.13-3.21,1.19-3.21,3.11,1.18,3.08,3.21,3.08Z"/>
      <path class="cls-13" d="M256.43,375.68c0-4.93,1.93-7.99,4.68-7.99s4.68,3.06,4.68,7.99-1.93,7.99-4.68,7.99-4.68-3.06-4.68-7.99ZM264.92,375.68c0-4.39-1.56-6.93-3.81-6.93s-3.81,2.54-3.81,6.93,1.56,6.93,3.81,6.93,3.81-2.54,3.81-6.93Z"/>
    </g>
  </g>
</svg>