<?xml version="1.0" encoding="UTF-8"?>
<svg xmlns="http://www.w3.org/2000/svg" xmlns:xlink="http://www.w3.org/1999/xlink" viewBox="0 0 1000 1000">
  <defs>
    <style>
      .cls-1 {
        fill: #857c66;
      }

      .cls-2 {
        fill: #00a08e;
      }

      .cls-3 {
        fill: #231f20;
      }

      .cls-4 {
        fill: #f5eed9;
      }

      .cls-5 {
        fill: #8dc860;
      }

      .cls-6 {
        fill: #eddcc8;
      }

      .cls-7 {
        fill: #d3c3ae;
      }

      .cls-8 {
        fill: #1b1c1b;
      }

      .cls-9 {
        fill: #776143;
      }

      .cls-10 {
        fill: #f3ead7;
      }

      .cls-11 {
        fill: #b5a78d;
      }

      .cls-12 {
        fill: #fbf2e2;
      }

      .cls-13 {
        fill: #752a1d;
      }

      .cls-14 {
        fill: #9e917b;
      }

      .cls-15 {
        fill: #942e1f;
      }

      .cls-16 {
        fill: #d3be9b;
      }

      .cls-17 {
        fill: #efe0bd;
      }

      .cls-18 {
        fill: #9f987c;
      }

      .cls-19 {
        fill: #e0d6cd;
      }
    </style>
  </defs>
  <g id="Buttons">
    <g>
      <path class="cls-10" d="M972.47,438.54c.07.96-.31,1.84-.97,2.44-.53.49-1.23.77-2.01.77l-941.48-4.97h-.03l.03-.3v-.1l.12-1.85,17.04-249.17c.11-1.56,1.4-2.77,2.97-2.77h59c2.49-.33,5.2-.66,8.12-.96.91-.1,1.85-.19,2.81-.3,3.13-.31,6.47-.61,10-.9.92-.07,1.86-.15,2.82-.22,3.2-.25,6.53-.5,10-.72.92-.06,1.86-.13,2.81-.18,3.24-.21,6.58-.41,10-.59.93-.05,1.87-.11,2.82-.16,3.26-.17,6.6-.34,9.99-.49.93-.05,1.87-.08,2.82-.13,3.28-.15,6.62-.29,10-.41.93-.03,1.87-.07,2.82-.11,3.29-.12,6.63-.23,9.99-.33.94-.03,1.87-.06,2.82-.1,3.3-.1,6.64-.18,10-.26.93-.02,1.87-.04,2.82-.06,3.32-.07,6.65-.15,9.99-.2.94-.02,1.87-.03,2.82-.04,3.33-.06,6.66-.11,10-.15.93-.01,1.87-.02,2.82-.03,3.34-.03,6.67-.05,9.99-.06.94-.01,1.89-.01,2.82-.01,3.36-.01,6.69-.01,10,0h2.81c3.37.02,6.7.04,10,.07.94.01,1.89.02,2.82.04,3.38.04,6.71.1,10,.15.94.02,1.87.04,2.81.06,3.4.07,6.74.16,10,.26.94.03,1.89.05,2.82.08,3.42.12,6.76.24,9.99.39.95.04,1.9.08,2.82.13,3.46.17,6.8.35,10,.55.95.06,1.9.13,2.82.19,3.53.23,6.86.5,9.99.79.96.08,1.9.18,2.82.26,3.68.38,7.02.78,10,1.24.98.15,1.92.3,2.82.46,3.04.52,5.61,1.1,7.65,1.73h592.47c1.55,0,2.84,1.19,2.97,2.73l20.43,249.28.32,3.93Z"/>
      <path class="cls-4" d="M16.72,436.96l10-2.35c.19-.05.39-.07.59-.07h944.19c.18,0,.36.02.54.06l11.2,2.4c1.19.26,2.04,1.31,2.02,2.53l-5.01,378.65c-.02,1.38-1.11,2.49-2.49,2.52-295.47,6.82-907.53.44-951.18-.03-1.38-.01-2.49-1.12-2.53-2.49l-9.3-378.67c-.03-1.21.79-2.27,1.97-2.55Z"/>
      <polygon class="cls-12" points="27.97 434.54 971.49 434.54 971.49 501.94 28.94 501.94 27.97 434.54"/>
      <polygon class="cls-7" points="28.94 501.94 34.25 523.82 963.64 523.82 971.49 501.94 28.94 501.94"/>
    </g>
    <polygon class="cls-6" points="54.81 523.34 59.9 799.73 940.06 803.43 945.13 523.82 54.81 523.34"/>
    <polygon class="cls-4" points="59.02 520.77 64.33 795.47 937.17 799.08 941.6 520.77 59.02 520.77"/>
    <rect class="cls-17" x="38.23" y="447.42" width="76.5" height="41.41"/>
    <rect class="cls-17" x="781.97" y="537.94" width="150.82" height="34.99"/>
    <polygon class="cls-8" points="65.02 602.81 636.82 602.81 636.82 791.67 576.68 791.67 576.68 754.37 541.74 754.37 541.5 791.67 161.3 790.96 161.3 753.66 126.31 753.66 126.31 790.78 68.27 790.78 65.02 602.81"/>
    <rect class="cls-8" x="648.88" y="602.81" width="117.04" height="76.89"/>
    <rect class="cls-8" x="648.5" y="754.43" width="117.04" height="38.45"/>
    <rect class="cls-8" x="687.07" y="717.07" width="39.6" height="38.45"/>
    <rect class="cls-8" x="778.47" y="602.81" width="155.65" height="188.86"/>
    <rect class="cls-8" x="63.81" y="534.8" width="39.83" height="39.83"/>
    <rect class="cls-8" x="129.84" y="534.68" width="154.29" height="39.83"/>
    <rect class="cls-8" x="305.69" y="534.68" width="154.29" height="39.83"/>
    <rect class="cls-8" x="483.01" y="534.68" width="154.29" height="39.83"/>
    <rect class="cls-8" x="649.39" y="534.68" width="116.53" height="39.83"/>
    <rect class="cls-9" x="915.7" y="542.81" width="9.65" height="4.5"/>
    <rect class="cls-9" x="915.7" y="557.81" width="9.65" height="4.5"/>
    <g>
      <rect class="cls-9" x="64.01" y="203.85" width="2.82" height="126.29"/>
      <rect class="cls-9" x="525.15" y="203.85" width="2.82" height="126.29"/>
      <rect class="cls-9" x="512.34" y="203.85" width="2.82" height="126.29"/>
      <rect class="cls-9" x="499.53" y="203.85" width="2.82" height="126.29"/>
      <rect class="cls-9" x="486.72" y="203.85" width="2.82" height="126.29"/>
      <rect class="cls-9" x="473.91" y="203.85" width="2.82" height="126.29"/>
      <rect class="cls-9" x="461.1" y="203.85" width="2.82" height="126.29"/>
      <rect class="cls-9" x="448.29" y="203.85" width="2.82" height="126.29"/>
      <rect class="cls-9" x="435.48" y="203.85" width="2.82" height="126.29"/>
      <rect class="cls-9" x="422.67" y="203.85" width="2.82" height="126.29"/>
      <rect class="cls-9" x="409.86" y="203.85" width="2.82" height="126.29"/>
      <rect class="cls-9" x="397.06" y="203.85" width="2.82" height="126.29"/>
      <rect class="cls-9" x="384.25" y="203.85" width="2.82" height="126.29"/>
      <rect class="cls-9" x="371.44" y="203.85" width="2.82" height="126.29"/>
      <rect class="cls-9" x="358.63" y="203.85" width="2.82" height="126.29"/>
      <rect class="cls-9" x="345.82" y="203.85" width="2.82" height="126.29"/>
      <rect class="cls-9" x="333.01" y="203.85" width="2.82" height="126.29"/>
      <path class="cls-9" d="M323.02,203.84v149.95c-.26,4.31-1.25,8.42-2.82,12.22v-162.17h2.82Z"/>
      <path class="cls-9" d="M310.2,203.84v176.26c-.9.8-1.84,1.57-2.82,2.29v-178.55h2.82Z"/>
      <rect class="cls-9" x="640.43" y="203.85" width="2.82" height="126.29"/>
      <rect class="cls-9" x="627.63" y="203.85" width="2.82" height="126.29"/>
      <rect class="cls-9" x="614.82" y="203.85" width="2.82" height="126.29"/>
      <rect class="cls-9" x="602.01" y="203.85" width="2.82" height="126.29"/>
      <rect class="cls-9" x="217.72" y="203.85" width="2.82" height="186.04"/>
      <rect class="cls-9" x="204.91" y="203.85" width="2.82" height="186.04"/>
      <rect class="cls-9" x="192.1" y="203.85" width="2.82" height="186.04"/>
      <rect class="cls-9" x="179.29" y="203.85" width="2.82" height="186.04"/>
      <rect class="cls-9" x="166.49" y="203.85" width="2.82" height="186.04"/>
      <rect class="cls-9" x="153.68" y="203.85" width="2.82" height="186.04"/>
      <rect class="cls-9" x="140.87" y="203.85" width="2.82" height="186.04"/>
      <path class="cls-9" d="M130.87,203.84v184.7c-.95-.26-1.9-.56-2.82-.89v-183.81h2.82Z"/>
      <path class="cls-9" d="M118.06,203.84v178.48c-.97-.72-1.91-1.49-2.81-2.3v-176.18h2.81Z"/>
      <path class="cls-9" d="M105.25,203.84v161.96c-1.82-4.48-2.82-9.36-2.82-14.49v-147.47h2.82Z"/>
      <rect class="cls-9" x="89.63" y="203.85" width="2.82" height="126.29"/>
      <rect class="cls-9" x="76.82" y="203.85" width="2.82" height="126.29"/>
      <rect class="cls-9" x="589.2" y="203.85" width="2.82" height="126.29"/>
      <rect class="cls-9" x="576.39" y="203.85" width="2.82" height="126.29"/>
      <rect class="cls-9" x="563.58" y="203.85" width="2.82" height="126.29"/>
      <rect class="cls-9" x="550.77" y="203.85" width="2.82" height="126.29"/>
      <rect class="cls-9" x="537.96" y="203.85" width="2.82" height="126.29"/>
      <rect class="cls-9" x="874.36" y="203.85" width="2.82" height="126.29"/>
      <rect class="cls-9" x="861.55" y="203.85" width="2.82" height="126.29"/>
      <rect class="cls-9" x="848.74" y="203.85" width="2.82" height="126.29"/>
      <rect class="cls-9" x="835.93" y="203.85" width="2.82" height="126.29"/>
      <rect class="cls-9" x="823.12" y="203.85" width="2.82" height="126.29"/>
      <rect class="cls-9" x="810.31" y="203.85" width="2.82" height="126.29"/>
      <rect class="cls-9" x="797.5" y="203.85" width="2.82" height="126.29"/>
      <rect class="cls-9" x="784.69" y="203.85" width="2.82" height="126.29"/>
      <rect class="cls-9" x="771.88" y="203.85" width="2.82" height="126.29"/>
      <rect class="cls-9" x="759.07" y="203.85" width="2.82" height="126.29"/>
      <rect class="cls-9" x="746.26" y="203.85" width="2.82" height="126.29"/>
      <rect class="cls-9" x="733.45" y="203.85" width="2.82" height="126.29"/>
      <rect class="cls-9" x="720.65" y="203.85" width="2.82" height="126.29"/>
      <rect class="cls-9" x="707.84" y="203.85" width="2.82" height="126.29"/>
      <rect class="cls-9" x="695.03" y="203.85" width="2.82" height="126.29"/>
      <rect class="cls-9" x="682.22" y="203.85" width="2.82" height="126.29"/>
      <rect class="cls-9" x="925.6" y="203.85" width="2.82" height="126.29"/>
      <rect class="cls-9" x="912.79" y="203.85" width="2.82" height="126.29"/>
      <rect class="cls-9" x="899.98" y="203.85" width="2.82" height="126.29"/>
      <rect class="cls-9" x="887.17" y="203.85" width="2.82" height="126.29"/>
      <path class="cls-9" d="M297.4,203.84v183.84c-.92.33-1.86.62-2.82.88v-184.72h2.82Z"/>
      <rect class="cls-9" x="281.77" y="203.85" width="2.82" height="186.04"/>
      <rect class="cls-9" x="268.96" y="203.85" width="2.82" height="186.04"/>
      <rect class="cls-9" x="256.15" y="203.85" width="2.82" height="186.04"/>
      <rect class="cls-9" x="243.34" y="203.85" width="2.82" height="186.04"/>
      <rect class="cls-9" x="230.53" y="203.85" width="2.82" height="186.04"/>
    </g>
    <g>
      <rect class="cls-16" x="64.01" y="182.6" width="2.82" height="21.25"/>
      <rect class="cls-16" x="525.15" y="182.6" width="2.82" height="21.25"/>
      <rect class="cls-16" x="512.34" y="182.6" width="2.81" height="21.25"/>
      <rect class="cls-16" x="499.53" y="182.6" width="2.82" height="21.25"/>
      <rect class="cls-16" x="486.72" y="182.6" width="2.82" height="21.25"/>
      <rect class="cls-16" x="473.91" y="182.6" width="2.82" height="21.25"/>
      <rect class="cls-16" x="461.1" y="182.6" width="2.82" height="21.25"/>
      <rect class="cls-16" x="448.29" y="182.6" width="2.82" height="21.25"/>
      <rect class="cls-16" x="435.48" y="182.6" width="2.82" height="21.25"/>
      <rect class="cls-16" x="422.67" y="182.6" width="2.82" height="21.25"/>
      <rect class="cls-16" x="409.86" y="182.6" width="2.82" height="21.25"/>
      <rect class="cls-16" x="397.06" y="182.6" width="2.81" height="21.25"/>
      <rect class="cls-16" x="384.24" y="182.6" width="2.82" height="21.25"/>
      <rect class="cls-16" x="371.44" y="182.6" width="2.81" height="21.25"/>
      <rect class="cls-16" x="358.62" y="182.6" width="2.82" height="21.25"/>
      <path class="cls-16" d="M348.64,180.87v22.97h-2.82v-23.43c.98.15,1.92.3,2.82.46Z"/>
      <path class="cls-16" d="M335.82,179.18v24.67h-2.82v-24.93c.96.08,1.9.18,2.82.26Z"/>
      <path class="cls-16" d="M323.02,178.12v25.73h-2.82v-25.92c.95.06,1.9.13,2.82.19Z"/>
      <path class="cls-16" d="M310.2,177.38v26.47h-2.82v-26.59c.95.04,1.9.08,2.82.13Z"/>
      <rect class="cls-16" x="640.43" y="182.6" width="2.82" height="21.25"/>
      <rect class="cls-16" x="627.63" y="182.6" width="2.82" height="21.25"/>
      <rect class="cls-16" x="614.81" y="182.6" width="2.82" height="21.25"/>
      <rect class="cls-16" x="602.01" y="182.6" width="2.82" height="21.25"/>
      <path class="cls-16" d="M220.54,176.43v27.41h-2.82v-27.37c.94-.02,1.87-.03,2.82-.04Z"/>
      <path class="cls-16" d="M207.73,176.68v27.17h-2.82v-27.1c.93-.02,1.87-.04,2.82-.06Z"/>
      <path class="cls-16" d="M194.92,177.01v26.84h-2.82v-26.74c.94-.03,1.87-.06,2.82-.1Z"/>
      <path class="cls-16" d="M182.11,177.43v26.41h-2.82v-26.31c.93-.03,1.87-.07,2.82-.11Z"/>
      <path class="cls-16" d="M169.3,177.95v25.9h-2.82v-25.77c.93-.05,1.87-.08,2.82-.13Z"/>
      <path class="cls-16" d="M156.49,178.56v25.28h-2.82v-25.12c.93-.05,1.87-.11,2.82-.16Z"/>
      <path class="cls-16" d="M143.68,179.32v24.53h-2.81v-24.35c.92-.06,1.86-.13,2.81-.18Z"/>
      <path class="cls-16" d="M130.87,180.22v23.63h-2.82v-23.41c.92-.07,1.86-.15,2.82-.22Z"/>
      <path class="cls-16" d="M118.06,181.34v22.51h-2.81v-22.21c.91-.1,1.85-.19,2.81-.3Z"/>
      <rect class="cls-16" x="102.44" y="182.6" width="2.82" height="21.25"/>
      <rect class="cls-16" x="89.63" y="182.6" width="2.82" height="21.25"/>
      <rect class="cls-16" x="76.82" y="182.6" width="2.82" height="21.25"/>
      <rect class="cls-16" x="589.19" y="182.6" width="2.82" height="21.25"/>
      <rect class="cls-16" x="576.39" y="182.6" width="2.82" height="21.25"/>
      <rect class="cls-16" x="563.57" y="182.6" width="2.82" height="21.25"/>
      <rect class="cls-16" x="550.77" y="182.6" width="2.82" height="21.25"/>
      <rect class="cls-16" x="537.96" y="182.6" width="2.81" height="21.25"/>
      <rect class="cls-16" x="874.36" y="182.6" width="2.82" height="21.25"/>
      <rect class="cls-16" x="861.54" y="182.6" width="2.82" height="21.25"/>
      <rect class="cls-16" x="848.74" y="182.6" width="2.82" height="21.25"/>
      <rect class="cls-16" x="835.93" y="182.6" width="2.81" height="21.25"/>
      <rect class="cls-16" x="823.12" y="182.6" width="2.82" height="21.25"/>
      <rect class="cls-16" x="810.32" y="182.6" width="2.81" height="21.25"/>
      <rect class="cls-16" x="797.5" y="182.6" width="2.82" height="21.25"/>
      <rect class="cls-16" x="784.7" y="182.6" width="2.82" height="21.25"/>
      <rect class="cls-16" x="771.88" y="182.6" width="2.82" height="21.25"/>
      <rect class="cls-16" x="759.08" y="182.6" width="2.82" height="21.25"/>
      <rect class="cls-16" x="746.26" y="182.6" width="2.82" height="21.25"/>
      <rect class="cls-16" x="733.46" y="182.6" width="2.82" height="21.25"/>
      <rect class="cls-16" x="720.64" y="182.6" width="2.82" height="21.25"/>
      <rect class="cls-16" x="707.84" y="182.6" width="2.82" height="21.25"/>
      <rect class="cls-16" x="695.03" y="182.6" width="2.81" height="21.25"/>
      <rect class="cls-16" x="682.22" y="182.6" width="2.82" height="21.25"/>
      <rect class="cls-16" x="925.6" y="182.6" width="2.82" height="21.25"/>
      <rect class="cls-16" x="912.78" y="182.6" width="2.82" height="21.25"/>
      <rect class="cls-16" x="899.98" y="182.6" width="2.82" height="21.25"/>
      <rect class="cls-16" x="887.16" y="182.6" width="2.82" height="21.25"/>
      <path class="cls-16" d="M297.4,176.86v26.99h-2.82v-27.07c.94.03,1.89.05,2.82.08Z"/>
      <path class="cls-16" d="M284.58,176.51v27.34h-2.81v-27.4c.94.02,1.87.04,2.81.06Z"/>
      <path class="cls-16" d="M271.78,176.3v27.55h-2.82v-27.59c.94.01,1.89.02,2.82.04Z"/>
      <rect class="cls-16" x="256.16" y="176.18" width="2.81" height="27.66"/>
      <path class="cls-16" d="M246.16,176.18v27.66h-2.82v-27.65c.94-.01,1.89-.01,2.82-.01Z"/>
      <path class="cls-16" d="M233.35,176.25v27.59h-2.82v-27.56c.93-.01,1.87-.02,2.82-.03Z"/>
    </g>
    <g>
      <rect class="cls-18" x="541.51" y="642.46" width="35.17" height="35.17" rx="1.21" ry="1.21"/>
      <path class="cls-11" d="M570,670.12c-7.27,1.17-14.54,1.17-21.81,0-1.13,0-2.05-.92-2.05-2.05v-21.81c0-1.13.92-2.05,2.05-2.05h21.81c1.13,0,2.05.92,2.05,2.05v21.81c0,1.13-.92,2.05-2.05,2.05Z"/>
    </g>
    <g>
      <rect class="cls-18" x="125.23" y="642.46" width="35.17" height="35.17" rx="1.21" ry="1.21"/>
      <path class="cls-11" d="M153.73,670.12c-7.27,1.17-14.54,1.17-21.81,0-1.13,0-2.05-.92-2.05-2.05v-21.81c0-1.13.92-2.05,2.05-2.05h21.81c1.13,0,2.05.92,2.05,2.05v21.81c0,1.13-.92,2.05-2.05,2.05Z"/>
    </g>
    <g>
      <rect class="cls-18" x="503.66" y="642.46" width="35.17" height="35.17" rx="1.21" ry="1.21"/>
      <path class="cls-11" d="M532.15,670.12c-7.27,1.17-14.54,1.17-21.81,0-1.13,0-2.05-.92-2.05-2.05v-21.81c0-1.13.92-2.05,2.05-2.05h21.81c1.13,0,2.05.92,2.05,2.05v21.81c0,1.13-.92,2.05-2.05,2.05Z"/>
    </g>
    <g>
      <rect class="cls-18" x="465.82" y="642.46" width="35.17" height="35.17" rx="1.21" ry="1.21"/>
      <path class="cls-11" d="M494.31,670.12c-7.27,1.17-14.54,1.17-21.81,0-1.13,0-2.05-.92-2.05-2.05v-21.81c0-1.13.92-2.05,2.05-2.05h21.81c1.13,0,2.05.92,2.05,2.05v21.81c0,1.13-.92,2.05-2.05,2.05Z"/>
    </g>
    <g>
      <rect class="cls-18" x="427.98" y="642.46" width="35.17" height="35.17" rx="1.21" ry="1.21"/>
      <path class="cls-11" d="M456.47,670.12c-7.27,1.17-14.54,1.17-21.81,0-1.13,0-2.05-.92-2.05-2.05v-21.81c0-1.13.92-2.05,2.05-2.05h21.81c1.13,0,2.05.92,2.05,2.05v21.81c0,1.13-.92,2.05-2.05,2.05Z"/>
    </g>
    <g>
      <rect class="cls-18" x="390.13" y="642.46" width="35.17" height="35.17" rx="1.21" ry="1.21"/>
      <path class="cls-11" d="M418.63,670.12c-7.27,1.17-14.54,1.17-21.81,0-1.13,0-2.05-.92-2.05-2.05v-21.81c0-1.13.92-2.05,2.05-2.05h21.81c1.13,0,2.05.92,2.05,2.05v21.81c0,1.13-.92,2.05-2.05,2.05Z"/>
    </g>
    <g>
      <rect class="cls-18" x="352.29" y="642.46" width="35.17" height="35.17" rx="1.21" ry="1.21"/>
      <path class="cls-11" d="M380.78,670.12c-7.27,1.17-14.54,1.17-21.81,0-1.13,0-2.05-.92-2.05-2.05v-21.81c0-1.13.92-2.05,2.05-2.05h21.81c1.13,0,2.05.92,2.05,2.05v21.81c0,1.13-.92,2.05-2.05,2.05Z"/>
    </g>
    <g>
      <rect class="cls-18" x="314.45" y="642.46" width="35.17" height="35.17" rx="1.21" ry="1.21"/>
      <path class="cls-11" d="M342.94,670.12c-7.27,1.17-14.54,1.17-21.81,0-1.13,0-2.05-.92-2.05-2.05v-21.81c0-1.13.92-2.05,2.05-2.05h21.81c1.13,0,2.05.92,2.05,2.05v21.81c0,1.13-.92,2.05-2.05,2.05Z"/>
    </g>
    <g>
      <rect class="cls-18" x="276.61" y="642.46" width="35.17" height="35.17" rx="1.21" ry="1.21"/>
      <path class="cls-11" d="M305.1,670.12c-7.27,1.17-14.54,1.17-21.81,0-1.13,0-2.05-.92-2.05-2.05v-21.81c0-1.13.92-2.05,2.05-2.05h21.81c1.13,0,2.05.92,2.05,2.05v21.81c0,1.13-.92,2.05-2.05,2.05Z"/>
    </g>
    <g>
      <rect class="cls-18" x="238.76" y="642.46" width="35.17" height="35.17" rx="1.21" ry="1.21"/>
      <path class="cls-11" d="M267.25,670.12c-7.27,1.17-14.54,1.17-21.81,0-1.13,0-2.05-.92-2.05-2.05v-21.81c0-1.13.92-2.05,2.05-2.05h21.81c1.13,0,2.05.92,2.05,2.05v21.81c0,1.13-.92,2.05-2.05,2.05Z"/>
    </g>
    <g>
      <rect class="cls-18" x="200.92" y="642.46" width="35.17" height="35.17" rx="1.21" ry="1.21"/>
      <path class="cls-11" d="M229.41,670.12c-7.27,1.17-14.54,1.17-21.81,0-1.13,0-2.05-.92-2.05-2.05v-21.81c0-1.13.92-2.05,2.05-2.05h21.81c1.13,0,2.05.92,2.05,2.05v21.81c0,1.13-.92,2.05-2.05,2.05Z"/>
    </g>
    <g>
      <rect class="cls-18" x="163.08" y="642.46" width="35.17" height="35.17" rx="1.21" ry="1.21"/>
      <path class="cls-11" d="M191.57,670.12c-7.27,1.17-14.54,1.17-21.81,0-1.13,0-2.05-.92-2.05-2.05v-21.81c0-1.13.92-2.05,2.05-2.05h21.81c1.13,0,2.05.92,2.05,2.05v21.81c0,1.13-.92,2.05-2.05,2.05Z"/>
    </g>
    <g>
      <rect class="cls-18" x="484.74" y="605.54" width="35.17" height="35.17" rx="1.21" ry="1.21"/>
      <path class="cls-11" d="M513.23,633.2c-7.27,1.17-14.54,1.17-21.81,0-1.13,0-2.05-.92-2.05-2.05v-21.81c0-1.13.92-2.05,2.05-2.05h21.81c1.13,0,2.05.92,2.05,2.05v21.81c0,1.13-.92,2.05-2.05,2.05Z"/>
    </g>
    <g>
      <rect class="cls-18" x="68.47" y="605.54" width="35.17" height="35.17" rx="1.21" ry="1.21"/>
      <path class="cls-11" d="M96.96,633.2c-7.27,1.17-14.54,1.17-21.81,0-1.13,0-2.05-.92-2.05-2.05v-21.81c0-1.13.92-2.05,2.05-2.05h21.81c1.13,0,2.05.92,2.05,2.05v21.81c0,1.13-.92,2.05-2.05,2.05Z"/>
    </g>
    <g>
      <rect class="cls-18" x="446.9" y="605.54" width="35.17" height="35.17" rx="1.21" ry="1.21"/>
      <path class="cls-11" d="M475.39,633.2c-7.27,1.17-14.54,1.17-21.81,0-1.13,0-2.05-.92-2.05-2.05v-21.81c0-1.13.92-2.05,2.05-2.05h21.81c1.13,0,2.05.92,2.05,2.05v21.81c0,1.13-.92,2.05-2.05,2.05Z"/>
    </g>
    <g>
      <rect class="cls-18" x="560.15" y="605.54" width="35.17" height="35.17" rx="1.21" ry="1.21"/>
      <path class="cls-11" d="M588.64,633.2c-7.27,1.17-14.54,1.17-21.81,0-1.13,0-2.05-.92-2.05-2.05v-21.81c0-1.13.92-2.05,2.05-2.05h21.81c1.13,0,2.05.92,2.05,2.05v21.81c0,1.13-.92,2.05-2.05,2.05Z"/>
    </g>
    <g>
      <rect class="cls-18" x="579.7" y="642.46" width="54.1" height="35.17" rx="1.5" ry="1.5"/>
      <path class="cls-11" d="M626.57,670.12c-13.22,1.17-26.43,1.17-39.65,0-2.06,0-3.73-.92-3.73-2.05v-21.81c0-1.13,1.67-2.05,3.73-2.05h39.65c2.06,0,3.73.92,3.73,2.05v21.81c0,1.13-1.67,2.05-3.73,2.05Z"/>
    </g>
    <rect class="cls-18" x="780.79" y="754.2" width="74.61" height="35.17" rx="1.76" ry="1.76"/>
    <path class="cls-11" d="M845.8,781.86c-18.47,1.17-36.94,1.17-55.41,0-2.88,0-5.21-.92-5.21-2.05v-21.81c0-1.13,2.33-2.05,5.21-2.05h55.41c2.88,0,5.21.92,5.21,2.05v21.81c0,1.13-2.33,2.05-5.21,2.05Z"/>
    <rect class="cls-18" x="220.51" y="753.75" width="261.5" height="35.17" rx="1.5" ry="1.5"/>
    <rect class="cls-1" x="68.47" y="642.46" width="54.1" height="35.17" rx="1.5" ry="1.5"/>
    <path class="cls-14" d="M115.34,670.12c-13.22,1.17-26.43,1.17-39.65,0-2.06,0-3.73-.92-3.73-2.05v-21.81c0-1.13,1.67-2.05,3.73-2.05h39.65c2.06,0,3.73.92,3.73,2.05v21.81c0,1.13-1.67,2.05-3.73,2.05Z"/>
    <rect class="cls-1" x="597.44" y="605.54" width="36.36" height="35.17" rx="1.23" ry="1.23"/>
    <path class="cls-14" d="M627.13,633.2c-7.67,1.17-15.34,1.17-23.02,0-1.2,0-2.16-.92-2.16-2.05v-21.81c0-1.13.97-2.05,2.16-2.05h23.02c1.2,0,2.16.92,2.16,2.05v21.81c0,1.13-.97,2.05-2.16,2.05Z"/>
    <rect class="cls-1" x="66.08" y="537.01" width="36.36" height="35.17" rx="1.23" ry="1.23"/>
    <path class="cls-14" d="M95.76,564.68c-7.67,1.17-15.34,1.17-23.02,0-1.2,0-2.16-.92-2.16-2.05v-21.81c0-1.13.97-2.05,2.16-2.05h23.02c1.2,0,2.16.92,2.16,2.05v21.81c0,1.13-.97,2.05-2.16,2.05Z"/>
    <rect class="cls-1" x="650.71" y="537.01" width="36.36" height="35.17" rx="1.23" ry="1.23"/>
    <path class="cls-14" d="M680.39,564.68c-7.67,1.17-15.34,1.17-23.02,0-1.2,0-2.16-.92-2.16-2.05v-21.81c0-1.13.97-2.05,2.16-2.05h23.02c1.2,0,2.16.92,2.16,2.05v21.81c0,1.13-.97,2.05-2.16,2.05Z"/>
    <rect class="cls-1" x="688.95" y="537.01" width="36.36" height="35.17" rx="1.23" ry="1.23"/>
    <path class="cls-14" d="M718.64,564.68c-7.67,1.17-15.34,1.17-23.02,0-1.2,0-2.16-.92-2.16-2.05v-21.81c0-1.13.97-2.05,2.16-2.05h23.02c1.2,0,2.16.92,2.16,2.05v21.81c0,1.13-.97,2.05-2.16,2.05Z"/>
    <rect class="cls-1" x="727.44" y="537.01" width="36.36" height="35.17" rx="1.23" ry="1.23"/>
    <path class="cls-14" d="M757.13,564.68c-7.67,1.17-15.34,1.17-23.02,0-1.2,0-2.16-.92-2.16-2.05v-21.81c0-1.13.97-2.05,2.16-2.05h23.02c1.2,0,2.16.92,2.16,2.05v21.81c0,1.13-.97,2.05-2.16,2.05Z"/>
    <rect class="cls-1" x="650.58" y="605.21" width="36.36" height="35.17" rx="1.23" ry="1.23"/>
    <path class="cls-14" d="M680.27,632.87c-7.67,1.17-15.34,1.17-23.02,0-1.2,0-2.16-.92-2.16-2.05v-21.81c0-1.13.97-2.05,2.16-2.05h23.02c1.2,0,2.16.92,2.16,2.05v21.81c0,1.13-.97,2.05-2.16,2.05Z"/>
    <rect class="cls-1" x="688.83" y="605.21" width="36.36" height="35.17" rx="1.23" ry="1.23"/>
    <path class="cls-14" d="M718.52,632.87c-7.67,1.17-15.34,1.17-23.02,0-1.2,0-2.16-.92-2.16-2.05v-21.81c0-1.13.97-2.05,2.16-2.05h23.02c1.2,0,2.16.92,2.16,2.05v21.81c0,1.13-.97,2.05-2.16,2.05Z"/>
    <rect class="cls-1" x="727.32" y="605.21" width="36.36" height="35.17" rx="1.23" ry="1.23"/>
    <path class="cls-14" d="M757.01,632.87c-7.67,1.17-15.34,1.17-23.02,0-1.2,0-2.16-.92-2.16-2.05v-21.81c0-1.13.97-2.05,2.16-2.05h23.02c1.2,0,2.16.92,2.16,2.05v21.81c0,1.13-.97,2.05-2.16,2.05Z"/>
    <rect class="cls-1" x="780.91" y="605.21" width="36.36" height="35.17" rx="1.23" ry="1.23"/>
    <path class="cls-14" d="M810.6,632.87c-7.67,1.17-15.34,1.17-23.02,0-1.2,0-2.16-.92-2.16-2.05v-21.81c0-1.13.97-2.05,2.16-2.05h23.02c1.2,0,2.16.92,2.16,2.05v21.81c0,1.13-.97,2.05-2.16,2.05Z"/>
    <rect class="cls-1" x="819.16" y="605.21" width="36.36" height="35.17" rx="1.23" ry="1.23"/>
    <path class="cls-14" d="M848.85,632.87c-7.67,1.17-15.34,1.17-23.02,0-1.2,0-2.16-.92-2.16-2.05v-21.81c0-1.13.97-2.05,2.16-2.05h23.02c1.2,0,2.16.92,2.16,2.05v21.81c0,1.13-.97,2.05-2.16,2.05Z"/>
    <rect class="cls-1" x="857.65" y="605.21" width="36.36" height="35.17" rx="1.23" ry="1.23"/>
    <path class="cls-14" d="M887.34,632.87c-7.67,1.17-15.34,1.17-23.02,0-1.2,0-2.16-.92-2.16-2.05v-21.81c0-1.13.97-2.05,2.16-2.05h23.02c1.2,0,2.16.92,2.16,2.05v21.81c0,1.13-.97,2.05-2.16,2.05Z"/>
    <rect class="cls-1" x="896.02" y="605.21" width="36.36" height="35.17" rx="1.23" ry="1.23"/>
    <path class="cls-14" d="M925.71,632.87c-7.67,1.17-15.34,1.17-23.02,0-1.2,0-2.16-.92-2.16-2.05v-21.81c0-1.13.97-2.05,2.16-2.05h23.02c1.2,0,2.16.92,2.16,2.05v21.81c0,1.13-.97,2.05-2.16,2.05Z"/>
    <rect class="cls-1" x="896.02" y="642.46" width="36.36" height="35.17" rx="1.23" ry="1.23"/>
    <path class="cls-14" d="M925.71,670.12c-7.67,1.17-15.34,1.17-23.02,0-1.2,0-2.16-.92-2.16-2.05v-21.81c0-1.13.97-2.05,2.16-2.05h23.02c1.2,0,2.16.92,2.16,2.05v21.81c0,1.13-.97,2.05-2.16,2.05Z"/>
    <rect class="cls-1" x="896.02" y="679.38" width="36.36" height="35.17" rx="1.23" ry="1.23"/>
    <path class="cls-14" d="M925.71,707.04c-7.67,1.17-15.34,1.17-23.02,0-1.2,0-2.16-.92-2.16-2.05v-21.81c0-1.13.97-2.05,2.16-2.05h23.02c1.2,0,2.16.92,2.16,2.05v21.81c0,1.13-.97,2.05-2.16,2.05Z"/>
    <rect class="cls-1" x="896.02" y="716.3" width="36.36" height="73.07" rx="1.77" ry="1.77"/>
    <path class="cls-14" d="M925.71,780c-7.5,2.52-15.19,2.54-23.02,0-1.2,0-2.16-2.13-2.16-4.75v-50.55c0-2.63.97-4.75,2.16-4.75h23.02c1.2,0,2.16,2.13,2.16,4.75v50.55c0,2.63-.97,4.75-2.16,4.75Z"/>
    <rect class="cls-1" x="650.71" y="642.46" width="36.36" height="35.17" rx="1.23" ry="1.23"/>
    <path class="cls-14" d="M680.39,670.12c-7.67,1.17-15.34,1.17-23.02,0-1.2,0-2.16-.92-2.16-2.05v-21.81c0-1.13.97-2.05,2.16-2.05h23.02c1.2,0,2.16.92,2.16,2.05v21.81c0,1.13-.97,2.05-2.16,2.05Z"/>
    <rect class="cls-1" x="688.95" y="642.46" width="36.36" height="35.17" rx="1.23" ry="1.23"/>
    <path class="cls-14" d="M718.64,670.12c-7.67,1.17-15.34,1.17-23.02,0-1.2,0-2.16-.92-2.16-2.05v-21.81c0-1.13.97-2.05,2.16-2.05h23.02c1.2,0,2.16.92,2.16,2.05v21.81c0,1.13-.97,2.05-2.16,2.05Z"/>
    <rect class="cls-1" x="727.44" y="642.46" width="36.36" height="35.17" rx="1.23" ry="1.23"/>
    <path class="cls-14" d="M757.13,670.12c-7.67,1.17-15.34,1.17-23.02,0-1.2,0-2.16-.92-2.16-2.05v-21.81c0-1.13.97-2.05,2.16-2.05h23.02c1.2,0,2.16.92,2.16,2.05v21.81c0,1.13-.97,2.05-2.16,2.05Z"/>
    <rect class="cls-1" x="650.58" y="756.5" width="36.36" height="35.17" rx="1.23" ry="1.23"/>
    <path class="cls-14" d="M680.27,784.16c-7.67,1.17-15.34,1.17-23.02,0-1.2,0-2.16-.92-2.16-2.05v-21.81c0-1.13.97-2.05,2.16-2.05h23.02c1.2,0,2.16.92,2.16,2.05v21.81c0,1.13-.97,2.05-2.16,2.05Z"/>
    <rect class="cls-1" x="688.83" y="756.5" width="36.36" height="35.17" rx="1.23" ry="1.23"/>
    <path class="cls-14" d="M718.52,784.16c-7.67,1.17-15.34,1.17-23.02,0-1.2,0-2.16-.92-2.16-2.05v-21.81c0-1.13.97-2.05,2.16-2.05h23.02c1.2,0,2.16.92,2.16,2.05v21.81c0,1.13-.97,2.05-2.16,2.05Z"/>
    <rect class="cls-1" x="688.83" y="718.7" width="36.36" height="35.17" rx="1.23" ry="1.23"/>
    <path class="cls-14" d="M718.52,746.36c-7.67,1.17-15.34,1.17-23.02,0-1.2,0-2.16-.92-2.16-2.05v-21.81c0-1.13.97-2.05,2.16-2.05h23.02c1.2,0,2.16.92,2.16,2.05v21.81c0,1.13-.97,2.05-2.16,2.05Z"/>
    <rect class="cls-1" x="727.32" y="756.5" width="36.36" height="35.17" rx="1.23" ry="1.23"/>
    <path class="cls-14" d="M757.01,784.16c-7.67,1.17-15.34,1.17-23.02,0-1.2,0-2.16-.92-2.16-2.05v-21.81c0-1.13.97-2.05,2.16-2.05h23.02c1.2,0,2.16.92,2.16,2.05v21.81c0,1.13-.97,2.05-2.16,2.05Z"/>
    <g>
      <rect class="cls-13" x="131.58" y="537.01" width="36.36" height="35.17" rx="1.23" ry="1.23"/>
      <path class="cls-15" d="M161.27,564.68c-7.67,1.17-15.34,1.17-23.02,0-1.2,0-2.16-.92-2.16-2.05v-21.81c0-1.13.97-2.05,2.16-2.05h23.02c1.2,0,2.16.92,2.16,2.05v21.81c0,1.13-.97,2.05-2.16,2.05Z"/>
    </g>
    <g>
      <rect class="cls-13" x="169.83" y="537.01" width="36.36" height="35.17" rx="1.23" ry="1.23"/>
      <path class="cls-15" d="M199.51,564.68c-7.67,1.17-15.34,1.17-23.02,0-1.2,0-2.16-.92-2.16-2.05v-21.81c0-1.13.97-2.05,2.16-2.05h23.02c1.2,0,2.16.92,2.16,2.05v21.81c0,1.13-.97,2.05-2.16,2.05Z"/>
    </g>
    <g>
      <rect class="cls-13" x="207.83" y="537.01" width="36.36" height="35.17" rx="1.23" ry="1.23"/>
      <path class="cls-15" d="M237.52,564.68c-7.67,1.17-15.34,1.17-23.02,0-1.2,0-2.16-.92-2.16-2.05v-21.81c0-1.13.97-2.05,2.16-2.05h23.02c1.2,0,2.16.92,2.16,2.05v21.81c0,1.13-.97,2.05-2.16,2.05Z"/>
    </g>
    <g>
      <rect class="cls-13" x="246.23" y="537.01" width="36.36" height="35.17" rx="1.23" ry="1.23"/>
      <path class="cls-15" d="M275.92,564.68c-7.67,1.17-15.34,1.17-23.02,0-1.2,0-2.16-.92-2.16-2.05v-21.81c0-1.13.97-2.05,2.16-2.05h23.02c1.2,0,2.16.92,2.16,2.05v21.81c0,1.13-.97,2.05-2.16,2.05Z"/>
    </g>
    <g>
      <rect class="cls-13" x="307.33" y="537.01" width="36.36" height="35.17" rx="1.23" ry="1.23"/>
      <path class="cls-15" d="M337.02,564.68c-7.67,1.17-15.34,1.17-23.02,0-1.2,0-2.16-.92-2.16-2.05v-21.81c0-1.13.97-2.05,2.16-2.05h23.02c1.2,0,2.16.92,2.16,2.05v21.81c0,1.13-.97,2.05-2.16,2.05Z"/>
    </g>
    <g>
      <rect class="cls-13" x="345.58" y="537.01" width="36.36" height="35.17" rx="1.23" ry="1.23"/>
      <path class="cls-15" d="M375.26,564.68c-7.67,1.17-15.34,1.17-23.02,0-1.2,0-2.16-.92-2.16-2.05v-21.81c0-1.13.97-2.05,2.16-2.05h23.02c1.2,0,2.16.92,2.16,2.05v21.81c0,1.13-.97,2.05-2.16,2.05Z"/>
    </g>
    <g>
      <rect class="cls-13" x="383.58" y="537.01" width="36.36" height="35.17" rx="1.23" ry="1.23"/>
      <path class="cls-15" d="M413.27,564.68c-7.67,1.17-15.34,1.17-23.02,0-1.2,0-2.16-.92-2.16-2.05v-21.81c0-1.13.97-2.05,2.16-2.05h23.02c1.2,0,2.16.92,2.16,2.05v21.81c0,1.13-.97,2.05-2.16,2.05Z"/>
    </g>
    <g>
      <rect class="cls-13" x="421.98" y="537.01" width="36.36" height="35.17" rx="1.23" ry="1.23"/>
      <path class="cls-15" d="M451.67,564.68c-7.67,1.17-15.34,1.17-23.02,0-1.2,0-2.16-.92-2.16-2.05v-21.81c0-1.13.97-2.05,2.16-2.05h23.02c1.2,0,2.16.92,2.16,2.05v21.81c0,1.13-.97,2.05-2.16,2.05Z"/>
    </g>
    <g>
      <rect class="cls-13" x="484.64" y="537.01" width="36.36" height="35.17" rx="1.23" ry="1.23"/>
      <path class="cls-15" d="M514.33,564.68c-7.67,1.17-15.34,1.17-23.02,0-1.2,0-2.16-.92-2.16-2.05v-21.81c0-1.13.97-2.05,2.16-2.05h23.02c1.2,0,2.16.92,2.16,2.05v21.81c0,1.13-.97,2.05-2.16,2.05Z"/>
    </g>
    <g>
      <rect class="cls-13" x="522.89" y="537.01" width="36.36" height="35.17" rx="1.23" ry="1.23"/>
      <path class="cls-15" d="M552.58,564.68c-7.67,1.17-15.34,1.17-23.02,0-1.2,0-2.16-.92-2.16-2.05v-21.81c0-1.13.97-2.05,2.16-2.05h23.02c1.2,0,2.16.92,2.16,2.05v21.81c0,1.13-.97,2.05-2.16,2.05Z"/>
    </g>
    <g>
      <rect class="cls-13" x="560.9" y="537.01" width="36.36" height="35.17" rx="1.23" ry="1.23"/>
      <path class="cls-15" d="M590.59,564.68c-7.67,1.17-15.34,1.17-23.02,0-1.2,0-2.16-.92-2.16-2.05v-21.81c0-1.13.97-2.05,2.16-2.05h23.02c1.2,0,2.16.92,2.16,2.05v21.81c0,1.13-.97,2.05-2.16,2.05Z"/>
    </g>
    <g>
      <rect class="cls-13" x="599.3" y="537.01" width="36.36" height="35.17" rx="1.23" ry="1.23"/>
      <path class="cls-15" d="M628.98,564.68c-7.67,1.17-15.34,1.17-23.02,0-1.2,0-2.16-.92-2.16-2.05v-21.81c0-1.13.97-2.05,2.16-2.05h23.02c1.2,0,2.16.92,2.16,2.05v21.81c0,1.13-.97,2.05-2.16,2.05Z"/>
    </g>
    <rect class="cls-1" x="70.4" y="753.43" width="54.1" height="35.17" rx="1.5" ry="1.5"/>
    <path class="cls-14" d="M117.27,781.09c-13.22,1.17-26.43,1.17-39.65,0-2.06,0-3.73-.92-3.73-2.05v-21.81c0-1.13,1.67-2.05,3.73-2.05h39.65c2.06,0,3.73.92,3.73,2.05v21.81c0,1.13-1.67,2.05-3.73,2.05Z"/>
    <rect class="cls-1" x="484.41" y="753.75" width="54.1" height="35.17" rx="1.5" ry="1.5"/>
    <path class="cls-14" d="M531.29,781.41c-13.22,1.17-26.43,1.17-39.65,0-2.06,0-3.73-.92-3.73-2.05v-21.81c0-1.13,1.67-2.05,3.73-2.05h39.65c2.06,0,3.73.92,3.73,2.05v21.81c0,1.13-1.67,2.05-3.73,2.05Z"/>
    <rect class="cls-1" x="579.7" y="753.43" width="54.1" height="35.17" rx="1.5" ry="1.5"/>
    <path class="cls-14" d="M626.57,781.09c-13.22,1.17-26.43,1.17-39.65,0-2.06,0-3.73-.92-3.73-2.05v-21.81c0-1.13,1.67-2.05,3.73-2.05h39.65c2.06,0,3.73.92,3.73,2.05v21.81c0,1.13-1.67,2.05-3.73,2.05Z"/>
    <rect class="cls-1" x="69.8" y="716.3" width="83.16" height="35.17" rx="1.86" ry="1.86"/>
    <path class="cls-14" d="M143.68,743.96c-21.54,1.17-43.07,1.17-64.61,0-3.36,0-6.08-.92-6.08-2.05v-21.81c0-1.13,2.72-2.05,6.08-2.05h64.61c3.36,0,6.08.92,6.08,2.05v21.81c0,1.13-2.72,2.05-6.08,2.05Z"/>
    <rect class="cls-1" x="550.64" y="679.38" width="83.16" height="35.17" rx="1.86" ry="1.86"/>
    <path class="cls-14" d="M624.52,707.04c-21.54,1.17-43.07,1.17-64.61,0-3.36,0-6.08-.92-6.08-2.05v-21.81c0-1.13,2.72-2.05,6.08-2.05h64.61c3.36,0,6.08.92,6.08,2.05v21.81c0,1.13-2.72,2.05-6.08,2.05Z"/>
    <rect class="cls-1" x="163.75" y="753.75" width="54.1" height="35.17" rx="1.5" ry="1.5"/>
    <path class="cls-14" d="M210.62,781.41c-13.22,1.17-26.43,1.17-39.65,0-2.06,0-3.73-.92-3.73-2.05v-21.81c0-1.13,1.67-2.05,3.73-2.05h39.65c2.06,0,3.73.92,3.73,2.05v21.81c0,1.13-1.67,2.05-3.73,2.05Z"/>
    <rect class="cls-1" x="68.47" y="679.38" width="64.72" height="35.17" rx="1.64" ry="1.64"/>
    <path class="cls-14" d="M125.27,707.04c-16.29,1.17-32.59,1.17-48.88,0-2.54,0-4.6-.92-4.6-2.05v-21.81c0-1.13,2.06-2.05,4.6-2.05h48.88c2.54,0,4.6.92,4.6,2.05v21.81c0,1.13-2.06,2.05-4.6,2.05Z"/>
    <rect class="cls-1" x="532.42" y="716.3" width="101.38" height="35.17" rx="2.05" ry="2.05"/>
    <g>
      <rect class="cls-18" x="522.31" y="605.54" width="35.17" height="35.17" rx="1.21" ry="1.21"/>
      <path class="cls-11" d="M550.8,633.2c-7.27,1.17-14.54,1.17-21.81,0-1.13,0-2.05-.92-2.05-2.05v-21.81c0-1.13.92-2.05,2.05-2.05h21.81c1.13,0,2.05.92,2.05,2.05v21.81c0,1.13-.92,2.05-2.05,2.05Z"/>
    </g>
    <g>
      <rect class="cls-18" x="409.06" y="605.54" width="35.17" height="35.17" rx="1.21" ry="1.21"/>
      <path class="cls-11" d="M437.55,633.2c-7.27,1.17-14.54,1.17-21.81,0-1.13,0-2.05-.92-2.05-2.05v-21.81c0-1.13.92-2.05,2.05-2.05h21.81c1.13,0,2.05.92,2.05,2.05v21.81c0,1.13-.92,2.05-2.05,2.05Z"/>
    </g>
    <g>
      <rect class="cls-18" x="371.21" y="605.54" width="35.17" height="35.17" rx="1.21" ry="1.21"/>
      <path class="cls-11" d="M399.7,633.2c-7.27,1.17-14.54,1.17-21.81,0-1.13,0-2.05-.92-2.05-2.05v-21.81c0-1.13.92-2.05,2.05-2.05h21.81c1.13,0,2.05.92,2.05,2.05v21.81c0,1.13-.92,2.05-2.05,2.05Z"/>
    </g>
    <g>
      <rect class="cls-18" x="333.37" y="605.54" width="35.17" height="35.17" rx="1.21" ry="1.21"/>
      <path class="cls-11" d="M361.86,633.2c-7.27,1.17-14.54,1.17-21.81,0-1.13,0-2.05-.92-2.05-2.05v-21.81c0-1.13.92-2.05,2.05-2.05h21.81c1.13,0,2.05.92,2.05,2.05v21.81c0,1.13-.92,2.05-2.05,2.05Z"/>
    </g>
    <g>
      <rect class="cls-18" x="295.53" y="605.54" width="35.17" height="35.17" rx="1.21" ry="1.21"/>
      <path class="cls-11" d="M324.02,633.2c-7.27,1.17-14.54,1.17-21.81,0-1.13,0-2.05-.92-2.05-2.05v-21.81c0-1.13.92-2.05,2.05-2.05h21.81c1.13,0,2.05.92,2.05,2.05v21.81c0,1.13-.92,2.05-2.05,2.05Z"/>
    </g>
    <g>
      <rect class="cls-18" x="257.68" y="605.54" width="35.17" height="35.17" rx="1.21" ry="1.21"/>
      <path class="cls-11" d="M286.18,633.2c-7.27,1.17-14.54,1.17-21.81,0-1.13,0-2.05-.92-2.05-2.05v-21.81c0-1.13.92-2.05,2.05-2.05h21.81c1.13,0,2.05.92,2.05,2.05v21.81c0,1.13-.92,2.05-2.05,2.05Z"/>
    </g>
    <g>
      <rect class="cls-18" x="219.84" y="605.54" width="35.17" height="35.17" rx="1.21" ry="1.21"/>
      <path class="cls-11" d="M248.33,633.2c-7.27,1.17-14.54,1.17-21.81,0-1.13,0-2.05-.92-2.05-2.05v-21.81c0-1.13.92-2.05,2.05-2.05h21.81c1.13,0,2.05.92,2.05,2.05v21.81c0,1.13-.92,2.05-2.05,2.05Z"/>
    </g>
    <g>
      <rect class="cls-18" x="182" y="605.54" width="35.17" height="35.17" rx="1.21" ry="1.21"/>
      <path class="cls-11" d="M210.49,633.2c-7.27,1.17-14.54,1.17-21.81,0-1.13,0-2.05-.92-2.05-2.05v-21.81c0-1.13.92-2.05,2.05-2.05h21.81c1.13,0,2.05.92,2.05,2.05v21.81c0,1.13-.92,2.05-2.05,2.05Z"/>
    </g>
    <g>
      <rect class="cls-18" x="144.16" y="605.54" width="35.17" height="35.17" rx="1.21" ry="1.21"/>
      <path class="cls-11" d="M172.65,633.2c-7.27,1.17-14.54,1.17-21.81,0-1.13,0-2.05-.92-2.05-2.05v-21.81c0-1.13.92-2.05,2.05-2.05h21.81c1.13,0,2.05.92,2.05,2.05v21.81c0,1.13-.92,2.05-2.05,2.05Z"/>
    </g>
    <g>
      <rect class="cls-18" x="106.31" y="605.54" width="35.17" height="35.17" rx="1.21" ry="1.21"/>
      <path class="cls-11" d="M134.8,633.2c-7.27,1.17-14.54,1.17-21.81,0-1.13,0-2.05-.92-2.05-2.05v-21.81c0-1.13.92-2.05,2.05-2.05h21.81c1.13,0,2.05.92,2.05,2.05v21.81c0,1.13-.92,2.05-2.05,2.05Z"/>
    </g>
    <g>
      <rect class="cls-18" x="781.91" y="642.46" width="35.17" height="35.17" rx="1.21" ry="1.21"/>
      <path class="cls-11" d="M810.4,670.12c-7.27,1.17-14.54,1.17-21.81,0-1.13,0-2.05-.92-2.05-2.05v-21.81c0-1.13.92-2.05,2.05-2.05h21.81c1.13,0,2.05.92,2.05,2.05v21.81c0,1.13-.92,2.05-2.05,2.05Z"/>
    </g>
    <g>
      <rect class="cls-18" x="857.59" y="642.46" width="35.17" height="35.17" rx="1.21" ry="1.21"/>
      <path class="cls-11" d="M886.09,670.12c-7.27,1.17-14.54,1.17-21.81,0-1.13,0-2.05-.92-2.05-2.05v-21.81c0-1.13.92-2.05,2.05-2.05h21.81c1.13,0,2.05.92,2.05,2.05v21.81c0,1.13-.92,2.05-2.05,2.05Z"/>
    </g>
    <g>
      <rect class="cls-18" x="819.75" y="642.46" width="35.17" height="35.17" rx="1.21" ry="1.21"/>
      <path class="cls-11" d="M848.24,670.12c-7.27,1.17-14.54,1.17-21.81,0-1.13,0-2.05-.92-2.05-2.05v-21.81c0-1.13.92-2.05,2.05-2.05h21.81c1.13,0,2.05.92,2.05,2.05v21.81c0,1.13-.92,2.05-2.05,2.05Z"/>
    </g>
    <g>
      <rect class="cls-18" x="780.91" y="642.46" width="35.88" height="35.17" rx="1.22" ry="1.22"/>
      <path class="cls-11" d="M809.98,670.12c-7.42,1.17-14.83,1.17-22.25,0-1.16,0-2.09-.92-2.09-2.05v-21.81c0-1.13.94-2.05,2.09-2.05h22.25c1.16,0,2.09.92,2.09,2.05v21.81c0,1.13-.94,2.05-2.09,2.05Z"/>
    </g>
    <g>
      <rect class="cls-18" x="858.13" y="642.46" width="35.88" height="35.17" rx="1.22" ry="1.22"/>
      <path class="cls-11" d="M887.19,670.12c-7.42,1.17-14.83,1.17-22.25,0-1.16,0-2.09-.92-2.09-2.05v-21.81c0-1.13.94-2.05,2.09-2.05h22.25c1.16,0,2.09.92,2.09,2.05v21.81c0,1.13-.94,2.05-2.09,2.05Z"/>
    </g>
    <g>
      <rect class="cls-18" x="819.52" y="642.46" width="35.88" height="35.17" rx="1.22" ry="1.22"/>
      <path class="cls-11" d="M848.58,670.12c-7.42,1.17-14.83,1.17-22.25,0-1.16,0-2.09-.92-2.09-2.05v-21.81c0-1.13.94-2.05,2.09-2.05h22.25c1.16,0,2.09.92,2.09,2.05v21.81c0,1.13-.94,2.05-2.09,2.05Z"/>
    </g>
    <g>
      <rect class="cls-18" x="780.79" y="679.71" width="35.88" height="35.17" rx="1.22" ry="1.22"/>
      <path class="cls-11" d="M809.85,707.37c-7.42,1.17-14.83,1.17-22.25,0-1.16,0-2.09-.92-2.09-2.05v-21.81c0-1.13.94-2.05,2.09-2.05h22.25c1.16,0,2.09.92,2.09,2.05v21.81c0,1.13-.94,2.05-2.09,2.05Z"/>
    </g>
    <g>
      <rect class="cls-18" x="858" y="679.71" width="35.88" height="35.17" rx="1.22" ry="1.22"/>
      <path class="cls-11" d="M887.07,707.37c-7.42,1.17-14.83,1.17-22.25,0-1.16,0-2.09-.92-2.09-2.05v-21.81c0-1.13.94-2.05,2.09-2.05h22.25c1.16,0,2.09.92,2.09,2.05v21.81c0,1.13-.94,2.05-2.09,2.05Z"/>
    </g>
    <g>
      <rect class="cls-18" x="819.4" y="679.71" width="35.88" height="35.17" rx="1.22" ry="1.22"/>
      <path class="cls-11" d="M848.46,707.37c-7.42,1.17-14.83,1.17-22.25,0-1.16,0-2.09-.92-2.09-2.05v-21.81c0-1.13.94-2.05,2.09-2.05h22.25c1.16,0,2.09.92,2.09,2.05v21.81c0,1.13-.94,2.05-2.09,2.05Z"/>
    </g>
    <g>
      <rect class="cls-18" x="780.79" y="716.95" width="35.88" height="35.17" rx="1.22" ry="1.22"/>
      <path class="cls-11" d="M809.85,744.61c-7.42,1.17-14.83,1.17-22.25,0-1.16,0-2.09-.92-2.09-2.05v-21.81c0-1.13.94-2.05,2.09-2.05h22.25c1.16,0,2.09.92,2.09,2.05v21.81c0,1.13-.94,2.05-2.09,2.05Z"/>
    </g>
    <g>
      <rect class="cls-18" x="858" y="716.95" width="35.88" height="35.17" rx="1.22" ry="1.22"/>
      <path class="cls-11" d="M887.07,744.61c-7.42,1.17-14.83,1.17-22.25,0-1.16,0-2.09-.92-2.09-2.05v-21.81c0-1.13.94-2.05,2.09-2.05h22.25c1.16,0,2.09.92,2.09,2.05v21.81c0,1.13-.94,2.05-2.09,2.05Z"/>
    </g>
    <g>
      <rect class="cls-18" x="857.89" y="754.2" width="35.88" height="35.17" rx="1.22" ry="1.22"/>
      <path class="cls-11" d="M886.95,781.86c-7.42,1.17-14.83,1.17-22.25,0-1.16,0-2.09-.92-2.09-2.05v-21.81c0-1.13.94-2.05,2.09-2.05h22.25c1.16,0,2.09.92,2.09,2.05v21.81c0,1.13-.94,2.05-2.09,2.05Z"/>
    </g>
    <g>
      <rect class="cls-18" x="819.4" y="716.95" width="35.88" height="35.17" rx="1.22" ry="1.22"/>
      <path class="cls-11" d="M848.46,744.61c-7.42,1.17-14.83,1.17-22.25,0-1.16,0-2.09-.92-2.09-2.05v-21.81c0-1.13.94-2.05,2.09-2.05h22.25c1.16,0,2.09.92,2.09,2.05v21.81c0,1.13-.94,2.05-2.09,2.05Z"/>
    </g>
    <g>
      <rect class="cls-18" x="135.37" y="679.38" width="35.17" height="35.17" rx="1.21" ry="1.21"/>
      <path class="cls-11" d="M163.86,707.04c-7.27,1.17-14.54,1.17-21.81,0-1.13,0-2.05-.92-2.05-2.05v-21.81c0-1.13.92-2.05,2.05-2.05h21.81c1.13,0,2.05.92,2.05,2.05v21.81c0,1.13-.92,2.05-2.05,2.05Z"/>
    </g>
    <g>
      <rect class="cls-18" x="513.8" y="679.38" width="35.17" height="35.17" rx="1.21" ry="1.21"/>
      <path class="cls-11" d="M542.29,707.04c-7.27,1.17-14.54,1.17-21.81,0-1.13,0-2.05-.92-2.05-2.05v-21.81c0-1.13.92-2.05,2.05-2.05h21.81c1.13,0,2.05.92,2.05,2.05v21.81c0,1.13-.92,2.05-2.05,2.05Z"/>
    </g>
    <g>
      <rect class="cls-18" x="475.96" y="679.38" width="35.17" height="35.17" rx="1.21" ry="1.21"/>
      <path class="cls-11" d="M504.45,707.04c-7.27,1.17-14.54,1.17-21.81,0-1.13,0-2.05-.92-2.05-2.05v-21.81c0-1.13.92-2.05,2.05-2.05h21.81c1.13,0,2.05.92,2.05,2.05v21.81c0,1.13-.92,2.05-2.05,2.05Z"/>
    </g>
    <g>
      <rect class="cls-18" x="438.11" y="679.38" width="35.17" height="35.17" rx="1.21" ry="1.21"/>
      <path class="cls-11" d="M466.6,707.04c-7.27,1.17-14.54,1.17-21.81,0-1.13,0-2.05-.92-2.05-2.05v-21.81c0-1.13.92-2.05,2.05-2.05h21.81c1.13,0,2.05.92,2.05,2.05v21.81c0,1.13-.92,2.05-2.05,2.05Z"/>
    </g>
    <g>
      <rect class="cls-18" x="400.27" y="679.38" width="35.17" height="35.17" rx="1.21" ry="1.21"/>
      <path class="cls-11" d="M428.76,707.04c-7.27,1.17-14.54,1.17-21.81,0-1.13,0-2.05-.92-2.05-2.05v-21.81c0-1.13.92-2.05,2.05-2.05h21.81c1.13,0,2.05.92,2.05,2.05v21.81c0,1.13-.92,2.05-2.05,2.05Z"/>
    </g>
    <g>
      <rect class="cls-18" x="362.43" y="679.38" width="35.17" height="35.17" rx="1.21" ry="1.21"/>
      <path class="cls-11" d="M390.92,707.04c-7.27,1.17-14.54,1.17-21.81,0-1.13,0-2.05-.92-2.05-2.05v-21.81c0-1.13.92-2.05,2.05-2.05h21.81c1.13,0,2.05.92,2.05,2.05v21.81c0,1.13-.92,2.05-2.05,2.05Z"/>
    </g>
    <g>
      <rect class="cls-18" x="324.58" y="679.38" width="35.17" height="35.17" rx="1.21" ry="1.21"/>
      <path class="cls-11" d="M353.07,707.04c-7.27,1.17-14.54,1.17-21.81,0-1.13,0-2.05-.92-2.05-2.05v-21.81c0-1.13.92-2.05,2.05-2.05h21.81c1.13,0,2.05.92,2.05,2.05v21.81c0,1.13-.92,2.05-2.05,2.05Z"/>
    </g>
    <g>
      <rect class="cls-18" x="286.74" y="679.38" width="35.17" height="35.17" rx="1.21" ry="1.21"/>
      <path class="cls-11" d="M315.23,707.04c-7.27,1.17-14.54,1.17-21.81,0-1.13,0-2.05-.92-2.05-2.05v-21.81c0-1.13.92-2.05,2.05-2.05h21.81c1.13,0,2.05.92,2.05,2.05v21.81c0,1.13-.92,2.05-2.05,2.05Z"/>
    </g>
    <g>
      <rect class="cls-18" x="248.9" y="679.38" width="35.17" height="35.17" rx="1.21" ry="1.21"/>
      <path class="cls-11" d="M277.39,707.04c-7.27,1.17-14.54,1.17-21.81,0-1.13,0-2.05-.92-2.05-2.05v-21.81c0-1.13.92-2.05,2.05-2.05h21.81c1.13,0,2.05.92,2.05,2.05v21.81c0,1.13-.92,2.05-2.05,2.05Z"/>
    </g>
    <g>
      <rect class="cls-18" x="211.06" y="679.38" width="35.17" height="35.17" rx="1.21" ry="1.21"/>
      <path class="cls-11" d="M239.55,707.04c-7.27,1.17-14.54,1.17-21.81,0-1.13,0-2.05-.92-2.05-2.05v-21.81c0-1.13.92-2.05,2.05-2.05h21.81c1.13,0,2.05.92,2.05,2.05v21.81c0,1.13-.92,2.05-2.05,2.05Z"/>
    </g>
    <g>
      <rect class="cls-18" x="173.21" y="679.38" width="35.17" height="35.17" rx="1.21" ry="1.21"/>
      <path class="cls-11" d="M201.7,707.04c-7.27,1.17-14.54,1.17-21.81,0-1.13,0-2.05-.92-2.05-2.05v-21.81c0-1.13.92-2.05,2.05-2.05h21.81c1.13,0,2.05.92,2.05,2.05v21.81c0,1.13-.92,2.05-2.05,2.05Z"/>
    </g>
    <g>
      <rect class="cls-18" x="154.29" y="716.3" width="35.17" height="35.17" rx="1.21" ry="1.21"/>
      <path class="cls-11" d="M182.78,743.96c-7.27,1.17-14.54,1.17-21.81,0-1.13,0-2.05-.92-2.05-2.05v-21.81c0-1.13.92-2.05,2.05-2.05h21.81c1.13,0,2.05.92,2.05,2.05v21.81c0,1.13-.92,2.05-2.05,2.05Z"/>
    </g>
    <g>
      <rect class="cls-18" x="494.88" y="716.3" width="35.17" height="35.17" rx="1.21" ry="1.21"/>
      <path class="cls-11" d="M523.37,743.96c-7.27,1.17-14.54,1.17-21.81,0-1.13,0-2.05-.92-2.05-2.05v-21.81c0-1.13.92-2.05,2.05-2.05h21.81c1.13,0,2.05.92,2.05,2.05v21.81c0,1.13-.92,2.05-2.05,2.05Z"/>
    </g>
    <g>
      <rect class="cls-18" x="457.03" y="716.3" width="35.17" height="35.17" rx="1.21" ry="1.21"/>
      <path class="cls-11" d="M485.52,743.96c-7.27,1.17-14.54,1.17-21.81,0-1.13,0-2.05-.92-2.05-2.05v-21.81c0-1.13.92-2.05,2.05-2.05h21.81c1.13,0,2.05.92,2.05,2.05v21.81c0,1.13-.92,2.05-2.05,2.05Z"/>
    </g>
    <g>
      <rect class="cls-18" x="419.19" y="716.3" width="35.17" height="35.17" rx="1.21" ry="1.21"/>
      <path class="cls-11" d="M447.68,743.96c-7.27,1.17-14.54,1.17-21.81,0-1.13,0-2.05-.92-2.05-2.05v-21.81c0-1.13.92-2.05,2.05-2.05h21.81c1.13,0,2.05.92,2.05,2.05v21.81c0,1.13-.92,2.05-2.05,2.05Z"/>
    </g>
    <g>
      <rect class="cls-18" x="381.35" y="716.3" width="35.17" height="35.17" rx="1.21" ry="1.21"/>
      <path class="cls-11" d="M409.84,743.96c-7.27,1.17-14.54,1.17-21.81,0-1.13,0-2.05-.92-2.05-2.05v-21.81c0-1.13.92-2.05,2.05-2.05h21.81c1.13,0,2.05.92,2.05,2.05v21.81c0,1.13-.92,2.05-2.05,2.05Z"/>
    </g>
    <g>
      <rect class="cls-18" x="343.51" y="716.3" width="35.17" height="35.17" rx="1.21" ry="1.21"/>
      <path class="cls-11" d="M372,743.96c-7.27,1.17-14.54,1.17-21.81,0-1.13,0-2.05-.92-2.05-2.05v-21.81c0-1.13.92-2.05,2.05-2.05h21.81c1.13,0,2.05.92,2.05,2.05v21.81c0,1.13-.92,2.05-2.05,2.05Z"/>
    </g>
    <g>
      <rect class="cls-18" x="305.66" y="716.3" width="35.17" height="35.17" rx="1.21" ry="1.21"/>
      <path class="cls-11" d="M334.15,743.96c-7.27,1.17-14.54,1.17-21.81,0-1.13,0-2.05-.92-2.05-2.05v-21.81c0-1.13.92-2.05,2.05-2.05h21.81c1.13,0,2.05.92,2.05,2.05v21.81c0,1.13-.92,2.05-2.05,2.05Z"/>
    </g>
    <g>
      <rect class="cls-18" x="267.82" y="716.3" width="35.17" height="35.17" rx="1.21" ry="1.21"/>
      <path class="cls-11" d="M296.31,743.96c-7.27,1.17-14.54,1.17-21.81,0-1.13,0-2.05-.92-2.05-2.05v-21.81c0-1.13.92-2.05,2.05-2.05h21.81c1.13,0,2.05.92,2.05,2.05v21.81c0,1.13-.92,2.05-2.05,2.05Z"/>
    </g>
    <rect class="cls-18" x="229.98" y="716.3" width="35.17" height="35.17" rx="1.21" ry="1.21"/>
    <path class="cls-11" d="M258.47,743.96c-7.27,1.17-14.54,1.17-21.81,0-1.13,0-2.05-.92-2.05-2.05v-21.81c0-1.13.92-2.05,2.05-2.05h21.81c1.13,0,2.05.92,2.05,2.05v21.81c0,1.13-.92,2.05-2.05,2.05Z"/>
    <g>
      <rect class="cls-18" x="192.13" y="716.3" width="35.17" height="35.17" rx="1.21" ry="1.21"/>
      <path class="cls-11" d="M220.62,743.96c-7.27,1.17-14.54,1.17-21.81,0-1.13,0-2.05-.92-2.05-2.05v-21.81c0-1.13.92-2.05,2.05-2.05h21.81c1.13,0,2.05.92,2.05,2.05v21.81c0,1.13-.92,2.05-2.05,2.05Z"/>
    </g>
    <path class="cls-11" d="M475.44,784.41c-83.83,1.07-167,1.07-249.52,0-1.1,0-2-.89-2-2v-23.67c0-1.1.89-2,2-2h249.52c1.1,0,2,.89,2,2v23.67c0,1.1-.89,2-2,2Z"/>
    <path class="cls-14" d="M628.01,746.92c-30.91,1.14-60.48,1.11-88.8,0-.93,0-1.69-.76-1.69-1.69v-23.89c0-.93.76-1.69,1.69-1.69h88.8c.93,0,1.69.76,1.69,1.69v23.89c0,.93-.76,1.69-1.69,1.69Z"/>
  </g>
  <g id="TEXT">
    <g>
      <path class="cls-3" d="M55.78,461.81h.57l3.42,9.88c.25.73.53,1.33.83,1.8.3.47.67.71,1.1.73v.46h-3.47v-.46h.23c.11,0,.17-.11.17-.32,0-.06-.01-.14-.04-.21l-1.15-3.36h-4.24c-.44,1.25-.66,2.18-.66,2.79,0,.32.1.59.31.79s.48.31.83.31h.51v.46h-4.33v-.46c.72-.04,1.38-.81,1.97-2.31l3.96-10.1ZM55.44,464.58l-2.02,5.14h3.79l-1.77-5.14Z"/>
      <path class="cls-3" d="M69.3,468.42c1-1.26,1.75-2.06,2.26-2.39.51-.33,1-.5,1.5-.5.46,0,.84.16,1.14.47.3.32.45.74.45,1.27v5.43c0,.57.12.96.35,1.17.23.21.61.32,1.13.33v.46h-3.37v-.46c.28,0,.42-.16.42-.45v-5.54c0-.52-.09-.91-.26-1.17-.17-.26-.43-.39-.77-.39-.75,0-1.42.55-2.03,1.65-.61,1.1-.92,2.35-.92,3.77,0,.81.12,1.36.37,1.66.25.3.65.46,1.22.47v.46h-3.34v-.46c.27-.01.41-.13.41-.36v-5.95c0-.37-.09-.66-.27-.89-.18-.23-.41-.34-.69-.34-.77,0-1.46.55-2.06,1.64s-.91,2.36-.91,3.8c0,.79.12,1.33.36,1.64.24.31.64.46,1.21.46v.46h-4.4v-.46c.53-.01.9-.13,1.12-.35.22-.22.34-.61.34-1.16v-5.07c0-.53-.21-.8-.63-.8-.21,0-.48.07-.83.21v-.48l2.48-.99h.46v2.94c.97-1.3,1.71-2.12,2.23-2.46.51-.34,1.01-.5,1.5-.5.53,0,.92.19,1.18.56.26.37.39.94.39,1.69,0,.17,0,.37,0,.61Z"/>
      <path class="cls-3" d="M75.9,474.22c.5-.01.87-.12,1.11-.32.24-.2.37-.6.37-1.18v-5.28c0-.41-.23-.61-.7-.61-.17,0-.35.04-.55.13-.1.05-.18.07-.23.09v-.49l2.48-.98h.48v7.15c0,.57.12.96.36,1.17.24.21.61.32,1.12.33v.46h-4.43v-.46ZM78.09,461.54c.28,0,.5.09.68.28.18.18.27.4.27.65s-.09.47-.27.65c-.18.18-.4.27-.66.27s-.47-.09-.65-.27c-.18-.18-.27-.39-.27-.65,0-.27.09-.49.28-.67.19-.17.39-.26.62-.26Z"/>
      <path class="cls-3" d="M83.52,461.4c-.28.14-.42.37-.42.71v10.61c0,.57.12.96.35,1.17.23.21.61.33,1.13.34v.46h-4.44v-.46c.53-.01.91-.13,1.14-.35.23-.22.35-.61.35-1.16v-9.19c0-.59-.24-.89-.73-.89-.21,0-.46.05-.75.15v-.46l3.38-1.32v.4Z"/>
      <path class="cls-3" d="M87.24,469.96v2.98c0,.84.49,1.27,1.48,1.28v.46h-4.42v-.46c.5-.01.87-.12,1.1-.32.24-.2.36-.6.36-1.18v-9.04c0-.69-.23-1.03-.69-1.03-.19,0-.44.05-.77.15v-.46l3.33-1.32v.4c-.26.08-.4.28-.4.58v7.98l1.69-1.4.09-.1.44-.39c.48-.42.72-.82.72-1.18,0-.4-.39-.6-1.16-.62v-.44h4.53v.44c-.81.01-1.79.51-2.95,1.48l-1.97,1.63,1.9,2.41c1.26,1.61,2.4,2.41,3.4,2.42v.46h-2.97l-3.73-4.72Z"/>
    </g>
    <path class="cls-5" d="M104.65,458.48c-4.83,0-5.91,10.92-5.91,10.92h11.88s-1.15-10.92-5.97-10.92Z"/>
    <path class="cls-5" d="M98.73,469.96h11.88s-1.19,5.37-5.94,5.37-5.94-5.37-5.94-5.37Z"/>
    <rect class="cls-5" x="103.51" y="470.82" width="1.26" height="10.9" transform="translate(-374.03 381.25) rotate(-66.43)"/>
    <rect class="cls-2" x="853.04" y="547.47" width="49.47" height="16.17"/>
    <g>
      <path class="cls-19" d="M872.76,557.37l.91-.15c.19,1.2.67,1.79,1.45,1.79.42,0,.78-.18,1.09-.53s.46-.81.46-1.38c0-.53-.14-.96-.42-1.28s-.63-.49-1.04-.49c-.17,0-.39.04-.65.12l.11-.98h.14c.45.01.82-.12,1.1-.4.28-.28.42-.65.42-1.11,0-.42-.12-.77-.35-1.02s-.52-.39-.86-.39-.65.14-.89.41c-.24.27-.4.68-.46,1.23l-.91-.2c.12-.78.38-1.37.78-1.76s.9-.6,1.47-.6c.6,0,1.12.22,1.54.67s.63,1.01.63,1.69c0,.41-.09.78-.27,1.1s-.43.57-.75.75c.3.08.54.22.73.41.19.19.35.44.47.76.12.32.18.67.18,1.07,0,.83-.25,1.52-.74,2.05-.49.53-1.08.8-1.77.8-.64,0-1.18-.23-1.62-.7-.44-.46-.7-1.09-.76-1.87Z"/>
      <path class="cls-19" d="M877.83,555.29c0-1.53.21-2.68.62-3.47s1.02-1.18,1.82-1.18c.71,0,1.27.32,1.68.96.5.77.75,2,.75,3.69,0,1.52-.21,2.67-.61,3.46-.41.79-1.02,1.18-1.83,1.18-.71,0-1.29-.35-1.75-1.04-.45-.69-.68-1.89-.68-3.6ZM878.76,555.29c0,1.48.14,2.47.43,2.97.28.5.65.75,1.09.75.42,0,.77-.25,1.05-.76.28-.51.42-1.5.42-2.96s-.14-2.47-.43-2.97-.65-.75-1.1-.75c-.42,0-.76.25-1.04.76-.28.51-.42,1.5-.42,2.96Z"/>
      <path class="cls-19" d="M882.9,555.29c0-1.53.21-2.68.62-3.47s1.02-1.18,1.82-1.18c.71,0,1.27.32,1.68.96.5.77.75,2,.75,3.69,0,1.52-.21,2.67-.61,3.46-.41.79-1.02,1.18-1.83,1.18-.71,0-1.29-.35-1.75-1.04-.45-.69-.68-1.89-.68-3.6ZM883.84,555.29c0,1.48.14,2.47.43,2.97.28.5.65.75,1.09.75.42,0,.77-.25,1.05-.76.28-.51.42-1.5.42-2.96s-.14-2.47-.43-2.97-.65-.75-1.1-.75c-.42,0-.76.25-1.04.76-.28.51-.42,1.5-.42,2.96Z"/>
      <path class="cls-19" d="M887.97,555.29c0-1.53.21-2.68.62-3.47s1.02-1.18,1.82-1.18c.71,0,1.27.32,1.68.96.5.77.75,2,.75,3.69,0,1.52-.21,2.67-.61,3.46-.41.79-1.02,1.18-1.83,1.18-.71,0-1.29-.35-1.75-1.04-.45-.69-.68-1.89-.68-3.6ZM888.91,555.29c0,1.48.14,2.47.43,2.97.28.5.65.75,1.09.75.42,0,.77-.25,1.05-.76.28-.51.42-1.5.42-2.96s-.14-2.47-.43-2.97-.65-.75-1.1-.75c-.42,0-.76.25-1.04.76-.28.51-.42,1.5-.42,2.96Z"/>
    </g>
    <image width="128" height="128" transform="translate(789.23 544.1) scale(.16)" xlink:href="../../../../../Downloads/dog_black_lines_on_efe0bd.png"/>
    <g>
      <path class="cls-3" d="M812.68,551.47l.09-.62.22-2.14.11-1.41c.44,0,.79,0,1.04,0,.21,0,.53,0,.96,0,.03.17.06.31.08.4s.07.27.16.53.15.49.2.68c.05.19.13.52.23.99.11-.32.2-.59.29-.82.09-.23.19-.49.32-.79s.21-.49.25-.58c.03-.09.08-.23.14-.42.36,0,.71,0,1.05,0,.23,0,.56,0,.98,0-.05.69-.08,1.28-.09,1.77-.03.96-.05,1.63-.05,1.99,0,.08,0,.21,0,.41-.32,0-.54,0-.66,0-.18,0-.41,0-.68,0,.02-.18.04-.62.07-1.31.03-.69.04-1.13.04-1.32,0-.08,0-.2,0-.35l-.47,1.24-.67,1.73c-.31,0-.52,0-.64,0-.15,0-.38,0-.68,0l-.44-1.68-.26-.89s-.02-.08-.03-.13-.03-.14-.06-.27l-.09.85-.12,1.73v.39c-.34,0-.55,0-.64,0-.12,0-.34,0-.64,0Z"/>
      <path class="cls-3" d="M819.15,551.47c.14-1.63.21-2.89.21-3.77v-.39c.42,0,.7,0,.84,0,.06,0,.32,0,.77,0-.04.46-.08.89-.1,1.3-.03.57-.06,1.1-.07,1.6-.01.5-.02.92-.02,1.27h-.73c-.14,0-.44,0-.88,0Z"/>
      <path class="cls-3" d="M821.21,551.47c.06-.48.1-.87.13-1.18.05-.55.09-1.1.11-1.65s.04-.99.04-1.34c.32,0,.61,0,.86,0,.17,0,.41,0,.73,0l-.09,1.11-.11,1.73v.42c.4,0,.67,0,.79,0,.63,0,1.1,0,1.43-.02l-.08.92c-.63,0-1.23,0-1.8,0-.77,0-1.44,0-2.02,0Z"/>
      <path class="cls-3" d="M825.14,551.47c.05-.38.08-.7.1-.95.04-.44.07-1.05.12-1.82.03-.54.04-.92.04-1.14v-.26c.4,0,.67,0,.82,0,.1,0,.36,0,.77,0l-.17,2.28-.09,1.89h-.78c-.11,0-.38,0-.82,0ZM826.94,549.27l.8-.93.65-.77.2-.26c.44,0,.75,0,.9,0,.04,0,.33,0,.86,0l-1.51,1.63-.28.33.26.36,1.5,1.85h-.88c-.19,0-.52,0-.97,0-.31-.5-.82-1.23-1.53-2.2Z"/>
    </g>
    <g>
      <path class="cls-3" d="M813.94,558.1c.12-.99.19-2.08.21-3.27l-1.53.03.02-.34c0-.18.02-.38.02-.6.68,0,1.47,0,2.37,0h.88s.86,0,.86,0h.47s-.02.3-.02.3c0,.16-.02.29-.02.4,0,.1,0,.18,0,.24-.51-.02-.93-.03-1.26-.03h-.25c-.04.36-.06.69-.08,1-.03.44-.05.86-.06,1.27-.01.41-.02.74-.02,1-.39,0-.64,0-.76,0-.1,0-.38,0-.82,0Z"/>
      <path class="cls-3" d="M820.08,553.85c.38,0,.75.04,1.1.13.35.09.66.23.93.42.27.19.46.41.6.66.13.25.2.54.2.86s-.07.66-.22.94c-.14.29-.35.53-.62.73-.27.2-.6.35-.98.44-.38.09-.77.14-1.18.14s-.79-.04-1.16-.14c-.37-.09-.69-.24-.97-.44-.27-.2-.47-.43-.58-.68-.12-.25-.17-.52-.17-.83,0-.45.12-.84.36-1.17.24-.34.6-.6,1.08-.79.48-.19,1.01-.28,1.61-.28ZM820.01,554.77c-.27,0-.52.06-.75.17-.22.12-.39.28-.51.48-.12.21-.18.42-.18.66,0,.22.05.41.16.59.11.18.27.32.5.42.22.1.46.15.71.15.26,0,.51-.06.73-.17.22-.11.39-.27.5-.48.12-.2.17-.42.17-.64s-.05-.42-.16-.6c-.11-.18-.27-.33-.47-.43s-.44-.15-.7-.15Z"/>
      <path class="cls-3" d="M822.44,558.1l.3-.44,1.85-2.97.2-.33c.06-.1.14-.24.24-.42.42,0,.73,0,.92,0,.34,0,.65,0,.94,0l.52,1.27,1.06,2.45.21.45c-.41,0-.67,0-.75,0-.2,0-.5,0-.89,0-.1-.34-.26-.73-.45-1.18h-1.8c-.21.36-.42.75-.64,1.18-.45,0-.72,0-.82,0-.18,0-.47,0-.88,0ZM825.21,556.03h1.11c-.28-.72-.43-1.11-.45-1.19-.16.3-.29.54-.4.73l-.26.45Z"/>
      <path class="cls-3" d="M828.62,558.03c-.03-.43-.07-.78-.11-1.04.27.1.51.17.72.21.21.04.39.06.55.06.21,0,.37-.03.5-.08.12-.05.19-.13.19-.23,0-.04,0-.07-.02-.1-.01-.03-.03-.07-.07-.11-.03-.04-.08-.08-.14-.13l-.67-.5c-.16-.11-.27-.2-.33-.25-.13-.1-.23-.2-.3-.29-.07-.09-.12-.18-.15-.27s-.05-.19-.05-.29c0-.12.03-.25.08-.37s.13-.23.23-.33.24-.19.41-.27.35-.13.54-.15.39-.04.6-.04c.4,0,.84.04,1.32.12,0,.14.02.27.03.39,0,.12.03.32.07.62-.22-.08-.42-.13-.6-.16s-.34-.04-.47-.04c-.19,0-.34.03-.46.09-.12.06-.18.13-.18.22,0,.04,0,.08.03.12.02.04.05.08.11.14.05.05.12.11.21.17.09.06.22.15.41.28l.26.17c.08.05.16.12.25.19.09.08.17.15.23.22s.11.14.15.2c.03.06.06.12.08.18.02.06.03.13.03.2,0,.18-.05.36-.15.52s-.25.3-.44.41c-.19.11-.4.18-.62.22-.23.04-.46.06-.72.06-.39,0-.88-.05-1.47-.14Z"/>
      <path class="cls-3" d="M833.41,558.1c.12-.99.19-2.08.21-3.27l-1.53.03.02-.34c0-.18.02-.38.02-.6.68,0,1.47,0,2.37,0h.88s.86,0,.86,0h.47s-.02.3-.02.3c0,.16-.02.29-.02.4,0,.1,0,.18,0,.24-.51-.02-.93-.03-1.26-.03h-.25c-.04.36-.06.69-.08,1-.03.44-.05.86-.06,1.27-.01.41-.02.74-.02,1-.39,0-.64,0-.76,0-.1,0-.38,0-.82,0Z"/>
    </g>
    <g>
      <path class="cls-3" d="M812.85,564.23c.04-.36.08-.68.11-.97s.05-.62.07-1c.02-.38.03-.78.04-1.2,0-.42.01-.75.01-1,.3,0,.54,0,.72,0s.42,0,.7-.01c.27,0,.54-.01.8-.01.31,0,.58.01.82.03.18.01.34.04.49.09.15.04.27.1.37.16.1.06.18.14.25.22.07.08.12.17.16.28.04.11.06.22.06.34,0,.14-.02.26-.06.38-.04.12-.1.23-.19.34-.09.1-.2.2-.33.27-.13.08-.32.15-.56.23l.19.39c.05.11.11.22.17.33l.48.89s.06.12.12.23c-.39,0-.66,0-.8,0-.17,0-.45,0-.84,0-.04-.11-.11-.3-.21-.59-.04-.12-.08-.21-.1-.28-.06-.14-.14-.35-.25-.61l-.37-.86c.13.02.26.03.38.03.17,0,.33-.02.47-.07.14-.04.25-.11.32-.21.07-.09.11-.19.11-.3,0-.09-.03-.16-.08-.23-.06-.07-.14-.12-.26-.15-.12-.03-.3-.05-.55-.05-.08,0-.17,0-.26,0s-.19,0-.31,0c-.03.42-.06.93-.08,1.53s-.04,1.19-.05,1.77c-.4,0-.66,0-.78,0-.14,0-.39,0-.75,0Z"/>
      <path class="cls-3" d="M816.96,564.23l.3-.44,1.85-2.97.2-.33c.06-.1.14-.24.24-.42.42,0,.73,0,.92,0,.34,0,.65,0,.94,0l.52,1.27,1.06,2.45.21.45c-.41,0-.67,0-.75,0-.2,0-.5,0-.89,0-.1-.34-.26-.73-.45-1.18h-1.8c-.21.36-.42.75-.64,1.18-.45,0-.72,0-.82,0-.18,0-.47,0-.88,0ZM819.73,562.16h1.11c-.28-.72-.43-1.11-.45-1.19-.16.3-.29.54-.4.73l-.26.45Z"/>
      <path class="cls-3" d="M824.27,564.23c.12-.99.19-2.08.21-3.27l-1.53.03.02-.34c0-.18.02-.38.02-.6.68,0,1.47,0,2.37,0h.88s.86,0,.86,0h.47s-.02.3-.02.3c0,.16-.02.29-.02.4,0,.1,0,.18,0,.24-.51-.02-.93-.03-1.26-.03h-.25c-.04.36-.06.69-.08,1-.03.44-.05.86-.06,1.27-.01.41-.02.74-.02,1-.39,0-.64,0-.76,0-.1,0-.38,0-.82,0Z"/>
    </g>
  </g>
</svg>