<?xml version="1.0" encoding="UTF-8"?>
<svg xmlns="http://www.w3.org/2000/svg" viewBox="0 0 1000 1000">
  <defs>
    <style>
      .cls-1 {
        fill: #8cc760;
      }

      .cls-2 {
        fill: #fff;
      }

      .cls-3 {
        fill: #e0d8cd;
      }

      .cls-4 {
        stroke: #bcb4aa;
        stroke-width: 2px;
      }

      .cls-4, .cls-5 {
        fill: none;
        stroke-miterlimit: 10;
      }

      .cls-6 {
        fill: #cec6ba;
      }

      .cls-7 {
        fill: #373631;
      }

      .cls-8 {
        fill: #9e977c;
      }

      .cls-9 {
        fill: #b4a68c;
      }

      .cls-5 {
        stroke: #565550;
        stroke-width: .76px;
      }
    </style>
  </defs>
  <g id="REFERNCE">
    <rect class="cls-7" x="81.9" y="375.62" width="827.45" height="59.44"/>
    <rect class="cls-7" x="110.55" y="432.62" width="770.48" height="57.63"/>
    <rect class="cls-7" x="124.19" y="485.62" width="742.04" height="57.63"/>
    <rect class="cls-7" x="124.19" y="538.34" width="769.37" height="58.92"/>
    <rect class="cls-7" x="289.44" y="596.34" width="437.54" height="61.86"/>
  </g>
  <g id="Body">
    <path class="cls-3" d="M9.28,371.16h973.14v310.16c0,5.22-4.24,9.46-9.46,9.46H18.75c-5.22,0-9.46-4.24-9.46-9.46v-310.16h0Z"/>
    <path class="cls-6" d="M9.28,371.16l8.41-110.35c.55-7.21,6.56-12.78,13.79-12.78h929.74c7.28,0,13.31,5.64,13.8,12.9l7.4,110.23H9.28Z"/>
    <polygon class="cls-7" points="75.91 254.87 915.98 254.87 921.95 365.84 69.94 365.84 75.91 254.87"/>
    <g>
      <path class="cls-5" d="M915.98,254.87H75.91c-1.97,36.99-3.86,73.99-5.97,110.98,284-.04,568-.04,852,0-1.8-37-4.27-73.97-5.97-110.98Z"/>
      <path class="cls-5" d="M921.35,353.45c-283.56-.15-567.12-.2-850.69-.13"/>
      <path class="cls-5" d="M920.69,341.18c-283.12-.23-566.23-.31-849.35-.24"/>
      <path class="cls-5" d="M920,329c-282.67-.28-565.33-.38-848-.31"/>
      <path class="cls-5" d="M919.3,316.84c-282.21-.29-564.42-.41-846.64-.35"/>
      <path class="cls-5" d="M918.58,304.68c-281.76-.28-563.52-.4-845.28-.36"/>
      <path class="cls-5" d="M917.88,292.44c-281.31-.24-562.62-.35-843.94-.33"/>
      <path class="cls-5" d="M917.2,280.1c-280.87-.18-561.74-.27-842.61-.26"/>
      <path class="cls-5" d="M916.56,267.59c-280.44-.1-560.88-.15-841.32-.15"/>
      <path class="cls-5" d="M89.95,254.87c-1.96,36.99-3.86,73.99-5.95,110.97"/>
      <path class="cls-5" d="M103.93,254.87c-1.94,36.99-3.84,73.98-5.9,110.97"/>
      <path class="cls-5" d="M117.85,254.87c-1.91,36.99-3.79,73.98-5.82,110.96"/>
      <path class="cls-5" d="M131.73,254.87c-1.87,36.98-3.73,73.97-5.71,110.95"/>
      <path class="cls-5" d="M145.56,254.87c-1.82,36.98-3.64,73.96-5.58,110.93"/>
      <path class="cls-5" d="M159.34,254.87c-1.77,36.97-3.55,73.95-5.42,110.92"/>
      <path class="cls-5" d="M173.09,254.87c-1.7,36.97-3.43,73.94-5.24,110.9"/>
      <path class="cls-5" d="M186.8,254.87c-1.63,36.96-3.31,73.92-5.04,110.88"/>
      <path class="cls-5" d="M200.48,254.87c-1.56,36.95-3.17,73.91-4.82,110.86"/>
      <path class="cls-5" d="M214.13,254.87c-1.48,36.95-3.03,73.89-4.59,110.83"/>
      <path class="cls-5" d="M227.77,254.87c-1.4,36.94-2.87,73.87-4.35,110.81"/>
      <path class="cls-5" d="M241.38,254.87c-1.31,36.93-2.71,73.85-4.1,110.78"/>
      <path class="cls-5" d="M254.98,254.87c-1.22,36.92-2.55,73.84-3.84,110.75"/>
      <path class="cls-5" d="M268.58,254.87c-1.13,36.91-2.38,73.82-3.58,110.73"/>
      <path class="cls-5" d="M282.16,254.87c-1.04,36.9-2.21,73.8-3.31,110.7"/>
      <path class="cls-5" d="M295.75,254.87c-.94,36.89-2.04,73.78-3.04,110.67"/>
      <path class="cls-5" d="M309.34,254.87c-.85,36.88-1.87,73.76-2.78,110.64"/>
      <path class="cls-5" d="M322.94,254.87c-.76,36.87-1.7,73.74-2.51,110.61"/>
      <path class="cls-5" d="M336.54,254.87c-.67,36.86-1.54,73.72-2.26,110.59"/>
      <path class="cls-5" d="M350.17,254.87c-.59,36.86-1.38,73.71-2.01,110.56"/>
      <path class="cls-5" d="M363.81,254.87c-.51,36.85-1.23,73.69-1.78,110.54"/>
      <path class="cls-5" d="M377.48,254.87c-.43,36.84-1.09,73.67-1.55,110.51"/>
      <path class="cls-5" d="M391.18,254.87c-.36,36.83-.96,73.66-1.35,110.49"/>
      <path class="cls-5" d="M404.9,254.87c-.29,36.82-.84,73.65-1.16,110.47"/>
      <path class="cls-5" d="M418.67,254.87c-.23,36.82-.73,73.64-.99,110.45"/>
      <path class="cls-5" d="M432.47,254.87c-.18,36.81-.64,73.63-.84,110.44"/>
      <path class="cls-5" d="M446.32,254.87c-.13,36.81-.57,73.62-.72,110.43"/>
      <path class="cls-5" d="M460.22,254.87c-.1,36.81-.51,73.61-.62,110.42"/>
      <path class="cls-5" d="M474.17,254.87c-.07,36.8-.48,73.61-.56,110.41"/>
      <path class="cls-5" d="M488.18,254.87c-.06,36.8-.46,73.6-.52,110.41"/>
      <path class="cls-5" d="M502.24,254.87c-.06,36.8-.46,73.6-.51,110.41"/>
      <path class="cls-5" d="M516.26,254.87c-.06,36.8-.42,73.61-.47,110.41"/>
      <path class="cls-5" d="M530.23,254.87c-.04,36.81-.36,73.61-.4,110.42"/>
      <path class="cls-5" d="M544.15,254.87c-.02,36.81-.27,73.62-.28,110.43"/>
      <path class="cls-5" d="M558.04,254.87c.02,36.81-.17,73.63-.14,110.44"/>
      <path class="cls-5" d="M571.88,254.87c.06,36.82-.04,73.64.04,110.45"/>
      <path class="cls-5" d="M585.69,254.87c.12,36.82.11,73.65.24,110.47"/>
      <path class="cls-5" d="M599.47,254.87c.18,36.83.27,73.66.46,110.49"/>
      <path class="cls-5" d="M613.22,254.87c.25,36.84.44,73.68.71,110.51"/>
      <path class="cls-5" d="M626.95,254.87c.32,36.85.63,73.69.98,110.54"/>
      <path class="cls-5" d="M640.66,254.87c.4,36.85.83,73.71,1.26,110.56"/>
      <path class="cls-5" d="M654.35,254.87c.49,36.86,1.04,73.72,1.55,110.59"/>
      <path class="cls-5" d="M668.02,254.87c.58,36.87,1.25,73.74,1.86,110.61"/>
      <path class="cls-5" d="M681.69,254.87c.66,36.88,1.47,73.76,2.17,110.64"/>
      <path class="cls-5" d="M695.35,254.87c.76,36.89,1.69,73.78,2.48,110.67"/>
      <path class="cls-5" d="M709.01,254.87c.85,36.9,1.92,73.8,2.8,110.7"/>
      <path class="cls-5" d="M722.67,254.87c.94,36.91,2.14,73.82,3.12,110.73"/>
      <path class="cls-5" d="M736.33,254.87c1.03,36.92,2.36,73.83,3.44,110.75"/>
      <path class="cls-5" d="M750,254.87c1.12,36.93,2.57,73.85,3.74,110.78"/>
      <path class="cls-5" d="M763.69,254.87c1.2,36.94,2.78,73.87,4.04,110.81"/>
      <path class="cls-5" d="M777.39,254.87c1.29,36.95,2.99,73.88,4.33,110.83"/>
      <path class="cls-5" d="M791.1,254.87c1.36,36.96,3.18,73.9,4.61,110.86"/>
      <path class="cls-5" d="M804.84,254.87c1.43,36.97,3.36,73.91,4.86,110.88"/>
      <path class="cls-5" d="M818.61,254.87c1.5,36.98,3.53,73.93,5.1,110.9"/>
      <path class="cls-5" d="M832.4,254.87c1.56,36.98,3.68,73.94,5.31,110.92"/>
      <path class="cls-5" d="M846.23,254.87c1.6,36.99,3.81,73.95,5.5,110.93"/>
      <path class="cls-5" d="M860.09,254.87c1.64,37,3.93,73.96,5.66,110.95"/>
      <path class="cls-5" d="M873.99,254.87c1.67,37,4.03,73.96,5.79,110.96"/>
      <path class="cls-5" d="M887.94,254.87c1.69,37,4.1,73.97,5.89,110.97"/>
      <path class="cls-5" d="M901.93,254.87c1.7,37.01,4.15,73.97,5.95,110.97"/>
    </g>
    <line class="cls-4" x1="59.56" y1="371.16" x2="59.56" y2="690.78"/>
    <line class="cls-4" x1="931.76" y1="371.16" x2="931.76" y2="690.78"/>
  </g>
  <g id="Layer_3" data-name="Layer 3">
    <g>
      <rect class="cls-8" x="687.41" y="378.93" width="52.84" height="52.84" rx="1.81" ry="1.81"/>
      <path class="cls-9" d="M730.22,420.49c-10.92,1.75-21.84,1.75-32.76,0-1.7,0-3.08-1.38-3.08-3.08v-32.76c0-1.7,1.38-3.08,3.08-3.08h32.76c1.7,0,3.08,1.38,3.08,3.08v32.76c0,1.7-1.38,3.08-3.08,3.08Z"/>
    </g>
    <g>
      <rect class="cls-8" x="89.73" y="378.93" width="52.84" height="52.84" rx="1.81" ry="1.81"/>
      <path class="cls-9" d="M132.53,420.49c-10.92,1.75-21.84,1.75-32.76,0-1.7,0-3.08-1.38-3.08-3.08v-32.76c0-1.7,1.38-3.08,3.08-3.08h32.76c1.7,0,3.08,1.38,3.08,3.08v32.76c0,1.7-1.38,3.08-3.08,3.08Z"/>
    </g>
    <g>
      <rect class="cls-8" x="633.08" y="378.93" width="52.84" height="52.84" rx="1.81" ry="1.81"/>
      <path class="cls-9" d="M675.88,420.49c-10.92,1.75-21.84,1.75-32.76,0-1.7,0-3.08-1.38-3.08-3.08v-32.76c0-1.7,1.38-3.08,3.08-3.08h32.76c1.7,0,3.08,1.38,3.08,3.08v32.76c0,1.7-1.38,3.08-3.08,3.08Z"/>
    </g>
    <g>
      <rect class="cls-8" x="850.42" y="378.93" width="52.84" height="52.84" rx="1.81" ry="1.81"/>
      <path class="cls-9" d="M893.22,420.49c-10.92,1.75-21.84,1.75-32.76,0-1.7,0-3.08-1.38-3.08-3.08v-32.76c0-1.7,1.38-3.08,3.08-3.08h32.76c1.7,0,3.08,1.38,3.08,3.08v32.76c0,1.7-1.38,3.08-3.08,3.08Z"/>
    </g>
    <g>
      <rect class="cls-8" x="741.75" y="378.93" width="52.84" height="52.84" rx="1.81" ry="1.81"/>
      <path class="cls-9" d="M784.55,420.49c-10.92,1.75-21.84,1.75-32.76,0-1.7,0-3.08-1.38-3.08-3.08v-32.76c0-1.7,1.38-3.08,3.08-3.08h32.76c1.7,0,3.08,1.38,3.08,3.08v32.76c0,1.7-1.38,3.08-3.08,3.08Z"/>
    </g>
    <g>
      <rect class="cls-8" x="578.74" y="378.93" width="52.84" height="52.84" rx="1.81" ry="1.81"/>
      <path class="cls-9" d="M621.55,420.49c-10.92,1.75-21.84,1.75-32.76,0-1.7,0-3.08-1.38-3.08-3.08v-32.76c0-1.7,1.38-3.08,3.08-3.08h32.76c1.7,0,3.08,1.38,3.08,3.08v32.76c0,1.7-1.38,3.08-3.08,3.08Z"/>
    </g>
    <g>
      <rect class="cls-8" x="524.41" y="378.93" width="52.84" height="52.84" rx="1.81" ry="1.81"/>
      <path class="cls-9" d="M567.21,420.49c-10.92,1.75-21.84,1.75-32.76,0-1.7,0-3.08-1.38-3.08-3.08v-32.76c0-1.7,1.38-3.08,3.08-3.08h32.76c1.7,0,3.08,1.38,3.08,3.08v32.76c0,1.7-1.38,3.08-3.08,3.08Z"/>
    </g>
    <g>
      <rect class="cls-8" x="470.07" y="378.93" width="52.84" height="52.84" rx="1.81" ry="1.81"/>
      <path class="cls-9" d="M512.88,420.49c-10.92,1.75-21.84,1.75-32.76,0-1.7,0-3.08-1.38-3.08-3.08v-32.76c0-1.7,1.38-3.08,3.08-3.08h32.76c1.7,0,3.08,1.38,3.08,3.08v32.76c0,1.7-1.38,3.08-3.08,3.08Z"/>
    </g>
    <g>
      <rect class="cls-8" x="415.74" y="378.93" width="52.84" height="52.84" rx="1.81" ry="1.81"/>
      <path class="cls-9" d="M458.54,420.49c-10.92,1.75-21.84,1.75-32.76,0-1.7,0-3.08-1.38-3.08-3.08v-32.76c0-1.7,1.38-3.08,3.08-3.08h32.76c1.7,0,3.08,1.38,3.08,3.08v32.76c0,1.7-1.38,3.08-3.08,3.08Z"/>
    </g>
    <g>
      <rect class="cls-8" x="361.4" y="378.93" width="52.84" height="52.84" rx="1.81" ry="1.81"/>
      <path class="cls-9" d="M404.2,420.49c-10.92,1.75-21.84,1.75-32.76,0-1.7,0-3.08-1.38-3.08-3.08v-32.76c0-1.7,1.38-3.08,3.08-3.08h32.76c1.7,0,3.08,1.38,3.08,3.08v32.76c0,1.7-1.38,3.08-3.08,3.08Z"/>
    </g>
    <g>
      <rect class="cls-8" x="307.07" y="378.93" width="52.84" height="52.84" rx="1.81" ry="1.81"/>
      <path class="cls-9" d="M349.87,420.49c-10.92,1.75-21.84,1.75-32.76,0-1.7,0-3.08-1.38-3.08-3.08v-32.76c0-1.7,1.38-3.08,3.08-3.08h32.76c1.7,0,3.08,1.38,3.08,3.08v32.76c0,1.7-1.38,3.08-3.08,3.08Z"/>
    </g>
    <g>
      <rect class="cls-8" x="252.73" y="378.93" width="52.84" height="52.84" rx="1.81" ry="1.81"/>
      <path class="cls-9" d="M295.53,420.49c-10.92,1.75-21.84,1.75-32.76,0-1.7,0-3.08-1.38-3.08-3.08v-32.76c0-1.7,1.38-3.08,3.08-3.08h32.76c1.7,0,3.08,1.38,3.08,3.08v32.76c0,1.7-1.38,3.08-3.08,3.08Z"/>
    </g>
    <g>
      <rect class="cls-8" x="198.4" y="378.93" width="52.84" height="52.84" rx="1.81" ry="1.81"/>
      <path class="cls-9" d="M241.2,420.49c-10.92,1.75-21.84,1.75-32.76,0-1.7,0-3.08-1.38-3.08-3.08v-32.76c0-1.7,1.38-3.08,3.08-3.08h32.76c1.7,0,3.08,1.38,3.08,3.08v32.76c0,1.7-1.38,3.08-3.08,3.08Z"/>
    </g>
    <g>
      <rect class="cls-8" x="144.06" y="378.93" width="52.84" height="52.84" rx="1.81" ry="1.81"/>
      <path class="cls-9" d="M186.86,420.49c-10.92,1.75-21.84,1.75-32.76,0-1.7,0-3.08-1.38-3.08-3.08v-32.76c0-1.7,1.38-3.08,3.08-3.08h32.76c1.7,0,3.08,1.38,3.08,3.08v32.76c0,1.7-1.38,3.08-3.08,3.08Z"/>
    </g>
    <g>
      <rect class="cls-8" x="714.08" y="433.25" width="52.66" height="52.66" rx="1.81" ry="1.81"/>
      <path class="cls-9" d="M756.74,474.67c-10.88,1.75-21.77,1.75-32.65,0-1.7,0-3.07-1.37-3.07-3.07v-32.65c0-1.7,1.37-3.07,3.07-3.07h32.65c1.7,0,3.07,1.37,3.07,3.07v32.65c0,1.7-1.37,3.07-3.07,3.07Z"/>
    </g>
    <g>
      <rect class="cls-8" x="117.26" y="433.25" width="52.66" height="52.66" rx="1.81" ry="1.81"/>
      <path class="cls-9" d="M159.92,474.67c-10.88,1.75-21.77,1.75-32.65,0-1.7,0-3.07-1.37-3.07-3.07v-32.65c0-1.7,1.37-3.07,3.07-3.07h32.65c1.7,0,3.07,1.37,3.07,3.07v32.65c0,1.7-1.37,3.07-3.07,3.07Z"/>
    </g>
    <g>
      <rect class="cls-8" x="659.83" y="433.25" width="52.66" height="52.66" rx="1.81" ry="1.81"/>
      <path class="cls-9" d="M702.48,474.67c-10.88,1.75-21.77,1.75-32.65,0-1.7,0-3.07-1.37-3.07-3.07v-32.65c0-1.7,1.37-3.07,3.07-3.07h32.65c1.7,0,3.07,1.37,3.07,3.07v32.65c0,1.7-1.37,3.07-3.07,3.07Z"/>
    </g>
    <g>
      <rect class="cls-8" x="796.09" y="378.93" width="52.84" height="52.84" rx="1.81" ry="1.81"/>
      <path class="cls-9" d="M838.89,420.49c-10.92,1.75-21.84,1.75-32.76,0-1.7,0-3.08-1.38-3.08-3.08v-32.76c0-1.7,1.38-3.08,3.08-3.08h32.76c1.7,0,3.08,1.38,3.08,3.08v32.76c0,1.7-1.38,3.08-3.08,3.08Z"/>
    </g>
    <g>
      <rect class="cls-8" x="822.51" y="433.16" width="52.84" height="52.84" rx="1.81" ry="1.81"/>
      <path class="cls-9" d="M865.31,474.72c-10.92,1.75-21.84,1.75-32.76,0-1.7,0-3.08-1.38-3.08-3.08v-32.76c0-1.7,1.38-3.08,3.08-3.08h32.76c1.7,0,3.08,1.38,3.08,3.08v32.76c0,1.7-1.38,3.08-3.08,3.08Z"/>
    </g>
    <g>
      <rect class="cls-8" x="768.25" y="433.16" width="52.84" height="52.84" rx="1.81" ry="1.81"/>
      <path class="cls-9" d="M811.05,474.72c-10.92,1.75-21.84,1.75-32.76,0-1.7,0-3.08-1.38-3.08-3.08v-32.76c0-1.7,1.38-3.08,3.08-3.08h32.76c1.7,0,3.08,1.38,3.08,3.08v32.76c0,1.7-1.38,3.08-3.08,3.08Z"/>
    </g>
    <g>
      <rect class="cls-8" x="605.57" y="433.25" width="52.66" height="52.66" rx="1.81" ry="1.81"/>
      <path class="cls-9" d="M648.23,474.67c-10.88,1.75-21.77,1.75-32.65,0-1.7,0-3.07-1.37-3.07-3.07v-32.65c0-1.7,1.37-3.07,3.07-3.07h32.65c1.7,0,3.07,1.37,3.07,3.07v32.65c0,1.7-1.37,3.07-3.07,3.07Z"/>
    </g>
    <g>
      <rect class="cls-8" x="551.31" y="433.25" width="52.66" height="52.66" rx="1.81" ry="1.81"/>
      <path class="cls-9" d="M593.97,474.67c-10.88,1.75-21.77,1.75-32.65,0-1.7,0-3.07-1.37-3.07-3.07v-32.65c0-1.7,1.37-3.07,3.07-3.07h32.65c1.7,0,3.07,1.37,3.07,3.07v32.65c0,1.7-1.37,3.07-3.07,3.07Z"/>
    </g>
    <g>
      <rect class="cls-8" x="497.06" y="433.25" width="52.66" height="52.66" rx="1.81" ry="1.81"/>
      <path class="cls-9" d="M539.71,474.67c-10.88,1.75-21.77,1.75-32.65,0-1.7,0-3.07-1.37-3.07-3.07v-32.65c0-1.7,1.37-3.07,3.07-3.07h32.65c1.7,0,3.07,1.37,3.07,3.07v32.65c0,1.7-1.37,3.07-3.07,3.07Z"/>
    </g>
    <g>
      <rect class="cls-8" x="442.8" y="433.25" width="52.66" height="52.66" rx="1.81" ry="1.81"/>
      <path class="cls-9" d="M485.46,474.67c-10.88,1.75-21.77,1.75-32.65,0-1.7,0-3.07-1.37-3.07-3.07v-32.65c0-1.7,1.37-3.07,3.07-3.07h32.65c1.7,0,3.07,1.37,3.07,3.07v32.65c0,1.7-1.37,3.07-3.07,3.07Z"/>
    </g>
    <g>
      <rect class="cls-8" x="388.54" y="433.25" width="52.66" height="52.66" rx="1.81" ry="1.81"/>
      <path class="cls-9" d="M431.2,474.67c-10.88,1.75-21.77,1.75-32.65,0-1.7,0-3.07-1.37-3.07-3.07v-32.65c0-1.7,1.37-3.07,3.07-3.07h32.65c1.7,0,3.07,1.37,3.07,3.07v32.65c0,1.7-1.37,3.07-3.07,3.07Z"/>
    </g>
    <g>
      <rect class="cls-8" x="334.29" y="433.25" width="52.66" height="52.66" rx="1.81" ry="1.81"/>
      <path class="cls-9" d="M376.94,474.67c-10.88,1.75-21.77,1.75-32.65,0-1.7,0-3.07-1.37-3.07-3.07v-32.65c0-1.7,1.37-3.07,3.07-3.07h32.65c1.7,0,3.07,1.37,3.07,3.07v32.65c0,1.7-1.37,3.07-3.07,3.07Z"/>
    </g>
    <g>
      <rect class="cls-8" x="280.03" y="433.25" width="52.66" height="52.66" rx="1.81" ry="1.81"/>
      <path class="cls-9" d="M322.69,474.67c-10.88,1.75-21.77,1.75-32.65,0-1.7,0-3.07-1.37-3.07-3.07v-32.65c0-1.7,1.37-3.07,3.07-3.07h32.65c1.7,0,3.07,1.37,3.07,3.07v32.65c0,1.7-1.37,3.07-3.07,3.07Z"/>
    </g>
    <g>
      <rect class="cls-8" x="225.77" y="433.25" width="52.66" height="52.66" rx="1.81" ry="1.81"/>
      <path class="cls-9" d="M268.43,474.67c-10.88,1.75-21.77,1.75-32.65,0-1.7,0-3.07-1.37-3.07-3.07v-32.65c0-1.7,1.37-3.07,3.07-3.07h32.65c1.7,0,3.07,1.37,3.07,3.07v32.65c0,1.7-1.37,3.07-3.07,3.07Z"/>
    </g>
    <g>
      <rect class="cls-8" x="171.52" y="433.25" width="52.66" height="52.66" rx="1.81" ry="1.81"/>
      <path class="cls-9" d="M214.17,474.67c-10.88,1.75-21.77,1.75-32.65,0-1.7,0-3.07-1.37-3.07-3.07v-32.65c0-1.7,1.37-3.07,3.07-3.07h32.65c1.7,0,3.07,1.37,3.07,3.07v32.65c0,1.7-1.37,3.07-3.07,3.07Z"/>
    </g>
    <g>
      <rect class="cls-8" x="727.77" y="487.49" width="52.66" height="52.66" rx="1.81" ry="1.81"/>
      <path class="cls-9" d="M770.43,528.9c-10.88,1.75-21.77,1.75-32.65,0-1.7,0-3.07-1.37-3.07-3.07v-32.65c0-1.7,1.37-3.07,3.07-3.07h32.65c1.7,0,3.07,1.37,3.07,3.07v32.65c0,1.7-1.37,3.07-3.07,3.07Z"/>
    </g>
    <g>
      <rect class="cls-8" x="130.95" y="487.49" width="52.66" height="52.66" rx="1.81" ry="1.81"/>
      <path class="cls-9" d="M173.61,528.9c-10.88,1.75-21.77,1.75-32.65,0-1.7,0-3.07-1.37-3.07-3.07v-32.65c0-1.7,1.37-3.07,3.07-3.07h32.65c1.7,0,3.07,1.37,3.07,3.07v32.65c0,1.7-1.37,3.07-3.07,3.07Z"/>
    </g>
    <g>
      <rect class="cls-8" x="673.52" y="487.49" width="52.66" height="52.66" rx="1.81" ry="1.81"/>
      <path class="cls-9" d="M716.17,528.9c-10.88,1.75-21.77,1.75-32.65,0-1.7,0-3.07-1.37-3.07-3.07v-32.65c0-1.7,1.37-3.07,3.07-3.07h32.65c1.7,0,3.07,1.37,3.07,3.07v32.65c0,1.7-1.37,3.07-3.07,3.07Z"/>
    </g>
    <rect class="cls-8" x="781.94" y="487.39" width="79.19" height="52.84" rx="2.22" ry="2.22"/>
    <path class="cls-9" d="M850.54,528.95c-19.34,1.75-38.67,1.75-58.01,0-3.01,0-5.46-1.38-5.46-3.08v-32.76c0-1.7,2.44-3.08,5.46-3.08h58.01c3.01,0,5.46,1.38,5.46,3.08v32.76c0,1.7-2.44,3.08-5.46,3.08Z"/>
    <rect class="cls-8" x="754.84" y="541.63" width="79.19" height="52.84" rx="2.22" ry="2.22"/>
    <path class="cls-9" d="M823.44,583.18c-19.34,1.75-38.67,1.75-58.01,0-3.01,0-5.46-1.38-5.46-3.08v-32.76c0-1.7,2.44-3.08,5.46-3.08h58.01c3.01,0,5.46,1.38,5.46,3.08v32.76c0,1.7-2.44,3.08-5.46,3.08Z"/>
    <rect class="cls-8" x="130.95" y="541.72" width="79.19" height="52.84" rx="2.22" ry="2.22"/>
    <path class="cls-9" d="M199.55,583.27c-19.34,1.75-38.67,1.75-58.01,0-3.01,0-5.46-1.38-5.46-3.08v-32.76c0-1.7,2.44-3.08,5.46-3.08h58.01c3.01,0,5.46,1.38,5.46,3.08v32.76c0,1.7-2.44,3.08-5.46,3.08Z"/>
    <g>
      <rect class="cls-8" x="619.26" y="487.49" width="52.66" height="52.66" rx="1.81" ry="1.81"/>
      <path class="cls-9" d="M661.92,528.9c-10.88,1.75-21.77,1.75-32.65,0-1.7,0-3.07-1.37-3.07-3.07v-32.65c0-1.7,1.37-3.07,3.07-3.07h32.65c1.7,0,3.07,1.37,3.07,3.07v32.65c0,1.7-1.37,3.07-3.07,3.07Z"/>
    </g>
    <g>
      <rect class="cls-8" x="565" y="487.49" width="52.66" height="52.66" rx="1.81" ry="1.81"/>
      <path class="cls-9" d="M607.66,528.9c-10.88,1.75-21.77,1.75-32.65,0-1.7,0-3.07-1.37-3.07-3.07v-32.65c0-1.7,1.37-3.07,3.07-3.07h32.65c1.7,0,3.07,1.37,3.07,3.07v32.65c0,1.7-1.37,3.07-3.07,3.07Z"/>
    </g>
    <g>
      <rect class="cls-8" x="510.75" y="487.49" width="52.66" height="52.66" rx="1.81" ry="1.81"/>
      <path class="cls-9" d="M553.4,528.9c-10.88,1.75-21.77,1.75-32.65,0-1.7,0-3.07-1.37-3.07-3.07v-32.65c0-1.7,1.37-3.07,3.07-3.07h32.65c1.7,0,3.07,1.37,3.07,3.07v32.65c0,1.7-1.37,3.07-3.07,3.07Z"/>
    </g>
    <g>
      <rect class="cls-8" x="456.49" y="487.49" width="52.66" height="52.66" rx="1.81" ry="1.81"/>
      <path class="cls-9" d="M499.15,528.9c-10.88,1.75-21.77,1.75-32.65,0-1.7,0-3.07-1.37-3.07-3.07v-32.65c0-1.7,1.37-3.07,3.07-3.07h32.65c1.7,0,3.07,1.37,3.07,3.07v32.65c0,1.7-1.37,3.07-3.07,3.07Z"/>
    </g>
    <g>
      <rect class="cls-8" x="402.23" y="487.49" width="52.66" height="52.66" rx="1.81" ry="1.81"/>
      <path class="cls-9" d="M444.89,528.9c-10.88,1.75-21.77,1.75-32.65,0-1.7,0-3.07-1.37-3.07-3.07v-32.65c0-1.7,1.37-3.07,3.07-3.07h32.65c1.7,0,3.07,1.37,3.07,3.07v32.65c0,1.7-1.37,3.07-3.07,3.07Z"/>
    </g>
    <g>
      <rect class="cls-8" x="347.98" y="487.49" width="52.66" height="52.66" rx="1.81" ry="1.81"/>
      <path class="cls-9" d="M390.63,528.9c-10.88,1.75-21.77,1.75-32.65,0-1.7,0-3.07-1.37-3.07-3.07v-32.65c0-1.7,1.37-3.07,3.07-3.07h32.65c1.7,0,3.07,1.37,3.07,3.07v32.65c0,1.7-1.37,3.07-3.07,3.07Z"/>
    </g>
    <g>
      <rect class="cls-8" x="293.72" y="487.49" width="52.66" height="52.66" rx="1.81" ry="1.81"/>
      <path class="cls-9" d="M336.38,528.9c-10.88,1.75-21.77,1.75-32.65,0-1.7,0-3.07-1.37-3.07-3.07v-32.65c0-1.7,1.37-3.07,3.07-3.07h32.65c1.7,0,3.07,1.37,3.07,3.07v32.65c0,1.7-1.37,3.07-3.07,3.07Z"/>
    </g>
    <g>
      <rect class="cls-8" x="239.47" y="487.49" width="52.66" height="52.66" rx="1.81" ry="1.81"/>
      <path class="cls-9" d="M282.12,528.9c-10.88,1.75-21.77,1.75-32.65,0-1.7,0-3.07-1.37-3.07-3.07v-32.65c0-1.7,1.37-3.07,3.07-3.07h32.65c1.7,0,3.07,1.37,3.07,3.07v32.65c0,1.7-1.37,3.07-3.07,3.07Z"/>
    </g>
    <g>
      <rect class="cls-8" x="185.21" y="487.49" width="52.66" height="52.66" rx="1.81" ry="1.81"/>
      <path class="cls-9" d="M227.86,528.9c-10.88,1.75-21.77,1.75-32.65,0-1.7,0-3.07-1.37-3.07-3.07v-32.65c0-1.7,1.37-3.07,3.07-3.07h32.65c1.7,0,3.07,1.37,3.07,3.07v32.65c0,1.7-1.37,3.07-3.07,3.07Z"/>
    </g>
    <g>
      <rect class="cls-8" x="212.34" y="541.81" width="52.66" height="52.66" rx="1.81" ry="1.81"/>
      <path class="cls-9" d="M254.99,583.22c-10.88,1.75-21.77,1.75-32.65,0-1.7,0-3.07-1.37-3.07-3.07v-32.65c0-1.7,1.37-3.07,3.07-3.07h32.65c1.7,0,3.07,1.37,3.07,3.07v32.65c0,1.7-1.37,3.07-3.07,3.07Z"/>
    </g>
    <g>
      <rect class="cls-8" x="700.65" y="541.81" width="52.66" height="52.66" rx="1.81" ry="1.81"/>
      <path class="cls-9" d="M743.3,583.22c-10.88,1.75-21.77,1.75-32.65,0-1.7,0-3.07-1.37-3.07-3.07v-32.65c0-1.7,1.37-3.07,3.07-3.07h32.65c1.7,0,3.07,1.37,3.07,3.07v32.65c0,1.7-1.37,3.07-3.07,3.07Z"/>
    </g>
    <g>
      <rect class="cls-8" x="835.31" y="541.63" width="52.66" height="52.66" rx="1.81" ry="1.81"/>
      <path class="cls-9" d="M877.96,583.04c-10.88,1.75-21.77,1.75-32.65,0-1.7,0-3.07-1.37-3.07-3.07v-32.65c0-1.7,1.37-3.07,3.07-3.07h32.65c1.7,0,3.07,1.37,3.07,3.07v32.65c0,1.7-1.37,3.07-3.07,3.07Z"/>
    </g>
    <g>
      <rect class="cls-8" x="646.39" y="541.81" width="52.66" height="52.66" rx="1.81" ry="1.81"/>
      <path class="cls-9" d="M689.04,583.22c-10.88,1.75-21.77,1.75-32.65,0-1.7,0-3.07-1.37-3.07-3.07v-32.65c0-1.7,1.37-3.07,3.07-3.07h32.65c1.7,0,3.07,1.37,3.07,3.07v32.65c0,1.7-1.37,3.07-3.07,3.07Z"/>
    </g>
    <g>
      <rect class="cls-8" x="592.13" y="541.81" width="52.66" height="52.66" rx="1.81" ry="1.81"/>
      <path class="cls-9" d="M634.79,583.22c-10.88,1.75-21.77,1.75-32.65,0-1.7,0-3.07-1.37-3.07-3.07v-32.65c0-1.7,1.37-3.07,3.07-3.07h32.65c1.7,0,3.07,1.37,3.07,3.07v32.65c0,1.7-1.37,3.07-3.07,3.07Z"/>
    </g>
    <g>
      <rect class="cls-8" x="537.88" y="541.81" width="52.66" height="52.66" rx="1.81" ry="1.81"/>
      <path class="cls-9" d="M580.53,583.22c-10.88,1.75-21.77,1.75-32.65,0-1.7,0-3.07-1.37-3.07-3.07v-32.65c0-1.7,1.37-3.07,3.07-3.07h32.65c1.7,0,3.07,1.37,3.07,3.07v32.65c0,1.7-1.37,3.07-3.07,3.07Z"/>
    </g>
    <g>
      <rect class="cls-8" x="483.62" y="541.81" width="52.66" height="52.66" rx="1.81" ry="1.81"/>
      <path class="cls-9" d="M526.27,583.22c-10.88,1.75-21.77,1.75-32.65,0-1.7,0-3.07-1.37-3.07-3.07v-32.65c0-1.7,1.37-3.07,3.07-3.07h32.65c1.7,0,3.07,1.37,3.07,3.07v32.65c0,1.7-1.37,3.07-3.07,3.07Z"/>
    </g>
    <g>
      <rect class="cls-8" x="429.36" y="541.81" width="52.66" height="52.66" rx="1.81" ry="1.81"/>
      <path class="cls-9" d="M472.02,583.22c-10.88,1.75-21.77,1.75-32.65,0-1.7,0-3.07-1.37-3.07-3.07v-32.65c0-1.7,1.37-3.07,3.07-3.07h32.65c1.7,0,3.07,1.37,3.07,3.07v32.65c0,1.7-1.37,3.07-3.07,3.07Z"/>
    </g>
    <g>
      <rect class="cls-8" x="375.11" y="541.81" width="52.66" height="52.66" rx="1.81" ry="1.81"/>
      <path class="cls-9" d="M417.76,583.22c-10.88,1.75-21.77,1.75-32.65,0-1.7,0-3.07-1.37-3.07-3.07v-32.65c0-1.7,1.37-3.07,3.07-3.07h32.65c1.7,0,3.07,1.37,3.07,3.07v32.65c0,1.7-1.37,3.07-3.07,3.07Z"/>
    </g>
    <g>
      <rect class="cls-8" x="320.85" y="541.81" width="52.66" height="52.66" rx="1.81" ry="1.81"/>
      <path class="cls-9" d="M363.51,583.22c-10.88,1.75-21.77,1.75-32.65,0-1.7,0-3.07-1.37-3.07-3.07v-32.65c0-1.7,1.37-3.07,3.07-3.07h32.65c1.7,0,3.07,1.37,3.07,3.07v32.65c0,1.7-1.37,3.07-3.07,3.07Z"/>
    </g>
    <g>
      <rect class="cls-8" x="266.59" y="541.81" width="52.66" height="52.66" rx="1.81" ry="1.81"/>
      <path class="cls-9" d="M309.25,583.22c-10.88,1.75-21.77,1.75-32.65,0-1.7,0-3.07-1.37-3.07-3.07v-32.65c0-1.7,1.37-3.07,3.07-3.07h32.65c1.7,0,3.07,1.37,3.07,3.07v32.65c0,1.7-1.37,3.07-3.07,3.07Z"/>
    </g>
    <rect class="cls-8" x="294.87" y="596.13" width="426.14" height="58.07" rx="2.45" ry="2.45"/>
    <path class="cls-9" d="M710.31,646.75c-136.61,1.77-272.15,1.77-406.63,0-1.8,0-3.26-1.48-3.26-3.3v-39.09c0-1.82,1.46-3.3,3.26-3.3h406.63c1.8,0,3.26,1.48,3.26,3.3v39.09c0,1.82-1.46,3.3-3.26,3.3Z"/>
  </g>
  <g id="Text">
    <g>
      <path class="cls-1" d="M172.08,277.99c-9.52,0-11.67,21.55-11.67,21.55h23.45s-2.26-21.55-11.79-21.55Z"/>
      <path class="cls-1" d="M160.41,300.66h23.45s-2.35,10.59-11.73,10.59-11.73-10.59-11.73-10.59Z"/>
      <rect class="cls-1" x="169.84" y="302.35" width="2.48" height="21.51" transform="translate(-184.31 344.69) rotate(-66.43)"/>
    </g>
    <g>
      <path class="cls-2" d="M110.15,303.78v1.77h-3.48v-1.24c-.96.94-2.04,1.4-3.23,1.4-.92,0-1.72-.3-2.41-.9-.68-.6-1.02-1.37-1.02-2.31s.36-1.73,1.08-2.35,1.59-.93,2.62-.93c.95,0,1.87.29,2.76.86v-1.01c0-.52-.05-.92-.15-1.2-.1-.28-.33-.53-.69-.75s-.83-.34-1.41-.34c-1,0-1.72.4-2.17,1.19l-1.91-.5c.85-1.58,2.31-2.37,4.38-2.37.76,0,1.42.1,1.98.31s.97.47,1.24.8c.27.32.46.68.55,1.05s.14.98.14,1.8v4.7h1.71ZM106.47,301.78c-.86-.67-1.73-1.01-2.61-1.01-.55,0-1.01.16-1.38.48-.37.32-.56.74-.56,1.25,0,.48.16.87.49,1.19.33.32.77.48,1.33.48.96,0,1.88-.41,2.74-1.22v-1.18Z"/>
      <path class="cls-2" d="M112.8,303.78v-6.6h-1.69v-1.77h3.68v1.28c1.2-.96,2.38-1.44,3.53-1.44s1.96.53,2.4,1.58c1.32-1.06,2.55-1.58,3.69-1.58.66,0,1.2.15,1.62.44.42.29.71.66.85,1.1.15.44.22,1.1.22,1.97v5.03h1.77v1.77h-3.76v-6.45c0-.59-.03-1-.08-1.24-.05-.24-.19-.44-.4-.6s-.47-.24-.77-.24c-.85,0-1.82.44-2.9,1.31v5.44h1.74v1.77h-3.73v-6.64c0-.66-.1-1.14-.29-1.44-.19-.3-.52-.45-.98-.45-.75,0-1.72.44-2.91,1.31v5.44h1.78v1.77h-5.59v-1.77h1.81Z"/>
      <path class="cls-2" d="M131.27,303.78v-6.6h-1.57v-1.77h3.56v8.38h1.57v1.77h-5.14v-1.77h1.57ZM130.99,291.96c0-.32.11-.6.34-.84.23-.24.52-.36.86-.36.33,0,.61.12.85.35.24.23.36.51.36.85s-.12.62-.36.85c-.24.23-.52.35-.85.35s-.62-.12-.85-.36c-.23-.24-.35-.52-.35-.85Z"/>
      <path class="cls-2" d="M137.5,303.78v-11.04h-1.8v-1.77h3.79v12.81h1.55v1.77h-5.35v-1.77h1.8Z"/>
      <path class="cls-2" d="M143.88,303.78v-11.04h-1.82v-1.77h3.82v9.11l3.79-3.03h-1.69v-1.65h5.61v1.65h-1.55l-3.8,3.17,3.57,3.56h1.78v1.77h-2.61l-5.1-5.1v3.33h1.75v1.77h-5.57v-1.77h1.82Z"/>
    </g>
    <g>
      <path class="cls-2" d="M202.45,298.69h-8.53c.13.94.5,1.69,1.11,2.27.62.58,1.4.87,2.36.87,1.39,0,2.49-.56,3.3-1.68l1.76.78c-.57.89-1.32,1.55-2.23,1.98-.92.43-1.87.64-2.87.64-1.55,0-2.88-.48-3.98-1.45s-1.65-2.27-1.65-3.92.54-2.84,1.61-3.85,2.3-1.51,3.69-1.51,2.6.49,3.71,1.47c1.11.98,1.68,2.44,1.72,4.39ZM200.4,297.24c-.14-.71-.51-1.36-1.11-1.93s-1.34-.86-2.21-.86c-.8,0-1.48.26-2.04.78-.57.52-.91,1.19-1.04,2.02h6.4Z"/>
      <path class="cls-2" d="M205.48,301.48v-11.04h-1.8v-1.77h3.79v12.81h1.55v1.77h-5.35v-1.77h1.8Z"/>
      <path class="cls-2" d="M221.03,298.69h-8.53c.13.94.5,1.69,1.11,2.27.62.58,1.4.87,2.36.87,1.39,0,2.49-.56,3.3-1.68l1.76.78c-.57.89-1.32,1.55-2.23,1.98-.92.43-1.87.64-2.87.64-1.55,0-2.88-.48-3.98-1.45s-1.65-2.27-1.65-3.92.54-2.84,1.61-3.85,2.3-1.51,3.69-1.51,2.6.49,3.71,1.47c1.11.98,1.68,2.44,1.72,4.39ZM218.97,297.24c-.14-.71-.51-1.36-1.11-1.93s-1.34-.86-2.21-.86c-.8,0-1.48.26-2.04.78-.57.52-.91,1.19-1.04,2.02h6.4Z"/>
      <path class="cls-2" d="M232.2,293.11v3.84h-1.78c-.09-.73-.39-1.3-.9-1.69-.51-.39-1.1-.59-1.77-.59-.9,0-1.62.32-2.18.95s-.84,1.46-.84,2.49c0,.96.27,1.8.8,2.53.53.73,1.3,1.1,2.31,1.1,1.4,0,2.41-.66,3.04-1.99l1.65.78c-.91,2.02-2.5,3.03-4.77,3.03-1.61,0-2.87-.55-3.79-1.65-.92-1.1-1.38-2.36-1.38-3.79,0-1.53.5-2.79,1.51-3.79s2.17-1.49,3.48-1.49c1.12,0,2.08.33,2.85,1v-.71h1.78Z"/>
      <path class="cls-2" d="M233.66,294.88v-1.77h1.32v-1.56l1.99-1.82v3.39h1.88v1.77h-1.88v4.93c0,.79.04,1.28.13,1.46s.31.28.66.28c.37,0,.73-.07,1.09-.21v1.81c-.51.18-1.02.27-1.53.27-.61,0-1.1-.13-1.48-.4s-.61-.61-.71-1.01c-.1-.4-.15-1.1-.15-2.1v-5.03h-1.32Z"/>
      <path class="cls-2" d="M240.31,298.18c0-1.57.52-2.85,1.55-3.85,1.03-1,2.3-1.5,3.78-1.5s2.72.49,3.76,1.48c1.05.99,1.57,2.28,1.57,3.87s-.52,2.89-1.57,3.88c-1.04.99-2.3,1.49-3.77,1.49s-2.78-.5-3.8-1.51c-1.02-1.01-1.54-2.29-1.54-3.86ZM242.41,298.18c0,1,.31,1.82.94,2.46.62.64,1.39.96,2.29.96s1.68-.32,2.3-.97c.62-.65.93-1.46.93-2.45s-.31-1.81-.94-2.46-1.39-.97-2.29-.97-1.71.33-2.32.99-.91,1.47-.91,2.44Z"/>
      <path class="cls-2" d="M262.92,301.48v1.77h-3.48v-1.24c-.96.94-2.04,1.4-3.23,1.4-.92,0-1.72-.3-2.41-.9-.68-.6-1.02-1.37-1.02-2.31s.36-1.73,1.08-2.35,1.59-.93,2.62-.93c.95,0,1.87.29,2.76.86v-1.01c0-.52-.05-.92-.15-1.2-.1-.28-.33-.53-.69-.75s-.83-.34-1.41-.34c-1,0-1.72.4-2.17,1.19l-1.91-.5c.85-1.58,2.31-2.37,4.38-2.37.76,0,1.42.1,1.98.31s.97.47,1.24.8c.27.32.46.68.55,1.05s.14.98.14,1.8v4.7h1.71ZM259.24,299.48c-.86-.67-1.73-1.01-2.61-1.01-.55,0-1.01.16-1.38.48-.37.32-.56.74-.56,1.25,0,.48.16.87.49,1.19.33.32.77.48,1.33.48.96,0,1.88-.41,2.74-1.22v-1.18Z"/>
      <path class="cls-2" d="M264.07,303.26v-3.48h1.78v.34c.06.48.32.87.77,1.17.45.31.98.46,1.6.46s1.16-.11,1.54-.34.58-.53.58-.93-.16-.67-.48-.85c-.32-.18-.95-.35-1.89-.5-1.4-.24-2.4-.62-2.99-1.15-.6-.53-.9-1.21-.9-2.05s.32-1.55.97-2.12c.65-.57,1.51-.85,2.57-.85.96,0,1.78.2,2.47.59v-.43h1.77v3.37h-1.77v-.62c-.54-.83-1.32-1.25-2.35-1.25-.52,0-.96.11-1.29.34s-.51.53-.51.91.16.65.47.79.98.29,2.01.45c.99.15,1.73.33,2.23.54.5.21.92.55,1.25,1.03.33.48.5,1.04.5,1.67,0,.94-.36,1.69-1.08,2.25-.72.56-1.66.83-2.81.83-1.08,0-1.97-.25-2.65-.74v.57h-1.78Z"/>
      <path class="cls-2" d="M273.67,294.88v-1.77h1.32v-1.56l1.99-1.82v3.39h1.88v1.77h-1.88v4.93c0,.79.04,1.28.13,1.46s.31.28.66.28c.37,0,.73-.07,1.09-.21v1.81c-.51.18-1.02.27-1.53.27-.61,0-1.1-.13-1.48-.4s-.61-.61-.71-1.01c-.1-.4-.15-1.1-.15-2.1v-5.03h-1.32Z"/>
    </g>
  </g>
</svg>