<?xml version="1.0" encoding="UTF-8"?>
<svg xmlns="http://www.w3.org/2000/svg" viewBox="0 0 1000 1000">
  <defs>
    <style>
      .cls-1 {
        fill: #29313c;
      }

      .cls-2 {
        fill: #f0e9ed;
      }

      .cls-3 {
        fill: #121212;
      }

      .cls-4 {
        fill: #1f242d;
      }

      .cls-5 {
        fill: #8e2d39;
      }

      .cls-6 {
        fill: #b72c36;
      }

      .cls-7 {
        fill: #69788b;
      }

      .cls-8 {
        fill: #3c505e;
      }

      .cls-9 {
        fill: #848b91;
      }

      .cls-10 {
        fill: #691428;
      }

      .cls-11 {
        fill: #bac2d2;
      }

      .cls-12 {
        fill: #af4556;
      }

      .cls-13 {
        fill: #434851;
      }
    </style>
  </defs>
  <g id="Layer_1" data-name="Layer 1">
    <path class="cls-4" d="M626.42,252.11v-13.85c0-2.68,2.18-4.86,4.86-4.86h254.2l102.51,31.46-52.55,4.42-309.02-17.18Z"/>
    <polygon class="cls-5" points="987.99 264.87 974.04 679.87 36.02 467.15 12.01 461.7 12.01 410.73 146.91 257.27 200.73 257.27 213.91 269.29 935.43 269.29 943.45 260.7 987.99 264.87"/>
    <polygon class="cls-12" points="172.68 346.6 36.02 467.15 12.01 461.7 12.01 410.73 146.91 257.27 172.68 346.6"/>
    <polygon class="cls-6" points="12.01 766.91 885.86 766.91 974.04 679.87 965.45 309.37 163.76 309.37 12.01 461.7 12.01 766.91"/>
    <polygon class="cls-10" points="965.45 309.37 987.99 264.87 974.04 679.87 965.45 309.37"/>
    <path class="cls-4" d="M420.04,249.9v-11.87c0-2.73-2.21-4.94-4.94-4.94h-175.33l-92.86,24.18h53.82l56.47-12.63,162.84,5.25Z"/>
    <polygon class="cls-1" points="200.73 257.27 257.2 244.64 257.2 269.29 213.91 269.29 200.73 257.27"/>
    <path class="cls-13" d="M257.2,244.64h157.59c2.9,0,5.25,2.35,5.25,5.25v19.39h-162.84v-24.65Z"/>
    <path class="cls-13" d="M626.42,269.29v-17.18c0-3.83,3.1-6.93,6.93-6.93h252.13v24.11h-259.06Z"/>
    <polygon class="cls-1" points="885.48 245.18 943.45 260.7 935.43 269.29 885.48 269.29 885.48 245.18"/>
    <polygon class="cls-3" points="178.75 406.25 871.68 406.25 871.68 457.41 896.3 457.41 896.3 515.97 879.63 515.97 879.63 565.89 859.76 565.89 859.76 618.92 727.87 618.92 727.87 671.76 314.31 671.76 314.31 618.92 169.46 618.92 169.46 517.09 152.3 517.09 152.3 455.99 179.15 455.99 178.75 406.25"/>
    <rect class="cls-9" x="183.21" y="410.92" width="49.13" height="49.13" rx="1.69" ry="1.69"/>
    <path class="cls-11" d="M223.01,449.56c-10.15,1.63-20.31,1.63-30.46,0-1.58,0-2.87-1.28-2.87-2.87v-30.46c0-1.58,1.28-2.87,2.87-2.87h30.46c1.58,0,2.87,1.28,2.87,2.87v30.46c0,1.58-1.28,2.87-2.87,2.87Z"/>
    <rect class="cls-9" x="553.24" y="410.92" width="49.13" height="49.13" rx="1.69" ry="1.69"/>
    <path class="cls-11" d="M593.04,449.56c-10.15,1.63-20.31,1.63-30.46,0-1.58,0-2.87-1.28-2.87-2.87v-30.46c0-1.58,1.28-2.87,2.87-2.87h30.46c1.58,0,2.87,1.28,2.87,2.87v30.46c0,1.58-1.28,2.87-2.87,2.87Z"/>
    <rect class="cls-9" x="500.38" y="410.92" width="49.13" height="49.13" rx="1.69" ry="1.69"/>
    <path class="cls-11" d="M540.18,449.56c-10.15,1.63-20.31,1.63-30.46,0-1.58,0-2.87-1.28-2.87-2.87v-30.46c0-1.58,1.28-2.87,2.87-2.87h30.46c1.58,0,2.87,1.28,2.87,2.87v30.46c0,1.58-1.28,2.87-2.87,2.87Z"/>
    <rect class="cls-9" x="447.52" y="410.92" width="49.13" height="49.13" rx="1.69" ry="1.69"/>
    <path class="cls-11" d="M487.32,449.56c-10.15,1.63-20.31,1.63-30.46,0-1.58,0-2.87-1.28-2.87-2.87v-30.46c0-1.58,1.28-2.87,2.87-2.87h30.46c1.58,0,2.87,1.28,2.87,2.87v30.46c0,1.58-1.28,2.87-2.87,2.87Z"/>
    <rect class="cls-9" x="394.66" y="410.92" width="49.13" height="49.13" rx="1.69" ry="1.69"/>
    <path class="cls-11" d="M434.46,449.56c-10.15,1.63-20.31,1.63-30.46,0-1.58,0-2.87-1.28-2.87-2.87v-30.46c0-1.58,1.28-2.87,2.87-2.87h30.46c1.58,0,2.87,1.28,2.87,2.87v30.46c0,1.58-1.28,2.87-2.87,2.87Z"/>
    <rect class="cls-9" x="341.8" y="410.92" width="49.13" height="49.13" rx="1.69" ry="1.69"/>
    <path class="cls-11" d="M381.6,449.56c-10.15,1.63-20.31,1.63-30.46,0-1.58,0-2.87-1.28-2.87-2.87v-30.46c0-1.58,1.28-2.87,2.87-2.87h30.46c1.58,0,2.87,1.28,2.87,2.87v30.46c0,1.58-1.28,2.87-2.87,2.87Z"/>
    <rect class="cls-9" x="288.94" y="410.92" width="49.13" height="49.13" rx="1.69" ry="1.69"/>
    <path class="cls-11" d="M328.73,449.56c-10.15,1.63-20.31,1.63-30.46,0-1.58,0-2.87-1.28-2.87-2.87v-30.46c0-1.58,1.28-2.87,2.87-2.87h30.46c1.58,0,2.87,1.28,2.87,2.87v30.46c0,1.58-1.28,2.87-2.87,2.87Z"/>
    <rect class="cls-9" x="236.08" y="410.92" width="49.13" height="49.13" rx="1.69" ry="1.69"/>
    <path class="cls-11" d="M275.87,449.56c-10.15,1.63-20.31,1.63-30.46,0-1.58,0-2.87-1.28-2.87-2.87v-30.46c0-1.58,1.28-2.87,2.87-2.87h30.46c1.58,0,2.87,1.28,2.87,2.87v30.46c0,1.58-1.28,2.87-2.87,2.87Z"/>
    <rect class="cls-9" x="208.95" y="462.81" width="49.13" height="49.13" rx="1.69" ry="1.69"/>
    <path class="cls-11" d="M248.75,501.45c-10.15,1.63-20.31,1.63-30.46,0-1.58,0-2.87-1.28-2.87-2.87v-30.46c0-1.58,1.28-2.87,2.87-2.87h30.46c1.58,0,2.87,1.28,2.87,2.87v30.46c0,1.58-1.28,2.87-2.87,2.87Z"/>
    <rect class="cls-8" x="156.01" y="462.81" width="49.13" height="49.13" rx="1.69" ry="1.69"/>
    <path class="cls-7" d="M195.81,501.45c-10.15,1.63-20.31,1.63-30.46,0-1.58,0-2.87-1.28-2.87-2.87v-30.46c0-1.58,1.28-2.87,2.87-2.87h30.46c1.58,0,2.87,1.28,2.87,2.87v30.46c0,1.58-1.28,2.87-2.87,2.87Z"/>
    <rect class="cls-9" x="578.98" y="462.81" width="49.13" height="49.13" rx="1.69" ry="1.69"/>
    <path class="cls-11" d="M618.78,501.45c-10.15,1.63-20.31,1.63-30.46,0-1.58,0-2.87-1.28-2.87-2.87v-30.46c0-1.58,1.28-2.87,2.87-2.87h30.46c1.58,0,2.87,1.28,2.87,2.87v30.46c0,1.58-1.28,2.87-2.87,2.87Z"/>
    <rect class="cls-9" x="526.12" y="462.81" width="49.13" height="49.13" rx="1.69" ry="1.69"/>
    <path class="cls-11" d="M565.92,501.45c-10.15,1.63-20.31,1.63-30.46,0-1.58,0-2.87-1.28-2.87-2.87v-30.46c0-1.58,1.28-2.87,2.87-2.87h30.46c1.58,0,2.87,1.28,2.87,2.87v30.46c0,1.58-1.28,2.87-2.87,2.87Z"/>
    <rect class="cls-9" x="473.26" y="462.81" width="49.13" height="49.13" rx="1.69" ry="1.69"/>
    <path class="cls-11" d="M513.06,501.45c-10.15,1.63-20.31,1.63-30.46,0-1.58,0-2.87-1.28-2.87-2.87v-30.46c0-1.58,1.28-2.87,2.87-2.87h30.46c1.58,0,2.87,1.28,2.87,2.87v30.46c0,1.58-1.28,2.87-2.87,2.87Z"/>
    <rect class="cls-9" x="420.4" y="462.81" width="49.13" height="49.13" rx="1.69" ry="1.69"/>
    <path class="cls-11" d="M460.2,501.45c-10.15,1.63-20.31,1.63-30.46,0-1.58,0-2.87-1.28-2.87-2.87v-30.46c0-1.58,1.28-2.87,2.87-2.87h30.46c1.58,0,2.87,1.28,2.87,2.87v30.46c0,1.58-1.28,2.87-2.87,2.87Z"/>
    <rect class="cls-9" x="367.54" y="462.81" width="49.13" height="49.13" rx="1.69" ry="1.69"/>
    <path class="cls-11" d="M407.34,501.45c-10.15,1.63-20.31,1.63-30.46,0-1.58,0-2.87-1.28-2.87-2.87v-30.46c0-1.58,1.28-2.87,2.87-2.87h30.46c1.58,0,2.87,1.28,2.87,2.87v30.46c0,1.58-1.28,2.87-2.87,2.87Z"/>
    <rect class="cls-9" x="314.68" y="462.81" width="49.13" height="49.13" rx="1.69" ry="1.69"/>
    <path class="cls-11" d="M354.47,501.45c-10.15,1.63-20.31,1.63-30.46,0-1.58,0-2.87-1.28-2.87-2.87v-30.46c0-1.58,1.28-2.87,2.87-2.87h30.46c1.58,0,2.87,1.28,2.87,2.87v30.46c0,1.58-1.28,2.87-2.87,2.87Z"/>
    <rect class="cls-9" x="261.81" y="462.81" width="49.13" height="49.13" rx="1.69" ry="1.69"/>
    <path class="cls-11" d="M301.61,501.45c-10.15,1.63-20.31,1.63-30.46,0-1.58,0-2.87-1.28-2.87-2.87v-30.46c0-1.58,1.28-2.87,2.87-2.87h30.46c1.58,0,2.87,1.28,2.87,2.87v30.46c0,1.58-1.28,2.87-2.87,2.87Z"/>
    <rect class="cls-9" x="227.78" y="514.71" width="49.13" height="49.13" rx="1.69" ry="1.69"/>
    <path class="cls-11" d="M267.58,553.34c-10.15,1.63-20.31,1.63-30.46,0-1.58,0-2.87-1.28-2.87-2.87v-30.46c0-1.58,1.28-2.87,2.87-2.87h30.46c1.58,0,2.87,1.28,2.87,2.87v30.46c0,1.58-1.28,2.87-2.87,2.87Z"/>
    <rect class="cls-8" x="780.36" y="566.6" width="73.61" height="49.13" rx="2.06" ry="2.06"/>
    <path class="cls-7" d="M843.99,605.24c-17.88,1.63-35.76,1.63-53.64,0-2.79,0-5.04-1.28-5.04-2.87v-30.46c0-1.58,2.26-2.87,5.04-2.87h53.64c2.79,0,5.04,1.28,5.04,2.87v30.46c0,1.58-2.26,2.87-5.04,2.87Z"/>
    <rect class="cls-8" x="174.84" y="566.6" width="73.61" height="49.13" rx="2.06" ry="2.06"/>
    <path class="cls-7" d="M238.47,605.24c-17.88,1.63-35.76,1.63-53.64,0-2.79,0-5.04-1.28-5.04-2.87v-30.46c0-1.58,2.26-2.87,5.04-2.87h53.64c2.79,0,5.04,1.28,5.04,2.87v30.46c0,1.58-2.26,2.87-5.04,2.87Z"/>
    <rect class="cls-8" x="174.84" y="514.71" width="49.13" height="49.13" rx="1.69" ry="1.69"/>
    <path class="cls-7" d="M214.64,553.34c-10.15,1.63-20.31,1.63-30.46,0-1.58,0-2.87-1.28-2.87-2.87v-30.46c0-1.58,1.28-2.87,2.87-2.87h30.46c1.58,0,2.87,1.28,2.87,2.87v30.46c0,1.58-1.28,2.87-2.87,2.87Z"/>
    <rect class="cls-9" x="764.69" y="410.92" width="49.13" height="49.13" rx="1.69" ry="1.69"/>
    <path class="cls-11" d="M804.49,449.56c-10.15,1.63-20.31,1.63-30.46,0-1.58,0-2.87-1.28-2.87-2.87v-30.46c0-1.58,1.28-2.87,2.87-2.87h30.46c1.58,0,2.87,1.28,2.87,2.87v30.46c0,1.58-1.28,2.87-2.87,2.87Z"/>
    <rect class="cls-9" x="711.83" y="410.92" width="49.13" height="49.13" rx="1.69" ry="1.69"/>
    <path class="cls-11" d="M751.63,449.56c-10.15,1.63-20.31,1.63-30.46,0-1.58,0-2.87-1.28-2.87-2.87v-30.46c0-1.58,1.28-2.87,2.87-2.87h30.46c1.58,0,2.87,1.28,2.87,2.87v30.46c0,1.58-1.28,2.87-2.87,2.87Z"/>
    <rect class="cls-9" x="817.17" y="410.92" width="49.13" height="49.13" rx="1.69" ry="1.69"/>
    <path class="cls-11" d="M856.96,449.56c-10.15,1.63-20.31,1.63-30.46,0-1.58,0-2.87-1.28-2.87-2.87v-30.46c0-1.58,1.28-2.87,2.87-2.87h30.46c1.58,0,2.87,1.28,2.87,2.87v30.46c0,1.58-1.28,2.87-2.87,2.87Z"/>
    <rect class="cls-9" x="658.97" y="410.92" width="49.13" height="49.13" rx="1.69" ry="1.69"/>
    <path class="cls-11" d="M698.77,449.56c-10.15,1.63-20.31,1.63-30.46,0-1.58,0-2.87-1.28-2.87-2.87v-30.46c0-1.58,1.28-2.87,2.87-2.87h30.46c1.58,0,2.87,1.28,2.87,2.87v30.46c0,1.58-1.28,2.87-2.87,2.87Z"/>
    <rect class="cls-9" x="606.11" y="410.92" width="49.13" height="49.13" rx="1.69" ry="1.69"/>
    <path class="cls-11" d="M645.9,449.56c-10.15,1.63-20.31,1.63-30.46,0-1.58,0-2.87-1.28-2.87-2.87v-30.46c0-1.58,1.28-2.87,2.87-2.87h30.46c1.58,0,2.87,1.28,2.87,2.87v30.46c0,1.58-1.28,2.87-2.87,2.87Z"/>
    <rect class="cls-9" x="790.43" y="462.81" width="49.13" height="49.13" rx="1.69" ry="1.69"/>
    <path class="cls-11" d="M830.23,501.45c-10.15,1.63-20.31,1.63-30.46,0-1.58,0-2.87-1.28-2.87-2.87v-30.46c0-1.58,1.28-2.87,2.87-2.87h30.46c1.58,0,2.87,1.28,2.87,2.87v30.46c0,1.58-1.28,2.87-2.87,2.87Z"/>
    <rect class="cls-9" x="737.57" y="462.81" width="49.13" height="49.13" rx="1.69" ry="1.69"/>
    <path class="cls-11" d="M777.37,501.45c-10.15,1.63-20.31,1.63-30.46,0-1.58,0-2.87-1.28-2.87-2.87v-30.46c0-1.58,1.28-2.87,2.87-2.87h30.46c1.58,0,2.87,1.28,2.87,2.87v30.46c0,1.58-1.28,2.87-2.87,2.87Z"/>
    <rect class="cls-9" x="842.91" y="462.81" width="49.13" height="49.13" rx="1.69" ry="1.69"/>
    <path class="cls-11" d="M882.7,501.45c-10.15,1.63-20.31,1.63-30.46,0-1.58,0-2.87-1.28-2.87-2.87v-30.46c0-1.58,1.28-2.87,2.87-2.87h30.46c1.58,0,2.87,1.28,2.87,2.87v30.46c0,1.58-1.28,2.87-2.87,2.87Z"/>
    <rect class="cls-9" x="684.71" y="462.81" width="49.13" height="49.13" rx="1.69" ry="1.69"/>
    <path class="cls-11" d="M724.51,501.45c-10.15,1.63-20.31,1.63-30.46,0-1.58,0-2.87-1.28-2.87-2.87v-30.46c0-1.58,1.28-2.87,2.87-2.87h30.46c1.58,0,2.87,1.28,2.87,2.87v30.46c0,1.58-1.28,2.87-2.87,2.87Z"/>
    <rect class="cls-9" x="631.85" y="462.81" width="49.13" height="49.13" rx="1.69" ry="1.69"/>
    <path class="cls-11" d="M671.64,501.45c-10.15,1.63-20.31,1.63-30.46,0-1.58,0-2.87-1.28-2.87-2.87v-30.46c0-1.58,1.28-2.87,2.87-2.87h30.46c1.58,0,2.87,1.28,2.87,2.87v30.46c0,1.58-1.28,2.87-2.87,2.87Z"/>
    <rect class="cls-8" x="756.4" y="514.71" width="64.37" height="49.13" rx="1.93" ry="1.93"/>
    <path class="cls-7" d="M810.81,553.34c-14.82,1.63-29.64,1.63-44.46,0-2.31,0-4.18-1.28-4.18-2.87v-30.46c0-1.58,1.87-2.87,4.18-2.87h44.46c2.31,0,4.18,1.28,4.18,2.87v30.46c0,1.58-1.87,2.87-4.18,2.87Z"/>
    <rect class="cls-9" x="703.54" y="514.71" width="49.13" height="49.13" rx="1.69" ry="1.69"/>
    <path class="cls-11" d="M743.33,553.34c-10.15,1.63-20.31,1.63-30.46,0-1.58,0-2.87-1.28-2.87-2.87v-30.46c0-1.58,1.28-2.87,2.87-2.87h30.46c1.58,0,2.87,1.28,2.87,2.87v30.46c0,1.58-1.28,2.87-2.87,2.87Z"/>
    <rect class="cls-9" x="824.81" y="514.71" width="49.13" height="49.13" rx="1.69" ry="1.69"/>
    <path class="cls-11" d="M864.61,553.34c-10.15,1.63-20.31,1.63-30.46,0-1.58,0-2.87-1.28-2.87-2.87v-30.46c0-1.58,1.28-2.87,2.87-2.87h30.46c1.58,0,2.87,1.28,2.87,2.87v30.46c0,1.58-1.28,2.87-2.87,2.87Z"/>
    <rect class="cls-9" x="650.67" y="514.71" width="49.13" height="49.13" rx="1.69" ry="1.69"/>
    <path class="cls-11" d="M690.47,553.34c-10.15,1.63-20.31,1.63-30.46,0-1.58,0-2.87-1.28-2.87-2.87v-30.46c0-1.58,1.28-2.87,2.87-2.87h30.46c1.58,0,2.87,1.28,2.87,2.87v30.46c0,1.58-1.28,2.87-2.87,2.87Z"/>
    <rect class="cls-9" x="597.81" y="514.71" width="49.13" height="49.13" rx="1.69" ry="1.69"/>
    <path class="cls-11" d="M637.61,553.34c-10.15,1.63-20.31,1.63-30.46,0-1.58,0-2.87-1.28-2.87-2.87v-30.46c0-1.58,1.28-2.87,2.87-2.87h30.46c1.58,0,2.87,1.28,2.87,2.87v30.46c0,1.58-1.28,2.87-2.87,2.87Z"/>
    <rect class="cls-9" x="544.95" y="514.71" width="49.13" height="49.13" rx="1.69" ry="1.69"/>
    <path class="cls-11" d="M584.75,553.34c-10.15,1.63-20.31,1.63-30.46,0-1.58,0-2.87-1.28-2.87-2.87v-30.46c0-1.58,1.28-2.87,2.87-2.87h30.46c1.58,0,2.87,1.28,2.87,2.87v30.46c0,1.58-1.28,2.87-2.87,2.87Z"/>
    <rect class="cls-9" x="492.09" y="514.71" width="49.13" height="49.13" rx="1.69" ry="1.69"/>
    <path class="cls-11" d="M531.89,553.34c-10.15,1.63-20.31,1.63-30.46,0-1.58,0-2.87-1.28-2.87-2.87v-30.46c0-1.58,1.28-2.87,2.87-2.87h30.46c1.58,0,2.87,1.28,2.87,2.87v30.46c0,1.58-1.28,2.87-2.87,2.87Z"/>
    <rect class="cls-9" x="439.23" y="514.71" width="49.13" height="49.13" rx="1.69" ry="1.69"/>
    <path class="cls-11" d="M479.03,553.34c-10.15,1.63-20.31,1.63-30.46,0-1.58,0-2.87-1.28-2.87-2.87v-30.46c0-1.58,1.28-2.87,2.87-2.87h30.46c1.58,0,2.87,1.28,2.87,2.87v30.46c0,1.58-1.28,2.87-2.87,2.87Z"/>
    <rect class="cls-9" x="386.37" y="514.71" width="49.13" height="49.13" rx="1.69" ry="1.69"/>
    <path class="cls-11" d="M426.16,553.34c-10.15,1.63-20.31,1.63-30.46,0-1.58,0-2.87-1.28-2.87-2.87v-30.46c0-1.58,1.28-2.87,2.87-2.87h30.46c1.58,0,2.87,1.28,2.87,2.87v30.46c0,1.58-1.28,2.87-2.87,2.87Z"/>
    <rect class="cls-9" x="333.51" y="514.71" width="49.13" height="49.13" rx="1.69" ry="1.69"/>
    <path class="cls-11" d="M373.3,553.34c-10.15,1.63-20.31,1.63-30.46,0-1.58,0-2.87-1.28-2.87-2.87v-30.46c0-1.58,1.28-2.87,2.87-2.87h30.46c1.58,0,2.87,1.28,2.87,2.87v30.46c0,1.58-1.28,2.87-2.87,2.87Z"/>
    <rect class="cls-9" x="280.64" y="514.71" width="49.13" height="49.13" rx="1.69" ry="1.69"/>
    <path class="cls-11" d="M320.44,553.34c-10.15,1.63-20.31,1.63-30.46,0-1.58,0-2.87-1.28-2.87-2.87v-30.46c0-1.58,1.28-2.87,2.87-2.87h30.46c1.58,0,2.87,1.28,2.87,2.87v30.46c0,1.58-1.28,2.87-2.87,2.87Z"/>
    <rect class="cls-9" x="252.35" y="566.6" width="49.13" height="49.13" rx="1.69" ry="1.69"/>
    <path class="cls-11" d="M292.14,605.24c-10.15,1.63-20.31,1.63-30.46,0-1.58,0-2.87-1.28-2.87-2.87v-30.46c0-1.58,1.28-2.87,2.87-2.87h30.46c1.58,0,2.87,1.28,2.87,2.87v30.46c0,1.58-1.28,2.87-2.87,2.87Z"/>
    <rect class="cls-9" x="728.1" y="566.6" width="49.13" height="49.13" rx="1.69" ry="1.69"/>
    <path class="cls-11" d="M767.9,605.24c-10.15,1.63-20.31,1.63-30.46,0-1.58,0-2.87-1.28-2.87-2.87v-30.46c0-1.58,1.28-2.87,2.87-2.87h30.46c1.58,0,2.87,1.28,2.87,2.87v30.46c0,1.58-1.28,2.87-2.87,2.87Z"/>
    <rect class="cls-9" x="675.24" y="566.6" width="49.13" height="49.13" rx="1.69" ry="1.69"/>
    <path class="cls-11" d="M715.04,605.24c-10.15,1.63-20.31,1.63-30.46,0-1.58,0-2.87-1.28-2.87-2.87v-30.46c0-1.58,1.28-2.87,2.87-2.87h30.46c1.58,0,2.87,1.28,2.87,2.87v30.46c0,1.58-1.28,2.87-2.87,2.87Z"/>
    <rect class="cls-9" x="622.38" y="566.6" width="49.13" height="49.13" rx="1.69" ry="1.69"/>
    <path class="cls-11" d="M662.18,605.24c-10.15,1.63-20.31,1.63-30.46,0-1.58,0-2.87-1.28-2.87-2.87v-30.46c0-1.58,1.28-2.87,2.87-2.87h30.46c1.58,0,2.87,1.28,2.87,2.87v30.46c0,1.58-1.28,2.87-2.87,2.87Z"/>
    <rect class="cls-9" x="569.52" y="566.6" width="49.13" height="49.13" rx="1.69" ry="1.69"/>
    <path class="cls-11" d="M609.31,605.24c-10.15,1.63-20.31,1.63-30.46,0-1.58,0-2.87-1.28-2.87-2.87v-30.46c0-1.58,1.28-2.87,2.87-2.87h30.46c1.58,0,2.87,1.28,2.87,2.87v30.46c0,1.58-1.28,2.87-2.87,2.87Z"/>
    <rect class="cls-9" x="516.66" y="566.6" width="49.13" height="49.13" rx="1.69" ry="1.69"/>
    <path class="cls-11" d="M556.45,605.24c-10.15,1.63-20.31,1.63-30.46,0-1.58,0-2.87-1.28-2.87-2.87v-30.46c0-1.58,1.28-2.87,2.87-2.87h30.46c1.58,0,2.87,1.28,2.87,2.87v30.46c0,1.58-1.28,2.87-2.87,2.87Z"/>
    <rect class="cls-9" x="463.79" y="566.6" width="49.13" height="49.13" rx="1.69" ry="1.69"/>
    <path class="cls-11" d="M503.59,605.24c-10.15,1.63-20.31,1.63-30.46,0-1.58,0-2.87-1.28-2.87-2.87v-30.46c0-1.58,1.28-2.87,2.87-2.87h30.46c1.58,0,2.87,1.28,2.87,2.87v30.46c0,1.58-1.28,2.87-2.87,2.87Z"/>
    <rect class="cls-9" x="410.93" y="566.6" width="49.13" height="49.13" rx="1.69" ry="1.69"/>
    <path class="cls-11" d="M450.73,605.24c-10.15,1.63-20.31,1.63-30.46,0-1.58,0-2.87-1.28-2.87-2.87v-30.46c0-1.58,1.28-2.87,2.87-2.87h30.46c1.58,0,2.87,1.28,2.87,2.87v30.46c0,1.58-1.28,2.87-2.87,2.87Z"/>
    <rect class="cls-9" x="358.07" y="566.6" width="49.13" height="49.13" rx="1.69" ry="1.69"/>
    <path class="cls-11" d="M397.87,605.24c-10.15,1.63-20.31,1.63-30.46,0-1.58,0-2.87-1.28-2.87-2.87v-30.46c0-1.58,1.28-2.87,2.87-2.87h30.46c1.58,0,2.87,1.28,2.87,2.87v30.46c0,1.58-1.28,2.87-2.87,2.87Z"/>
    <rect class="cls-9" x="305.21" y="566.6" width="49.13" height="49.13" rx="1.69" ry="1.69"/>
    <path class="cls-11" d="M345.01,605.24c-10.15,1.63-20.31,1.63-30.46,0-1.58,0-2.87-1.28-2.87-2.87v-30.46c0-1.58,1.28-2.87,2.87-2.87h30.46c1.58,0,2.87,1.28,2.87,2.87v30.46c0,1.58-1.28,2.87-2.87,2.87Z"/>
    <rect class="cls-9" x="321.13" y="618.49" width="403.24" height="49.13" rx="2.2" ry="2.2"/>
    <path class="cls-11" d="M715.2,661.31c-129.91,1.5-258.81,1.5-386.69,0-1.71,0-3.1-1.25-3.1-2.79v-33.07c0-1.54,1.39-2.79,3.1-2.79h386.69c1.71,0,3.1,1.25,3.1,2.79v33.07c0,1.54-1.39,2.79-3.1,2.79Z"/>
  </g>
  <g id="TEXT">
    <g>
      <path class="cls-2" d="M786.91,390.14c0,2.89.21,3.08,2.46,3.24v1.04h-9.38v-1.04c2.14-.16,2.36-.35,2.36-3.24v-11.74h-.46c-1.79,0-2.52.32-2.95.8-.32.4-.64,1.1-.99,2.6h-1.12c.11-2.25.27-4.1.32-5.47h.83c.4.62.67.67,1.39.67h10.69c.7,0,.83-.16,1.26-.67h.83c.03,1.13.16,3.4.29,5.39l-1.18.08c-.4-1.61-.7-2.3-1.1-2.76-.46-.48-1.34-.64-2.63-.64h-.64v11.74Z"/>
      <path class="cls-2" d="M803.78,388.29c0,4.29-3.19,6.46-6.48,6.46-4.21,0-6.4-3-6.4-6.06,0-4.31,3.3-6.59,6.59-6.59,3.96,0,6.3,2.79,6.3,6.19ZM799.1,389.9c0-4.8-.86-6.51-1.98-6.51-.83,0-1.53,1.34-1.53,3.86,0,3.22.7,6.22,2.06,6.22.7,0,1.45-.7,1.45-3.56Z"/>
      <path class="cls-2" d="M815.73,390.94c0,1.13.32,1.53.7,1.53.27,0,.62-.13.88-.24l.32.96-3.35,1.55c-1.39,0-2.09-.72-2.38-1.47-1.1.62-2.17,1.47-2.65,1.47-2.6,0-4.02-1.77-4.02-3.81,0-1.53.78-2.33,2.44-2.95,1.42-.54,3.22-1.15,4.07-1.58v-.78c0-1.13-.72-1.93-1.45-1.93-.32,0-.62.11-.8.35-.32.43-.56,1.23-.8,2.25-.13.54-.64.78-1.12.78-.72,0-2.09-.51-2.09-1.5,0-.54.35-.96,1.02-1.5.88-.7,3.03-1.69,4.96-1.98,1.61,0,2.44.32,3.13.83.96.7,1.15,1.66,1.15,2.65v5.36ZM811.74,387.83c-.59.21-.94.38-1.34.62-.7.38-1.02,1.02-1.02,1.9,0,1.47,1.04,2.12,1.53,2.12.19,0,.54-.08.83-.24v-4.39Z"/>
      <path class="cls-2" d="M825.91,386.01c-.94-2.01-2.04-2.57-2.89-2.57-.7,0-1.23.54-1.23,1.23,0,.8.91,1.34,1.74,1.63,2.33.8,4.07,1.85,4.07,4.18,0,3-2.89,4.26-5.25,4.26-1.63,0-3.19-.64-3.72-1.18-.16-.46-.48-2.49-.48-3.51l.99-.16c.75,1.77,2.22,3.51,3.54,3.51.94,0,1.47-.62,1.47-1.37,0-.94-.72-1.53-1.93-1.98-1.34-.51-3.7-1.47-3.7-3.8s1.88-4.13,4.8-4.15c1.15-.03,2.3.27,2.95.59.32.64.7,2.71.72,3.08l-1.07.24Z"/>
      <path class="cls-2" d="M834.08,390.35c0,1.88.75,2.25,1.23,2.25.38,0,.83-.08,1.29-.32l.38.94-2.57,1.21c-.56.27-.8.32-1.1.32-2.12,0-3.43-.91-3.43-3.51v-7.26h-1.63l-.27-.43.86-1.13h1.04v-1.77l3.75-1.98.46.24v3.51h2.41c.35.29.29,1.34-.19,1.55h-2.22v6.38Z"/>
    </g>
    <g>
      <path class="cls-2" d="M845.29,394.12c3.8-.94,6.3-3.59,7.07-6.46l-.88.38c-.86.35-1.39.54-1.69.54-3.32,0-5.25-2.2-5.25-4.93s2.14-5.95,6.43-5.95c3.78,0,6.06,3.08,6.06,6.94,0,4.47-2.6,8.01-6.7,9.67-.99.4-3.38.8-4.88.83l-.16-1.02ZM852.5,386.35c.16-.67.19-1.55.19-2.14,0-2.38-.75-5.17-2.28-5.17-1.21,0-1.58,1.42-1.58,3.27,0,2.44,1.29,4.18,2.89,4.18.27,0,.54-.03.78-.13Z"/>
      <path class="cls-2" d="M870.55,386.38c0,3.91-1.47,8.68-6.19,8.68-4.29,0-6.19-4.77-6.19-8.68s1.47-8.68,6.19-8.68,6.19,4.77,6.19,8.68ZM862.46,386.38c0,3.72.51,7.34,1.9,7.34,1.5,0,1.96-3.62,1.9-7.34-.05-3.72-.51-7.34-1.9-7.34s-1.9,3.62-1.9,7.34Z"/>
    </g>
  </g>
</svg>