<?xml version="1.0" encoding="UTF-8"?>
<svg xmlns="http://www.w3.org/2000/svg" viewBox="0 0 256 256">
  <defs>
    <style>
      .cls-1 {
        fill: #f15a55;
      }

      .cls-2 {
        fill: #ffdb4f;
      }

      .cls-3 {
        fill: #232323;
      }

      .cls-4 {
        fill: #565656;
      }

      .cls-5 {
        fill: #6b6b6b;
      }

      .cls-6 {
        fill: #e7e7e6;
        stroke: #e7e7e6;
        stroke-width: .35px;
      }

      .cls-6, .cls-7 {
        stroke-miterlimit: 10;
      }

      .cls-8 {
        fill: #383838;
      }

      .cls-7 {
        fill: none;
        stroke: #383838;
        stroke-linecap: round;
        stroke-width: 6.45px;
      }

      .cls-9 {
        fill: #71c7b0;
      }

      .cls-10 {
        fill: #398ccb;
      }
    </style>
  </defs>
  <g id="Buttons">
    <rect class="cls-8" x="183.54" y="73.62" width="40.08" height="7.27" rx="2.21" ry="2.21" transform="translate(-.7 1.86) rotate(-.52)"/>
    <rect class="cls-8" x="32.53" y="73.9" width="40.08" height="7.27" rx="2.21" ry="2.21" transform="translate(105.41 154.89) rotate(179.8)"/>
    <path class="cls-5" d="M252.81,147.21c-.05,4.87-.53,12.02-10.59,18.11-9.13,4.68-41.9,10.64-47.88,11.44-.16.03-.48.08-.94.16-.11.02-.22.04-.34.06-.1.02-.2.03-.31.05l-.62.11-.27.05c-8.13,1.38-34.22,5.47-63.84,5.36-30.12.12-56.58-4.11-64.23-5.42-.28-.05-.54-.09-.77-.13-.67-.12-1.12-.2-1.33-.23-5.98-.8-38.75-6.76-47.88-11.44-10.06-6.09-10.54-13.24-10.59-18.11,1.11-9.75,2.28-17.48,4.4-27.81,1.85-10.27,8.58-28.6,10.81-32.78,2.22-4.18,8.47-8.63,13.45-9.48h40.36s3.44.21,5.46,1.85c7.73,6.35,3.44,13.82,3.44,13.82-2.48,4.78-5.59,15.09-6.54,18.33-.19.63-.29,1-.29,1,.41.07.85.14,1.32.21,10.41,1.59,34.59,4.09,52.41,4.21,17.79-.12,41.91-2.61,52.35-4.21.49-.07.95-.15,1.38-.22,0,0-.09-.33-.26-.91-.92-3.13-4.06-13.59-6.57-18.42,0,0-4.29-7.47,3.44-13.82,2.01-1.64,5.46-1.85,5.46-1.85h40.36c4.98.85,11.23,5.3,13.45,9.48s8.95,22.51,10.8,32.78c2.12,10.33,3.28,18.06,4.4,27.81Z"/>
    <path class="cls-4" d="M69.9,116.25c-8.61,21.59-7.17,52.36-6.31,59.43.02.15.05.28.09.42.07.27.16.6.09,1.02,0,0,0,0,0,0l-1.54-.28c.01-.07,0-.14-.06-.34-.05-.17-.1-.37-.13-.63-.87-7.18-2.33-38.49,6.49-60.4l.07-.19.16-.13c1.54-1.26,4-2.05,5.52-3.02-.19.63,0,0,0,0,.41.07.85.14,1.32.21-1.39.88-4.12,2.66-5.69,3.9Z"/>
    <path class="cls-4" d="M193.49,176.11v.02c-.1.37-.14.56-.1.8h0s-.34.06-.34.06c-.1.02-.2.03-.31.05l-.62.11-.27.05c-.1-.56.01-1.01.12-1.43v-.02c.86-3.51,1.4-13.22.7-24.29-.6-9.58-2.31-23.43-7.01-35.19-.51-.41-1.1-.86-1.75-1.34-.55-.4-1.15-.83-1.77-1.26-.56-.38-1.36-.98-1.78-1.3.49-.07.95-.15,1.38-.22h0s4.51,2.56,5.07,3.02l.16.13.08.19c4.83,12,6.58,26.13,7.19,35.87.72,11.35.17,21.05-.74,24.77Z"/>
    <rect class="cls-4" x="199.62" y="99.83" width="24.98" height="15.74" transform="translate(-21.39 62.26) rotate(-15.91)"/>
    <rect class="cls-4" x="206.98" y="122.81" width="24.98" height="15.74" transform="translate(-27.41 65.16) rotate(-15.91)"/>
    <path class="cls-4" d="M62.96,144.1c44.19,7.69,87.44,7.97,129.63,0l.5,6.48c-42.32,8.34-85.97,7.63-130.64,0l.5-6.48Z"/>
    <circle class="cls-9" cx="200.81" cy="110.87" r="7.98"/>
    <circle class="cls-2" cx="224.16" cy="104.31" r="7.98"/>
    <circle class="cls-10" cx="230.72" cy="127.43" r="7.98"/>
    <circle class="cls-1" cx="207.36" cy="133.99" r="9.95"/>
    <circle class="cls-8" cx="40.17" cy="117.6" r="18.23"/>
    <path class="cls-7" d="M146.21,152.98c4.29-.26,20.54-1.45,26.41-2.4"/>
    <circle class="cls-3" cx="43.42" cy="105.02" r="2.38"/>
    <circle class="cls-3" cx="52.57" cy="121.23" r="2.38"/>
    <circle class="cls-3" cx="36.44" cy="130.68" r="2.38"/>
    <circle class="cls-3" cx="27.07" cy="114.16" r="2.38"/>
  </g>
  <g id="TEXT">
    <g>
      <path class="cls-6" d="M112.99,140.56v-1.5c0-1.76,1.2-2.6,3.74-2.6s3.6.76,3.67,2.35h-1.69c-.06-.92-.65-1.33-1.97-1.33-1.42,0-1.99.48-1.99,1.6v1.47c0,1.12.58,1.6,1.99,1.6,1.31,0,1.91-.41,1.97-1.32h1.69c-.07,1.58-1.26,2.34-3.67,2.34-2.54,0-3.74-.84-3.74-2.6Z"/>
      <path class="cls-6" d="M128.96,139.1v1.41c0,1.74-1.16,2.53-3.77,2.53h-3.53v-6.47h3.53c2.62,0,3.77.8,3.77,2.53ZM127.19,139.12c0-1.11-.61-1.53-2.24-1.53h-1.53v4.44h1.53c1.63,0,2.24-.42,2.24-1.53v-1.37Z"/>
    </g>
    <g>
      <path class="cls-1" d="M130.98,139.25l-.02-.58s.04-.05.11-.05l1.3-.04c.06,0,.12.02.12.04l.02.53s.02.03.07.03l1.18-.04c.06,0,.07,0,.07-.03l-.04-1.11s-.02-.03-.07-.03l-1.14.04c-.09,0-.12-.02-.12-.04l-.02-.49s.04-.04.11-.04l1.14-.04c.06,0,.07,0,.07-.03l-.04-1.11s-.02-.03-.07-.03l-1.18.04c-.06,0-.07,0-.07.03l.02.48s-.06.05-.11.05l-1.3.04c-.09,0-.12-.02-.12-.04l-.02-.52c-.01-.36.37-.58,1.44-.61l1.47-.05c1.07-.04,1.47.16,1.48.51l.03.98c.01.3-.19.42-.45.52.26.08.47.18.48.49l.03.97c.01.36-.3.57-1.42.61l-1.46.05c-1.16.04-1.49-.16-1.51-.5Z"/>
      <path class="cls-1" d="M135.98,139.56l-.04-1.33c0-.15.12-.27.44-.42l1.95-.91c.3-.14.37-.2.36-.39v-.44s-.03-.03-.09-.03l-1.18.04c-.06,0-.07,0-.07.03l.02.53s-.06.04-.11.04l-1.3.04c-.07,0-.12,0-.12-.04l-.02-.58c-.01-.35.37-.57,1.44-.61l1.49-.05c1.08-.04,1.45.16,1.46.51l.02.62c0,.28-.22.44-.6.62l-1.95.93c-.14.06-.2.13-.2.22l.02.58s.02.03.07.03l2.61-.09c.09,0,.12.02.12.04l.02.49s-.04.04-.11.04l-4.1.14c-.07,0-.12,0-.12-.04Z"/>
    </g>
    <g>
      <path class="cls-1" d="M65.91,138.55c.04-.11.05-.17.09-.28.11.01.16.02.27.04.22.03.36.02.43-.02.07-.04.17-.24.29-.6.21-.65.31-.98.52-1.63.27-.84.4-1.26.67-2.09.08-.24.13-.42.14-.54.01-.09-.01-.16-.07-.21-.06-.05-.18-.09-.37-.11-.15-.02-.22-.03-.37-.05.04-.11.05-.17.09-.28.32.06.81.14,1.49.23.71.08,1.07.12,1.78.2.48.06.83.15,1.04.28.22.12.38.29.49.5.11.21.15.44.12.69-.05.39-.24.71-.57.95-.33.24-.84.38-1.51.41.2.42.3.62.51,1.04.19.41.29.61.48,1.02.22.47.37.75.45.84.08.09.2.15.37.17.06,0,.09.01.16.02-.04.11-.05.17-.09.28-.35-.07-.65-.13-.92-.16-.25-.03-.5-.05-.75-.05-.04-.11-.07-.16-.11-.27-.1-.26-.21-.51-.31-.74-.19-.43-.29-.64-.48-1.07-.15-.33-.36-.75-.61-1.25.02-.05.02-.08.04-.14.13.02.2.03.33.05.48.06.89,0,1.22-.19.33-.19.53-.52.59-.98.04-.32-.02-.56-.18-.74-.16-.18-.45-.29-.86-.35-.16-.02-.4-.03-.69-.02-.2.62-.3.93-.49,1.55-.3.93-.45,1.4-.75,2.33-.15.48-.24.78-.26.91-.01.1.01.17.08.23.07.05.23.09.49.13.1.01.15.02.25.03-.04.11-.05.17-.09.28-.61-.1-.92-.15-1.53-.25-.21-.03-.66-.07-1.36-.14Z"/>
      <path class="cls-1" d="M72.4,139.4c.02-.11.03-.17.05-.28.07,0,.11.01.18.02.12.02.22.01.31,0,.09-.02.16-.06.22-.11.17-.21.26-.32.44-.53,1.15-1.41,1.72-2.11,2.85-3.52.4-.5.67-.84.8-1.03.35.04.53.06.89.1,0,.28.02.58.03.88.08,1.51.12,2.27.2,3.78.02.41.04.67.06.8.02.12.05.2.08.24.04.04.12.07.25.1.08.02.12.03.2.04.07.01.14.02.22.03-.01.12-.02.17-.03.29-.37-.07-.79-.13-1.28-.19-.62-.07-1.13-.12-1.54-.13.02-.11.02-.17.04-.29.07,0,.11.01.18.02.21.02.36.02.46,0,.1-.02.15-.09.16-.19.02-.17.02-.42.01-.73-.01-.43-.02-.65-.03-1.08-.29-.04-.43-.05-.72-.09-.54-.06-.81-.09-1.34-.15-.18.23-.27.35-.45.59-.48.62-.73.99-.74,1.13,0,.06.02.12.09.15.11.06.34.11.71.15-.04.11-.05.17-.09.28-.37-.07-.73-.13-1.09-.18-.36-.04-.73-.08-1.09-.09ZM77,134.91c-.66.83-1,1.24-1.67,2.07.36.05.53.07.89.11.35.04.53.06.88.09-.04-.91-.07-1.37-.11-2.28Z"/>
      <path class="cls-1" d="M80.48,140.34c.03-.11.05-.17.08-.28.15.02.23.02.38.04.2.02.33.02.39-.01.06-.03.11-.09.15-.19.04-.1.15-.43.32-1,.34-1.17.72-2.44,1.11-3.83-.18-.02-.28-.03-.46-.05-.57-.06-.95-.07-1.14-.02-.14.04-.26.23-.36.58-.04.13-.06.2-.1.33-.14-.02-.21-.02-.35-.04.15-.48.28-.97.39-1.47.02-.01.03-.02.05-.03.76.1,1.13.14,1.89.24.51.05.77.08,1.28.13,1,.1,1.72.16,2.16.18.03.02.04.03.06.04-.05.17-.08.26-.13.43-.13.43-.22.77-.28,1.04-.14-.01-.21-.02-.34-.03.05-.29.09-.52.1-.68.02-.16-.01-.26-.09-.31-.08-.05-.32-.09-.75-.14-.31-.03-.46-.05-.77-.08-.23.8-.62,2.16-1.18,4.09-.11.37-.17.62-.18.74,0,.09.02.16.08.21.06.05.2.08.41.1.15.02.23.02.38.04-.03.11-.05.17-.08.28-.68-.1-1.23-.17-1.64-.21-.45-.05-.92-.08-1.39-.11Z"/>
      <path class="cls-1" d="M85.08,140.81c.03-.11.05-.17.08-.28.07,0,.1.01.17.02.22.02.37-.02.45-.13.08-.11.32-.66.7-1.66.34-.89.51-1.33.85-2.22.18-.47.27-.75.28-.86.01-.1-.03-.19-.11-.25-.08-.06-.22-.1-.41-.12-.15-.01-.22-.02-.36-.03.03-.11.05-.17.08-.28.19.03.6.07,1.24.13.39.04.66.06.8.06.04.27.13.78.28,1.55.22,1.18.33,1.76.56,2.94.59-.74.88-1.11,1.47-1.85.39-.5.97-1.26,1.74-2.28.6.06.98.1,1.13.11.26.02.58.04.98.06-.03.11-.05.17-.08.28-.08,0-.13-.01-.21-.02-.24-.02-.4.01-.47.09-.08.08-.18.37-.32.87-.33,1.27-.5,1.9-.84,3.17-.12.42-.18.7-.19.84,0,.1.02.18.08.22.06.04.21.08.44.09.11,0,.17.01.28.02-.03.11-.04.17-.07.28-.61-.06-.92-.1-1.53-.16-.18-.01-.63-.04-1.35-.08.03-.11.05-.17.08-.28.1,0,.15.01.24.02.27.02.44-.01.51-.1.08-.09.2-.48.39-1.18.35-1.35.52-2.03.87-3.39-.67.84-1,1.26-1.67,2.1-.62.77-1.15,1.47-1.59,2.08-.21.28-.31.43-.51.71-.1,0-.15-.01-.25-.02-.13-.75-.28-1.55-.44-2.4-.19-1.04-.29-1.56-.48-2.6-.49,1.36-.9,2.5-1.24,3.41-.12.35-.19.59-.2.73,0,.08.02.15.08.19.06.05.18.08.36.1.14.01.2.02.34.03-.03.11-.05.17-.08.28-.63-.08-.99-.13-1.1-.14-.21-.02-.53-.04-.96-.06Z"/>
      <path class="cls-1" d="M94.2,141.62c.03-.11.04-.17.07-.28.11,0,.17.01.28.02.17.01.29.01.36,0,.07-.02.12-.04.15-.07.03-.03.07-.09.1-.18.04-.09.12-.39.25-.89.18-.69.37-1.38.56-2.09.25-.97.39-1.56.4-1.77,0-.09-.03-.16-.1-.21-.08-.05-.25-.08-.52-.1-.1,0-.14-.01-.24-.02.03-.11.04-.17.07-.28.83.08,1.32.13,1.48.14.6.03.9.05,1.5.08-.03.11-.05.17-.08.28-.04,0-.07,0-.11,0-.31-.02-.49-.02-.56.01-.07.03-.12.09-.16.18-.06.12-.15.44-.28.94-.29,1.14-.44,1.7-.73,2.84-.13.51-.21.84-.22,1,0,.1.03.18.1.23.08.05.24.09.5.11.11,0,.16.01.27.02-.03.11-.05.17-.08.28-.71-.08-1.24-.13-1.59-.16-.42-.03-.9-.05-1.44-.07Z"/>
      <path class="cls-1" d="M104.09,141.86s0,.02,0,.03c-.12.01-.43.07-.93.17-.37.07-.68.12-.95.14-.27.02-.53.02-.8,0-.9-.06-1.58-.31-2.02-.75-.44-.44-.64-1.04-.58-1.79.05-.7.26-1.3.62-1.8.36-.5.91-.91,1.63-1.24.72-.33,1.43-.47,2.11-.43.39.02.76.08,1.11.16.34.08.61.18.8.28.01.02.02.04.03.06-.05.15-.08.23-.13.38-.14.4-.24.73-.3,1.01-.13,0-.19-.01-.32-.02.02-.16.03-.34.06-.54,0-.12,0-.18.01-.3-.2-.15-.44-.27-.7-.35s-.55-.13-.88-.15c-.55-.03-1.01.04-1.38.23-.37.19-.67.49-.9.92-.3.56-.47,1.17-.52,1.84-.05.67.08,1.17.38,1.52.3.35.75.54,1.35.58.39.02.76-.02,1.1-.12.09-.27.13-.41.22-.69.11-.35.17-.6.18-.75,0-.08-.03-.13-.1-.18-.07-.04-.22-.07-.46-.09-.16-.01-.25-.02-.41-.03.03-.12.04-.18.07-.29.22.02.76.07,1.62.13.47.02.71.02,1.18.04-.03.12-.04.18-.07.29-.06,0-.09,0-.15,0-.14,0-.26.01-.35.07-.09.05-.16.16-.2.33-.04.17-.06.26-.1.43-.08.28-.12.42-.19.7-.01.08-.02.12-.03.21Z"/>
      <path class="cls-1" d="M104.95,142.35c.01-.11.02-.17.03-.29.07,0,.11,0,.18.01.12,0,.23,0,.31-.03.08-.02.16-.07.21-.13.16-.22.24-.33.4-.56,1.06-1.48,1.58-2.22,2.63-3.71.37-.52.61-.88.73-1.08.36.02.54.03.9.04.03.28.06.58.09.88.18,1.5.27,2.26.45,3.76.05.41.09.67.11.79.03.12.06.2.1.23.04.04.13.06.25.08.08.01.12.02.21.03.07,0,.14.01.22.01,0,.12,0,.17,0,.29-.37-.04-.81-.08-1.3-.1-.63-.03-1.15-.04-1.55-.03,0-.12.01-.17.02-.29.07,0,.11,0,.18,0,.21.01.36,0,.46-.03.09-.03.14-.1.15-.2,0-.18,0-.42-.04-.72-.04-.43-.06-.65-.1-1.08-.29-.02-.44-.02-.73-.04-.54-.02-.82-.04-1.36-.06-.17.25-.25.37-.42.62-.44.65-.66,1.04-.67,1.17,0,.06.03.11.1.15.11.05.35.09.72.11-.03.11-.04.17-.07.29-.38-.05-.75-.08-1.11-.1-.37-.02-.74-.03-1.1-.02ZM109.28,137.55c-.61.87-.92,1.31-1.53,2.18.36.02.54.03.9.05.36.01.54.02.9.03-.11-.91-.16-1.36-.26-2.27Z"/>
    </g>
  </g>
</svg>