<?xml version="1.0" encoding="UTF-8"?>
<svg id="Layer_1" data-name="Layer 1" xmlns="http://www.w3.org/2000/svg" viewBox="0 0 1000 1000">
  <defs>
    <style>
      .cls-1 {
        fill: #505085;
      }

      .cls-2 {
        fill: #191919;
      }

      .cls-3 {
        fill: #262827;
      }

      .cls-4 {
        fill: #c2c4d4;
      }

      .cls-5 {
        fill: #72736f;
      }

      .cls-6 {
        fill: #c9cad7;
      }

      .cls-7 {
        fill: #6a69a8;
      }

      .cls-8 {
        stroke: #191919;
        stroke-miterlimit: 10;
        stroke-width: 9px;
      }

      .cls-8, .cls-9 {
        fill: #f0efef;
      }

      .cls-10 {
        fill: #78c143;
      }

      .cls-11 {
        fill: #5d5894;
      }

      .cls-12 {
        fill: #d8dae9;
      }

      .cls-13 {
        fill: #1a1d40;
      }
    </style>
  </defs>
  <path class="cls-4" d="M940.83,335.62s-3-9.5,5.43-12.99c1.03-.3,1.78-3.08,0-6.72s-13.12-38.68-50.03-44.51c0,0-88.56-14.9-106.25-16.49-17.7-1.59-19.59-1.73-25.03-1.78s95.58,84.64,95.58,84.64l80.3-2.14Z"/>
  <path class="cls-4" d="M58.63,335.61s3-9.5-5.43-12.99c-1.03-.3-1.78-3.08,0-6.72s13.12-38.68,50.03-44.51c0,0,88.56-14.9,106.25-16.49,17.7-1.59,19.59-1.73,25.03-1.78s-95.58,84.64-95.58,84.64l-80.3-2.14Z"/>
  <path class="cls-4" d="M942.62,343.74s9.95-.2,10.8,5.55,10.42,73.8,13.61,120.28,6.23,83.85,6.38,127.75-1.06,55.59-18.38,77.16-26.28,24.91-35.85,25.37-8.35.3-11.39-3.95-5.16-8.05-5.16-8.05l39.99-344.11Z"/>
  <path class="cls-4" d="M55.48,343.74s-9.95-.2-10.8,5.55-10.42,73.8-13.61,120.28c-3.19,46.48-6.23,83.85-6.38,127.75-.15,43.9,1.06,55.59,18.38,77.16s26.28,24.91,35.85,25.37c9.57.46,8.35.3,11.39-3.95s5.16-8.05,5.16-8.05l-39.99-344.11Z"/>
  <path class="cls-7" d="M959.75,484.73c-6.68-88.26-20.5-157.5-20.5-157.5-4.54-26.28-29.47-24.93-58.18-29.95-27.47-4.79-64.71-19.29-102.53-37.82-37.82-18.53-54.23-19.75-69.42-20.05-9.65-.19-44.52-.26-79.02-.37-19.79-.05-39.46-.12-54.19-.24-31.27-.23-137.9.04-184.54.18-1.4,0-2.82,0-4.24.01-1.51,0-2.95.01-4.29.01-4.49.02-9.05.03-13.62.04-34.46.11-69.25.18-78.89.37-15.19.3-31.59,1.52-69.42,20.05-37.82,18.53-75.06,33.03-102.53,37.82-28.71,5.02-53.64,3.67-58.17,29.95,0,0-13.83,69.24-20.51,157.5-6.68,88.25-8.77,155.96,1.37,170.2s25.17,32.47,49.1,39.53c23.92,7.06,76.85,17.79,76.85,17.79l233.76,7.16.4,6.04,98.55-3.02,98.54,3.02.4-6.04,233.77-7.16s52.92-10.73,76.85-17.79c23.92-7.06,38.96-25.29,49.1-39.53s8.05-81.95,1.36-170.2Z"/>
  <path class="cls-11" d="M954.29,558.1c-.76-30.84-9.57-123.65-11.54-141.99-1.97-18.34-10.03-63.95-12.08-77.85-2.05-13.9-5.92-23.13-17.89-24.84s-16.52-3.04-44.32-8.28c-27.8-5.24-75.42-25.29-105.72-42.15-30.3-16.86-70.41-15.27-89.77-15.27h-346.18c-19.37,0-59.47-1.59-89.77,15.27-30.3,16.86-77.92,36.91-105.72,42.15-27.8,5.24-32.35,6.57-44.32,8.28s-15.84,10.94-17.89,24.84c-2.05,13.9-10.1,59.51-12.08,77.85-1.97,18.34-10.78,111.15-11.54,141.99-.76,30.84-5.47,74.13,5.92,96.91s28.1,29.01,36.61,32.66,85.29,26.47,100.78,30.86c15.49,4.38,38.51,15.78,56.96,22.61,17.88,6.62,65.71,17.95,131.47,23,26.6,2.69,74.09,3.95,122.66,3.84,48.57.11,96.07-1.15,122.66-3.84,65.76-5.05,113.59-16.38,131.47-23,18.46-6.84,41.47-18.23,56.96-22.61,15.49-4.38,92.28-27.21,100.78-30.86,8.51-3.65,25.22-9.87,36.61-32.66s6.68-66.08,5.92-96.91Z"/>
  <path class="cls-12" d="M207.23,440.53h-33.29c-1.98,0-3.58-1.6-3.58-3.58v-33.29c0-1.98-1.6-3.58-3.58-3.58h-30.42c-1.98,0-3.58,1.6-3.58,3.58v33.29c0,1.98-1.6,3.58-3.58,3.58h-33.29c-1.98,0-3.58,1.6-3.58,3.58v30.42c0,1.98,1.6,3.58,3.58,3.58h33.29c1.98,0,3.58,1.6,3.58,3.58v33.29c0,1.98,1.6,3.58,3.58,3.58h30.42c1.98,0,3.58-1.6,3.58-3.58v-33.29c0-1.98,1.6-3.58,3.58-3.58h33.29c1.98,0,3.58-1.6,3.58-3.58v-30.42c0-1.98-1.6-3.58-3.58-3.58Z"/>
  <circle class="cls-12" cx="804.71" cy="475.35" r="29.62"/>
  <circle class="cls-6" cx="151.57" cy="459.32" r="14.04"/>
  <circle class="cls-12" cx="891.29" cy="445.73" r="29.62"/>
  <circle class="cls-10" cx="804.71" cy="331.88" r="9.13"/>
  <rect class="cls-1" x="127.03" y="564.38" width="105.27" height="33.85" rx="16.92" ry="16.92" transform="translate(151.21 -26.47) rotate(14.49)"/>
  <circle class="cls-12" cx="214.58" cy="590.33" r="14.04"/>
  <rect class="cls-1" x="127.03" y="618.76" width="105.27" height="33.85" rx="16.92" ry="16.92" transform="translate(164.82 -24.73) rotate(14.49)"/>
  <circle class="cls-12" cx="214.58" cy="644.71" r="14.04"/>
  <rect class="cls-13" x="772.14" y="566.84" width="108.41" height="7.77" rx="3.41" ry="3.41" transform="translate(-114.27 218.84) rotate(-14.12)"/>
  <rect class="cls-13" x="772.14" y="586.86" width="108.41" height="7.77" rx="3.41" ry="3.41" transform="translate(-119.15 219.44) rotate(-14.12)"/>
  <rect class="cls-13" x="772.14" y="606.89" width="108.41" height="7.77" rx="3.41" ry="3.41" transform="translate(-124.03 220.05) rotate(-14.12)"/>
  <rect class="cls-13" x="772.14" y="626.91" width="108.41" height="7.77" rx="3.41" ry="3.41" transform="translate(-128.92 220.65) rotate(-14.12)"/>
  <rect class="cls-13" x="772.14" y="646.93" width="108.41" height="7.77" rx="3.41" ry="3.41" transform="translate(-133.8 221.26) rotate(-14.12)"/>
  <path class="cls-3" d="M746.17,453.87c-1.14-24.38-5.93-78.76-8.81-110.81-2.89-32.05-25.07-33.87-36.92-35.69-11.84-1.83-29.77-3.35-67.13-6.38-17.74-1.44-51.36-2.64-85.43-3.41-36.98-.83-74.48-1.16-92.79-.72-.36.01-.72.02-1.09.03-34.65,1.1-69.11,2.63-87.14,4.1-37.37,3.03-55.29,4.55-67.14,6.38-11.85,1.82-34.03,3.64-36.91,35.69-2.89,32.05-7.67,86.43-8.81,110.81s-5.7,126-5.47,158.81c.23,32.81-.52,63.94,46.93,81.12,39.51,14.3,92.97,25.36,204.62,24.7,111.65.66,165.79-10.9,204.62-24.7,46.94-16.69,46.71-48.31,46.93-81.12.23-32.81-4.32-134.43-5.46-158.81Z"/>
  <rect class="cls-5" x="296.72" y="341.01" width="406.71" height="269.76"/>
  <g>
    <path class="cls-1" d="M454.37,264.09h5.68c3.95,0,6.91,1.27,6.91,4.09,0,2-1.57,3.24-3.9,3.78l5.07,6.74h-4.47l-4.78-6.45h-.58v6.45h-3.92v-14.61ZM458.3,265.07v6.2h.96c2.25,0,3.65-.98,3.65-3.05s-1.4-3.15-3.63-3.15h-.98Z"/>
    <path class="cls-1" d="M476.06,278.78l-.69-1.52c-.5,1.13-1.75,1.65-3.67,1.65-2.98,0-4.05-1.31-4.05-2.75,0-1.98,1.96-3.03,6.41-3.03h1.21v-.44c0-2.67-1.31-3.32-2.86-3.32-1.29,0-2.3.46-3.01,1.06l-.42-.46c1.04-.81,2.38-1.48,4.43-1.48,2.63,0,5.49,1.11,5.49,4.82v5.47h-2.84ZM475.26,274.88v-1.11h-1.21c-1.63,0-2.65.67-2.65,2.4,0,1.17.54,1.8,1.57,1.8s2.3-.71,2.3-3.09Z"/>
    <path class="cls-1" d="M484.8,268.72h2.78v.88h-2.78v6.43c0,1.67.69,2.02,1.4,2.02.44,0,1.06-.13,1.57-.42l.29.54c-1.04.52-1.59.73-2.86.73-2.73,0-4.09-1-4.09-3.42v-5.89h-1.5v-.88h1.5l2.92-3.44h.77v3.44Z"/>
    <path class="cls-1" d="M493.27,268.72h2.78v.88h-2.78v6.43c0,1.67.69,2.02,1.4,2.02.44,0,1.06-.13,1.57-.42l.29.54c-1.04.52-1.59.73-2.86.73-2.73,0-4.09-1-4.09-3.42v-5.89h-1.5v-.88h1.5l2.92-3.44h.77v3.44Z"/>
    <path class="cls-1" d="M508.03,273.33v.5h-7.87c.04,2.76,1.25,3.99,3.24,3.99,1.84,0,3.03-.63,4.03-1.48l.52.35c-.9,1.04-2.3,2.21-5.18,2.21-3.8,0-6.26-1.79-6.26-5.24,0-3.11,2-5.18,5.78-5.18s5.74,1.98,5.74,4.84ZM500.16,273.12h4.32c-.04-2.86-.92-4.01-2.19-4.01s-2.05,1.13-2.13,4.01Z"/>
    <path class="cls-1" d="M512.8,270.49c.48-1.23,1.44-2,3.19-2,2.57,0,4.2,1.19,4.2,3.63v6.58h-3.7v-6.39c0-2.21-.33-2.92-1.34-2.92-1.31,0-2.23,1.21-2.36,3.44v5.87h-3.69v-9.98h3.69v1.77Z"/>
    <path class="cls-1" d="M530.23,278.7l-.4-1.92c-.58,1.61-1.75,2.15-3.55,2.15-3.13,0-5.07-1.67-5.07-5.22s1.94-5.22,5.07-5.22c1.59,0,2.69.44,3.32,1.65v-7.1h3.69v15.66h-3.07ZM525.11,273.71c0,3.07.65,4.32,2.13,4.32s2.34-1.25,2.34-4.32-.81-4.32-2.34-4.32-2.13,1.25-2.13,4.32Z"/>
    <path class="cls-1" d="M540.54,278.91c-3.71,0-6.14-1.96-6.14-5.3s2.44-5.11,6.14-5.11,6.14,1.77,6.14,5.11-2.38,5.3-6.14,5.3ZM540.54,278.26c1.44,0,2.42-1.34,2.42-4.65s-.98-4.47-2.42-4.47-2.42,1.15-2.42,4.47.98,4.65,2.42,4.65Z"/>
  </g>
  <path class="cls-1" d="M545.44,259.67c6.39,0,11.58,5.2,11.58,11.58s-5.2,11.58-11.58,11.58h-90.68c-6.39,0-11.58-5.2-11.58-11.58s5.2-11.58,11.58-11.58h90.68M545.44,256.67h-90.68c-8.05,0-14.58,6.53-14.58,14.58s6.53,14.58,14.58,14.58h90.68c8.05,0,14.58-6.53,14.58-14.58s-6.53-14.58-14.58-14.58h0Z"/>
  <g>
    <g>
      <g>
        <g>
          <path class="cls-9" d="M398.21,670.55l-1.48-2.98c2.55-1.2,4.31-3.65,4.31-7.56,0-4.19-2.4-6.45-6.56-6.45h-5.68l-3.41,21.96h5.01l1.09-7h.33l3.33,7h5.53l-.49-.98-1.98-3.99ZM393.27,664.07h-1.09l.83-5.45h1.11c1.37,0,1.99.77,1.99,2.03,0,2.3-1.19,3.42-2.84,3.42Z"/>
          <path class="cls-2" d="M406.32,679.03h-25.02l4.49-28.97h8.68c6.11,0,10.06,3.91,10.06,9.95,0,3.54-1.19,6.56-3.35,8.68l5.14,10.34Z"/>
        </g>
        <g>
          <path class="cls-9" d="M418.09,669.48l-1.36-7.27-.35-1.86-1.27-6.79h-4.93l-8.08,16.97-1.91,4.01-.46.98h5.39l1.37-3.03h7.05l.46,3.03h5.22l-1.13-6.04ZM408.5,668.02l3.2-7.1,1.12,7.1h-4.32Z"/>
          <polygon class="cls-2" points="423.43 679.02 411 679.02 410.53 675.99 408.75 675.99 407.38 679.02 394.18 679.02 395.85 675.52 398.21 670.55 404.33 657.7 407.97 650.06 412.77 650.06 412.77 650.05 413.55 650.05 413.55 650.06 418.02 650.06 421.64 669.42 422.78 675.52 423.43 679.02"/>
        </g>
        <g>
          <path class="cls-9" d="M420.98,653.56l-.8,5.15h3.12l-1.66,10.71-.95,6.1h5.01l2.61-16.81h3.12l.81-5.15h-11.26Z"/>
          <polygon class="cls-2" points="428.7 679.03 416.61 679.03 419.22 662.21 416.09 662.21 417.98 650.06 436.32 650.06 434.43 662.21 431.31 662.21 428.7 679.03"/>
        </g>
        <g>
          <path class="cls-9" d="M445.38,664.04c1.78-1.21,2.79-3.18,2.79-5.51,0-.9-.19-1.76-.57-2.51-.73-1.44-2.18-2.46-4.39-2.46h-7.28l-3.41,21.96h7.82c2.64,0,4.79-1.24,6.01-3.17.71-1.11,1.1-2.44,1.1-3.89,0-1.68-.7-3.36-2.07-4.42ZM439.52,670.99h-1.29l.75-4.74h1.21c1.68,0,2.27.73,2.27,1.91,0,1.62-1.08,2.83-2.94,2.83ZM440.58,662.36h-1.01l.67-4.27h1.06c1.65,0,2.27.71,2.27,1.77,0,1.65-.9,2.5-2.99,2.5Z"/>
          <path class="cls-2" d="M440.35,679.03h-11.91l4.49-28.97h10.28c4.9,0,8.46,3.57,8.46,8.48,0,2.14-.6,4.12-1.69,5.76.63,1.27.97,2.69.97,4.16,0,6.02-4.56,10.57-10.6,10.57Z"/>
        </g>
        <g>
          <path class="cls-9" d="M465.1,654.6c-1.57-1.11-3.47-1.75-5.57-1.75-3.06,0-5.95,1.47-8.04,3.84-2.02,2.26-3.29,5.34-3.29,8.73,0,2.55.79,4.9,2.13,6.75,1.81,2.47,4.63,4.06,7.96,4.06,4.67,0,8.93-3.44,10.58-8.25h0c.45-1.35.7-2.8.7-4.32,0-3.78-1.73-7.12-4.47-9.06ZM458.58,670.99c-2.97,0-5.4-2.44-5.4-5.8,0-3.95,2.87-7.1,6.02-7.1,2.91,0,5.34,2.44,5.34,5.83,0,3.92-2.87,7.07-5.96,7.07Z"/>
          <path class="cls-2" d="M469.21,653.56c-1.47-1.58-3.31-2.79-5.38-3.5h-.01c-1.34-.46-2.78-.71-4.29-.71-3.61,0-6.96,1.48-9.56,3.9-.89.82-1.68,1.75-2.37,2.77-1.82,2.66-2.9,5.92-2.9,9.4,0,2.53.59,4.89,1.65,6.93.57,1.12,1.29,2.15,2.12,3.05,2.45,2.68,5.92,4.33,9.82,4.33s7.16-1.58,9.78-4.14c2.09-2.03,3.65-4.67,4.44-7.63.36-1.37.56-2.82.56-4.3,0-3.98-1.45-7.53-3.86-10.1ZM459.2,661.59c1.06,0,1.84.98,1.84,2.33,0,2.15-1.48,3.57-2.46,3.57-1.1,0-1.9-.97-1.9-2.3,0-2.2,1.49-3.6,2.52-3.6Z"/>
        </g>
        <g>
          <path class="cls-9" d="M481.35,653.56l-5.47,9.63-2.2-9.63h-5.24l4.07,14.4.17.61-1.06,6.95h5.01l1.03-6.89,8.96-15.07h-5.27Z"/>
          <polygon class="cls-2" points="479.64 679.03 467.55 679.03 469.1 668.8 463.82 650.06 476.48 650.06 477.29 653.62 479.32 650.06 492.77 650.06 481.02 669.83 479.64 679.03"/>
        </g>
      </g>
      <rect class="cls-2" x="450.94" y="659.19" width="18.63" height="11.8"/>
      <g>
        <path class="cls-9" d="M388.8,653.56h5.68c4.16,0,6.56,2.27,6.56,6.45,0,3.92-1.76,6.36-4.31,7.57l3.95,7.95h-5.52l-3.33-7.01h-.34l-1.08,7.01h-5.01l3.41-21.97ZM393.01,658.62l-.83,5.45h1.08c1.65,0,2.84-1.12,2.84-3.42,0-1.27-.62-2.03-1.99-2.03h-1.11Z"/>
        <path class="cls-9" d="M413.54,672.49h-7.05l-1.37,3.03h-5.4l10.46-21.97h4.93l4.1,21.97h-5.22l-.46-3.03ZM412.82,668.02l-1.11-7.1-3.2,7.1h4.31Z"/>
        <path class="cls-9" d="M423.3,658.71h-3.12l.8-5.15h11.26l-.8,5.15h-3.12l-2.61,16.82h-5.01l2.61-16.82Z"/>
        <path class="cls-9" d="M435.93,653.56h7.28c3.36,0,4.96,2.36,4.96,4.98,0,2.33-1.01,4.3-2.79,5.51,1.37,1.06,2.07,2.74,2.07,4.42,0,3.98-2.94,7.07-7.1,7.07h-7.82l3.41-21.97ZM438.98,666.25l-.75,4.74h1.29c1.86,0,2.94-1.21,2.94-2.83,0-1.18-.59-1.91-2.27-1.91h-1.21ZM440.24,658.09l-.67,4.27h1.01c2.09,0,2.99-.85,2.99-2.5,0-1.06-.62-1.77-2.27-1.77h-1.06Z"/>
        <path class="cls-9" d="M469.58,663.66c0,6.95-5.32,12.58-11.28,12.58s-10.09-4.86-10.09-10.81c0-6.92,5.34-12.57,11.33-12.57s10.04,4.86,10.04,10.81ZM453.18,665.19c0,3.36,2.43,5.8,5.4,5.8s5.96-3.15,5.96-7.07c0-3.39-2.43-5.83-5.34-5.83-3.15,0-6.02,3.15-6.02,7.1Z"/>
        <path class="cls-9" d="M477.66,668.63l-1.03,6.89h-5.01l1.06-6.95-4.23-15.02h5.24l2.19,9.63,5.47-9.63h5.27l-8.96,15.08Z"/>
      </g>
    </g>
    <g>
      <g>
        <path class="cls-8" d="M503.71,665.02v-3.35h-8.77v11.49h-4.63v-11.27c0-.55.08-1.07.25-1.56.17-.49.4-.91.69-1.28.29-.36.63-.65,1.02-.86.39-.21.81-.32,1.25-.32h11.59c.43,0,.83.1,1.21.31s.72.48,1.01.82c.29.35.53.75.7,1.22.18.47.27.97.27,1.5v11.43h-4.6v-4.57h-6.17v-3.56h6.17Z"/>
        <path class="cls-8" d="M508.6,673.16v-9.07h4.65v5.26h8.72v-7.68h-13.37v-3.8h14.81c.43,0,.83.11,1.22.32.39.21.73.5,1.02.86.29.36.53.79.7,1.28.18.49.27,1.01.27,1.56v7.26c0,.53-.09,1.04-.27,1.52-.18.48-.41.9-.7,1.28-.29.37-.63.67-1.02.89-.39.22-.8.33-1.22.33h-14.81Z"/>
        <path class="cls-8" d="M537.74,673.16h-4.09l-7.26-15.29h4.87l4.41,9.65,4.47-9.65h4.87l-7.26,15.29Z"/>
        <path class="cls-8" d="M558.15,665.02v-3.35h-8.77v11.49h-4.63v-11.27c0-.55.08-1.07.25-1.56.17-.49.4-.91.69-1.28.29-.36.63-.65,1.02-.86.39-.21.81-.32,1.25-.32h11.59c.43,0,.83.1,1.21.31s.72.48,1.01.82c.29.35.53.75.7,1.22.18.47.27.97.27,1.5v11.43h-4.6v-4.57h-6.17v-3.56h6.17Z"/>
        <path class="cls-8" d="M567.67,661.67v11.49h-4.63v-15.29h14.81c.43,0,.83.1,1.21.31s.72.48,1.01.82c.29.35.53.75.7,1.22.18.47.27.97.27,1.5v11.43h-4.6v-11.49h-8.77Z"/>
        <path class="cls-8" d="M599.34,669.36v3.8h-14.78c-.44,0-.86-.11-1.25-.32-.39-.21-.73-.5-1.02-.86-.29-.36-.52-.79-.69-1.28-.17-.49-.25-1.01-.25-1.56v-7.26c0-.55.08-1.07.25-1.56.17-.49.4-.91.69-1.28.29-.36.63-.65,1.02-.86.39-.21.81-.32,1.25-.32h14.78v3.8h-13.37v7.68h13.37Z"/>
        <path class="cls-8" d="M604.23,669.36h13.37v3.8h-14.78c-.44,0-.86-.11-1.25-.32-.39-.21-.73-.5-1.02-.86-.29-.36-.52-.79-.69-1.28-.17-.49-.25-1.01-.25-1.56v-7.26c0-.55.08-1.07.25-1.56.17-.49.4-.91.69-1.28.29-.36.63-.65,1.02-.86.39-.21.81-.32,1.25-.32h14.78v3.8h-13.37v7.68ZM616.64,667.31h-9.81v-3.56h9.81v3.56Z"/>
      </g>
      <g>
        <path class="cls-9" d="M503.71,665.02v-3.35h-8.77v11.49h-4.63v-11.27c0-.55.08-1.07.25-1.56.17-.49.4-.91.69-1.28.29-.36.63-.65,1.02-.86.39-.21.81-.32,1.25-.32h11.59c.43,0,.83.1,1.21.31s.72.48,1.01.82c.29.35.53.75.7,1.22.18.47.27.97.27,1.5v11.43h-4.6v-4.57h-6.17v-3.56h6.17Z"/>
        <path class="cls-9" d="M508.6,673.16v-9.07h4.65v5.26h8.72v-7.68h-13.37v-3.8h14.81c.43,0,.83.11,1.22.32.39.21.73.5,1.02.86.29.36.53.79.7,1.28.18.49.27,1.01.27,1.56v7.26c0,.53-.09,1.04-.27,1.52-.18.48-.41.9-.7,1.28-.29.37-.63.67-1.02.89-.39.22-.8.33-1.22.33h-14.81Z"/>
        <path class="cls-9" d="M537.74,673.16h-4.09l-7.26-15.29h4.87l4.41,9.65,4.47-9.65h4.87l-7.26,15.29Z"/>
        <path class="cls-9" d="M558.15,665.02v-3.35h-8.77v11.49h-4.63v-11.27c0-.55.08-1.07.25-1.56.17-.49.4-.91.69-1.28.29-.36.63-.65,1.02-.86.39-.21.81-.32,1.25-.32h11.59c.43,0,.83.1,1.21.31s.72.48,1.01.82c.29.35.53.75.7,1.22.18.47.27.97.27,1.5v11.43h-4.6v-4.57h-6.17v-3.56h6.17Z"/>
        <path class="cls-9" d="M567.67,661.67v11.49h-4.63v-15.29h14.81c.43,0,.83.1,1.21.31s.72.48,1.01.82c.29.35.53.75.7,1.22.18.47.27.97.27,1.5v11.43h-4.6v-11.49h-8.77Z"/>
        <path class="cls-9" d="M599.34,669.36v3.8h-14.78c-.44,0-.86-.11-1.25-.32-.39-.21-.73-.5-1.02-.86-.29-.36-.52-.79-.69-1.28-.17-.49-.25-1.01-.25-1.56v-7.26c0-.55.08-1.07.25-1.56.17-.49.4-.91.69-1.28.29-.36.63-.65,1.02-.86.39-.21.81-.32,1.25-.32h14.78v3.8h-13.37v7.68h13.37Z"/>
        <path class="cls-9" d="M604.23,669.36h13.37v3.8h-14.78c-.44,0-.86-.11-1.25-.32-.39-.21-.73-.5-1.02-.86-.29-.36-.52-.79-.69-1.28-.17-.49-.25-1.01-.25-1.56v-7.26c0-.55.08-1.07.25-1.56.17-.49.4-.91.69-1.28.29-.36.63-.65,1.02-.86.39-.21.81-.32,1.25-.32h14.78v3.8h-13.37v7.68ZM616.64,667.31h-9.81v-3.56h9.81v3.56Z"/>
      </g>
    </g>
  </g>
</svg>