<?xml version="1.0" encoding="UTF-8"?>
<svg id="Layer_1" data-name="Layer 1" xmlns="http://www.w3.org/2000/svg" viewBox="0 0 1000 1000">
  <defs>
    <style>
      .cls-1 {
        fill: #36a3b8;
      }

      .cls-2 {
        fill: #151b19;
      }

      .cls-3 {
        fill: #273035;
      }

      .cls-4 {
        fill: #262626;
      }

      .cls-5 {
        fill: #303030;
      }

      .cls-6 {
        fill: #d5c129;
      }

      .cls-7 {
        fill: #7ec242;
      }

      .cls-8 {
        fill: #1a1a1a;
      }

      .cls-9 {
        fill: #7e76b7;
      }

      .cls-10 {
        fill: #026793;
      }

      .cls-11 {
        fill: #007398;
      }

      .cls-12 {
        fill: #e22a73;
      }

      .cls-13 {
        fill: #04556c;
      }

      .cls-14 {
        fill: #f0efef;
      }
    </style>
  </defs>
  <path class="cls-11" d="M738.14,943.6c-133.91,36.1-357.34,38.99-477.68,1.84-20.48-6.32-34.49-25.2-34.49-46.63V50.43c0-12.4,10.05-22.45,22.45-22.45h503.15c12.4,0,22.45,10.05,22.45,22.45v846.14c0,21.97-14.67,41.31-35.89,47.03Z"/>
  <path class="cls-3" d="M728.33,485.45c-150.75,20.28-301.63,20.3-452.63,0-10.67-1.43-18.62-10.57-18.62-21.34V78.41c0-8.43,6.83-15.27,15.27-15.27h459.34c8.43,0,15.27,6.83,15.27,15.27v385.7c0,10.77-7.95,19.9-18.62,21.34Z"/>
  <rect class="cls-2" x="341.31" y="112.58" width="319.9" height="289.37" rx="4.78" ry="4.78"/>
  <circle class="cls-8" cx="598.85" cy="669.89" r="33.42"/>
  <g>
    <circle class="cls-8" cx="646.55" cy="816.7" r="4.94"/>
    <circle class="cls-13" cx="662.42" cy="814.42" r="4.94"/>
    <circle class="cls-13" cx="662.42" cy="845.98" r="4.94"/>
    <circle class="cls-13" cx="678.14" cy="827.55" r="4.94"/>
    <circle class="cls-13" cx="694.09" cy="808.95" r="4.94"/>
    <circle class="cls-13" cx="709.93" cy="821.83" r="4.94"/>
    <circle class="cls-13" cx="725.92" cy="802.7" r="4.94"/>
    <circle class="cls-13" cx="725.92" cy="834.32" r="4.94"/>
    <circle class="cls-13" cx="725.92" cy="866.12" r="4.94"/>
    <circle class="cls-13" cx="725.92" cy="897.98" r="4.94"/>
    <circle class="cls-13" cx="742.09" cy="815.48" r="4.94"/>
    <circle class="cls-13" cx="742.09" cy="846.74" r="4.94"/>
    <circle class="cls-13" cx="742.09" cy="878.26" r="4.94"/>
    <circle class="cls-13" cx="709.93" cy="853.52" r="4.94"/>
    <circle class="cls-13" cx="709.93" cy="885.22" r="4.94"/>
    <circle class="cls-13" cx="709.93" cy="916.93" r="4.94"/>
    <circle class="cls-13" cx="694.09" cy="841.04" r="4.94"/>
    <circle class="cls-13" cx="694.09" cy="872.62" r="4.94"/>
    <circle class="cls-13" cx="694.09" cy="904.42" r="4.94"/>
    <circle class="cls-13" cx="678.14" cy="859.45" r="4.94"/>
    <circle class="cls-13" cx="678.14" cy="891.27" r="4.94"/>
    <circle class="cls-13" cx="678.14" cy="922.71" r="4.94"/>
    <circle class="cls-13" cx="662.42" cy="877.56" r="4.94"/>
    <circle class="cls-13" cx="662.42" cy="909.21" r="4.94"/>
    <circle class="cls-13" cx="630.6" cy="850.31" r="4.94"/>
    <circle class="cls-13" cx="646.55" cy="832.49" r="4.94"/>
    <circle class="cls-13" cx="646.55" cy="864.07" r="4.94"/>
    <circle class="cls-13" cx="646.55" cy="895.65" r="4.94"/>
    <circle class="cls-13" cx="646.55" cy="927.24" r="4.94"/>
    <circle class="cls-13" cx="630.6" cy="881.83" r="4.94"/>
    <circle class="cls-13" cx="630.6" cy="913.5" r="4.94"/>
    <circle class="cls-8" cx="678.3" cy="811.76" r="4.94"/>
    <circle class="cls-8" cx="709.89" cy="805.99" r="4.94"/>
    <circle class="cls-8" cx="630.6" cy="834.62" r="4.94"/>
    <circle class="cls-8" cx="662.35" cy="830.29" r="4.94"/>
    <circle class="cls-8" cx="662.35" cy="861.66" r="4.94"/>
    <circle class="cls-8" cx="662.35" cy="893.46" r="4.94"/>
    <circle class="cls-8" cx="662.35" cy="924.96" r="4.94"/>
    <circle class="cls-8" cx="693.94" cy="825.36" r="4.94"/>
    <circle class="cls-8" cx="693.94" cy="856.72" r="4.94"/>
    <circle class="cls-8" cx="693.94" cy="888.52" r="4.94"/>
    <circle class="cls-8" cx="693.94" cy="920.32" r="4.94"/>
    <circle class="cls-8" cx="725.92" cy="818.45" r="4.94"/>
    <circle class="cls-8" cx="725.92" cy="850.19" r="4.94"/>
    <circle class="cls-8" cx="725.92" cy="882.05" r="4.94"/>
    <circle class="cls-8" cx="725.92" cy="913.91" r="4.94"/>
    <circle class="cls-8" cx="646.55" cy="848.28" r="4.94"/>
    <circle class="cls-8" cx="646.55" cy="879.86" r="4.94"/>
    <circle class="cls-8" cx="646.55" cy="911.45" r="4.94"/>
    <circle class="cls-8" cx="630.6" cy="865.99" r="4.94"/>
    <circle class="cls-8" cx="630.6" cy="897.66" r="4.94"/>
    <circle class="cls-8" cx="678.3" cy="843.34" r="4.94"/>
    <circle class="cls-8" cx="678.3" cy="875.55" r="4.94"/>
    <circle class="cls-8" cx="678.3" cy="906.99" r="4.94"/>
    <circle class="cls-8" cx="709.76" cy="837.68" r="4.94"/>
    <circle class="cls-8" cx="709.76" cy="869.37" r="4.94"/>
    <circle class="cls-8" cx="709.76" cy="901.08" r="4.94"/>
    <circle class="cls-8" cx="741.49" cy="830.98" r="4.94"/>
    <circle class="cls-8" cx="741.49" cy="862.5" r="4.94"/>
    <circle class="cls-8" cx="741.49" cy="894.02" r="4.94"/>
  </g>
  <circle class="cls-8" cx="700.02" cy="637.53" r="33.42"/>
  <path class="cls-4" d="M477.58,821.55c-11.17,1.9-22.35,1.9-33.52,0-4.43-.75-7.65-4.64-7.65-9.14h0c0-4.54,3.28-8.46,7.77-9.16,11.09-1.73,22.19-1.73,33.28,0,4.49.7,7.77,4.62,7.77,9.16h0c0,4.49-3.22,8.39-7.65,9.14Z"/>
  <path class="cls-4" d="M559.83,821.55c-11.17,1.9-22.35,1.9-33.52,0-4.43-.75-7.65-4.64-7.65-9.14h0c0-4.54,3.28-8.46,7.77-9.16,11.09-1.73,22.19-1.73,33.28,0,4.49.7,7.77,4.62,7.77,9.16h0c0,4.49-3.22,8.39-7.65,9.14Z"/>
  <path class="cls-4" d="M401.89,633.38h-36.69c-2.18,0-3.94-1.77-3.94-3.94v-36.69c0-2.18-1.77-3.94-3.94-3.94h-33.53c-2.18,0-3.94,1.77-3.94,3.94v36.69c0,2.18-1.77,3.94-3.94,3.94h-36.69c-2.18,0-3.94,1.77-3.94,3.94v33.53c0,2.18,1.77,3.94,3.94,3.94h36.69c2.18,0,3.94,1.77,3.94,3.94v36.69c0,2.18,1.77,3.94,3.94,3.94h33.53c2.18,0,3.94-1.77,3.94-3.94v-36.69c0-2.18,1.77-3.94,3.94-3.94h36.69c2.18,0,3.94-1.77,3.94-3.94v-33.53c0-2.18-1.77-3.94-3.94-3.94Z"/>
  <circle class="cls-5" cx="340.55" cy="654.09" r="18.92"/>
  <g>
    <path class="cls-10" d="M439.57,544.28h7.71c5.36,0,9.38,1.73,9.38,5.56,0,2.72-2.13,4.39-5.3,5.13l6.89,9.16h-6.07l-6.49-8.76h-.79v8.76h-5.33v-19.85ZM444.9,545.61v8.42h1.3c3.06,0,4.96-1.33,4.96-4.14s-1.9-4.28-4.93-4.28h-1.33Z"/>
    <path class="cls-10" d="M469.03,564.24l-.94-2.07c-.68,1.53-2.38,2.24-4.99,2.24-4.05,0-5.5-1.79-5.5-3.74,0-2.69,2.67-4.11,8.7-4.11h1.64v-.6c0-3.63-1.79-4.51-3.88-4.51-1.76,0-3.12.62-4.08,1.45l-.57-.62c1.42-1.11,3.23-2.01,6.01-2.01,3.57,0,7.46,1.5,7.46,6.55v7.43h-3.86ZM467.95,558.94v-1.5h-1.64c-2.21,0-3.6.91-3.6,3.26,0,1.59.74,2.44,2.13,2.44s3.12-.96,3.12-4.2Z"/>
    <path class="cls-10" d="M480.91,550.57h3.77v1.19h-3.77v8.73c0,2.27.94,2.75,1.9,2.75.6,0,1.45-.17,2.13-.57l.4.74c-1.42.71-2.16.99-3.88.99-3.71,0-5.56-1.36-5.56-4.65v-8h-2.04v-1.19h2.04l3.97-4.68h1.05v4.68Z"/>
    <path class="cls-10" d="M492.43,550.57h3.77v1.19h-3.77v8.73c0,2.27.94,2.75,1.9,2.75.6,0,1.45-.17,2.13-.57l.4.74c-1.42.71-2.16.99-3.88.99-3.71,0-5.56-1.36-5.56-4.65v-8h-2.04v-1.19h2.04l3.97-4.68h1.05v4.68Z"/>
    <path class="cls-10" d="M512.47,556.84v.68h-10.69c.06,3.74,1.7,5.42,4.39,5.42,2.49,0,4.11-.85,5.47-2.01l.71.48c-1.22,1.42-3.12,3-7.03,3-5.16,0-8.51-2.44-8.51-7.12,0-4.22,2.72-7.03,7.85-7.03s7.8,2.69,7.8,6.58ZM501.79,556.55h5.87c-.06-3.88-1.25-5.44-2.98-5.44s-2.78,1.53-2.89,5.44Z"/>
    <path class="cls-10" d="M518.97,552.98c.65-1.67,1.96-2.72,4.34-2.72,3.49,0,5.7,1.62,5.7,4.93v8.93h-5.02v-8.68c0-3-.45-3.97-1.81-3.97-1.79,0-3.03,1.64-3.2,4.68v7.97h-5.02v-13.55h5.02v2.41Z"/>
    <path class="cls-10" d="M542.65,564.12l-.54-2.61c-.79,2.18-2.38,2.92-4.82,2.92-4.25,0-6.89-2.27-6.89-7.09s2.64-7.09,6.89-7.09c2.15,0,3.66.59,4.51,2.24v-9.64h5.02v21.26h-4.17ZM535.7,557.35c0,4.17.88,5.87,2.89,5.87s3.18-1.7,3.18-5.87-1.11-5.87-3.18-5.87-2.89,1.7-2.89,5.87Z"/>
    <path class="cls-10" d="M556.66,564.41c-5.05,0-8.33-2.67-8.33-7.2s3.32-6.95,8.33-6.95,8.34,2.41,8.34,6.95-3.23,7.2-8.34,7.2ZM556.66,563.53c1.96,0,3.29-1.81,3.29-6.32s-1.33-6.07-3.29-6.07-3.29,1.56-3.29,6.07,1.33,6.32,3.29,6.32Z"/>
  </g>
  <path class="cls-10" d="M562.02,538.87c8.49,0,15.39,6.9,15.39,15.39s-6.9,15.39-15.39,15.39h-120.5c-8.49,0-15.39-6.9-15.39-15.39s6.9-15.39,15.39-15.39h120.5M562.02,534.88h-120.5c-10.7,0-19.38,8.68-19.38,19.38s8.68,19.38,19.38,19.38h120.5c10.7,0,19.38-8.68,19.38-19.38s-8.68-19.38-19.38-19.38h0Z"/>
  <g>
    <g>
      <path class="cls-14" d="M391.19,433.08h6.59c4.83,0,7.61,2.63,7.61,7.49,0,4.55-2.04,7.38-5,8.78l4.58,9.23h-6.41l-3.87-8.13h-.39l-1.26,8.13h-5.81l3.96-25.5ZM396.07,438.96l-.96,6.32h1.26c1.92,0,3.3-1.3,3.3-3.96,0-1.47-.72-2.36-2.31-2.36h-1.29Z"/>
      <path class="cls-14" d="M419.89,455.06h-8.18l-1.59,3.52h-6.26l12.14-25.5h5.72l4.76,25.5h-6.05l-.54-3.52ZM419.05,449.86l-1.29-8.24-3.72,8.24h5Z"/>
      <path class="cls-14" d="M431.22,439.06h-3.63l.93-5.98h13.07l-.93,5.98h-3.63l-3.03,19.52h-5.81l3.03-19.52Z"/>
      <path class="cls-14" d="M445.88,433.08h8.45c3.9,0,5.75,2.73,5.75,5.78,0,2.7-1.17,4.99-3.24,6.39,1.59,1.23,2.4,3.18,2.4,5.13,0,4.61-3.42,8.2-8.24,8.2h-9.08l3.96-25.5ZM449.41,447.81l-.87,5.5h1.5c2.16,0,3.42-1.4,3.42-3.28,0-1.37-.69-2.22-2.64-2.22h-1.41ZM450.88,438.35l-.78,4.96h1.17c2.43,0,3.48-.99,3.48-2.91,0-1.23-.72-2.05-2.64-2.05h-1.23Z"/>
      <path class="cls-14" d="M484.92,444.81c0,8.07-6.17,14.59-13.1,14.59s-11.72-5.64-11.72-12.54c0-8.03,6.2-14.59,13.16-14.59s11.66,5.64,11.66,12.54ZM465.89,446.58c0,3.9,2.82,6.73,6.26,6.73s6.92-3.66,6.92-8.2c0-3.93-2.82-6.77-6.2-6.77-3.66,0-6.98,3.66-6.98,8.24Z"/>
      <path class="cls-14" d="M494.3,450.58l-1.2,8h-5.81l1.23-8.07-4.92-17.43h6.08l2.55,11.18,6.35-11.18h6.11l-10.4,17.5Z"/>
    </g>
    <g>
      <path class="cls-9" d="M542.24,460.1c-3.11,0-5.75-.89-7.94-2.66-2.33-1.9-3.5-4.35-3.5-7.36,0-3.54,1.12-6.77,3.35-9.69,2.51-3.28,5.67-4.92,9.48-4.92s6.41.83,8.24,2.5c1.83,1.67,2.74,4.17,2.74,7.51,0,3.54-1.03,6.75-3.09,9.62-2.37,3.32-5.47,4.98-9.29,4.98ZM543.64,439.71c-2.34,0-4.35,1.12-6.01,3.37-1.56,2.1-2.35,4.44-2.35,7,0,1.73.68,3.13,2.03,4.22,1.3,1.04,2.94,1.56,4.93,1.56,2.31,0,4.24-1.12,5.78-3.37,1.42-2.05,2.13-4.38,2.13-7,0-2.19-.49-3.71-1.48-4.56-.94-.81-2.62-1.22-5.02-1.22Z"/>
      <path class="cls-12" d="M530.73,439.53c-1.31,0-2.27-.65-2.89-1.94-.29-.61-.58-.98-.87-1.1-.22-.1-.79-.14-1.72-.14-1.83,0-3.94,1.33-6.33,4-3.35,3.73-5.02,7.22-5.02,10.47,0,1.48.53,2.75,1.59,3.81,1.06,1.06,2.33,1.59,3.81,1.59s2.89-.35,4.37-1.06c.52-.26,1.62-.92,3.31-2,1.13-.71,1.99-1.06,2.57-1.06.87,0,1.61.3,2.22.9.57.56.85,1.2.85,1.92,0,.8-.38,1.5-1.13,2.1-3.99,3.16-8.05,4.73-12.18,4.73-3.26,0-6.02-1.12-8.26-3.35-2.15-2.15-3.22-4.68-3.22-7.59,0-4.56,2.12-9.21,6.37-13.95,3.61-4.03,7.3-6.04,11.07-6.04.64,0,1.22.02,1.73.06.52.04.97.1,1.36.18.64-.58,1.41-.88,2.31-.88,1.48,0,2.39.8,2.74,2.39.25,1.14.37,2.48.37,4,0,.68-.21,1.3-.63,1.86-.55.73-1.35,1.1-2.39,1.1Z"/>
      <path class="cls-6" d="M581.49,460.1c-3.11,0-5.75-.86-7.94-2.57-2.33-1.84-3.5-4.21-3.5-7.13,0-3.43,1.12-6.56,3.35-9.38,2.51-3.18,5.67-4.77,9.48-4.77s6.41.81,8.24,2.42c1.83,1.61,2.74,4.04,2.74,7.28,0,3.43-1.03,6.54-3.09,9.32-2.37,3.22-5.47,4.83-9.29,4.83ZM582.89,440.35c-2.34,0-4.35,1.09-6.01,3.27-1.56,2.04-2.35,4.3-2.35,6.78,0,1.67.68,3.04,2.03,4.09,1.3,1.01,2.94,1.51,4.93,1.51,2.31,0,4.24-1.09,5.78-3.27,1.42-1.99,2.13-4.25,2.13-6.78,0-2.12-.49-3.59-1.48-4.42-.94-.79-2.62-1.18-5.02-1.18Z"/>
      <path class="cls-7" d="M571.03,456.56c-1.12.82-2.93,1.69-5.41,2.59-2.27.83-4.16,1.37-5.66,1.6-2.54.4-4.02-.7-4.43-3.31.03.21-.17-1.73-.6-5.82-.56-5.31-1.36-11.2-2.38-17.66-.11-.69,0-1.31.34-1.86.33-.55.81-.88,1.43-.97s1.18.06,1.67.48.79.98.9,1.67c1.02,6.47,1.82,12.45,2.41,17.95.06.99.2,2.49.41,4.51,2.45-.44,5.49-1.64,9.12-3.61.23-.12.45-.2.66-.24.65-.1,1.23.09,1.72.59.44.44.71.97.81,1.59.17,1.04-.17,1.87-.99,2.49Z"/>
      <path class="cls-1" d="M614.61,460.8c-.68,0-1.31-.27-1.87-.81-3.82-3.63-8.02-6.15-12.6-7.56.14,3.72.21,5.79.21,6.19,0,.73-.25,1.35-.76,1.85s-1.14.76-1.89.76-1.39-.25-1.89-.76-.76-1.12-.76-1.85c0-.96.01-2.39.04-4.31.02-1.91.04-3.35.04-4.31l.04-15.48c0-.83.25-1.59.74-2.26.64-.87,1.53-1.26,2.67-1.17,3.07.23,4.64.35,4.71.36,1.77.22,3.27.65,4.5,1.29,5.39,2.75,8.08,6.16,8.08,10.22,0,1.68-.56,3.15-1.69,4.44-1.13,1.29-2.82,2.37-5.08,3.25,3.34,1.89,5.86,3.82,7.55,5.79.44.51.66,1.08.66,1.71,0,.72-.26,1.33-.79,1.85-.53.52-1.16.78-1.89.78ZM602.48,436.67c-.1-.01-.84-.06-2.21-.15v10.18c.32.01.59.02.83.02,3.09,0,5.38-.39,6.87-1.17.64-.33,1.23-.77,1.77-1.32.54-.55.81-.97.81-1.25,0-1.43-.9-2.81-2.69-4.14-1.7-1.25-3.5-1.98-5.37-2.17Z"/>
    </g>
  </g>
</svg>