<?xml version="1.0" encoding="UTF-8"?>
<svg xmlns="http://www.w3.org/2000/svg" viewBox="0 0 1000 1000">
  <defs>
    <style>
      .cls-1 {
        fill: #3bc0c4;
      }

      .cls-2 {
        fill: #252525;
      }

      .cls-3 {
        fill: #0baeb6;
      }

      .cls-4 {
        stroke: #b0b0b1;
        stroke-width: 9.56px;
      }

      .cls-4, .cls-5, .cls-6 {
        fill: none;
        stroke-linecap: round;
        stroke-miterlimit: 10;
      }

      .cls-7 {
        fill: #b0b0b1;
      }

      .cls-8 {
        fill: #414141;
      }

      .cls-5 {
        stroke: #b0b0b0;
        stroke-width: 31.07px;
      }

      .cls-9 {
        fill: #c4c4c4;
      }

      .cls-10 {
        fill: #302e2f;
      }

      .cls-11 {
        fill: #253025;
      }

      .cls-6 {
        stroke: #4b4a4b;
        stroke-width: 17.93px;
      }

      .cls-12 {
        fill: #d6d6d6;
      }

      .cls-13 {
        fill: #00a1b3;
      }
    </style>
  </defs>
  <g id="Buttons">
    <path class="cls-10" d="M789.98,298.05c10.91,53.28,12.69,109.12,3.67,168.39l-33.26,9.68-6.53-173.17,36.12-4.89Z"/>
    <path class="cls-10" d="M208.8,298.05c-10.91,53.28-12.69,109.12-3.67,168.39l33.26,9.68,6.53-173.17-36.12-4.89Z"/>
    <path class="cls-12" d="M809.36,845.47v-289.35c-.14-7.9-1.5-22.19-2.72-27.91s-2.31-9.39-7.76-33.35c-5.45-23.96-6.94-42.61-10.48-69.16-3.54-26.55-2.41-71.93-2.22-82.91s3.18-40.03,3.81-44.75c.64-4.72.82-30.59.82-30.59,0,0-4.63-154.2-4.99-169.36-.64-14.25-8.67-44.2-34.13-63.67-25.46-19.47-44.52-18.38-69.98-18.92-22.84-.49-152.85-.98-179.33-1.07v-.02s-.84,0-2.37,0c-1.52,0-2.36,0-2.36,0v.02c-26.48.1-156.49.58-179.33,1.07-25.46.54-44.52-.54-69.98,18.92-25.46,19.47-33.49,49.42-34.13,63.67-.36,15.16-4.99,169.36-4.99,169.36,0,0,.18,25.87.82,30.59.64,4.72,3.63,33.76,3.81,44.75.18,10.98,1.32,56.36-2.22,82.91-3.54,26.55-5.04,45.2-10.48,69.16-5.45,23.96-6.53,27.64-7.76,33.35s-2.59,20.01-2.72,27.91v289.35s-1.68,45.74,39.84,84.82,94.35,45.88,130.42,49.15,94.21,6.51,134.92,6.11c1.43-.01,2.81-.03,4.17-.04,1.36.01,2.74.03,4.17.04,40.71.39,98.84-2.84,134.92-6.11,36.08-3.27,88.9-10.07,130.42-49.15s39.84-84.82,39.84-84.82Z"/>
    <path class="cls-5" d="M527.31,744.8c68.28,1.76,139.81-5.29,210.76-21.06"/>
    <rect class="cls-9" x="511.94" y="545.67" width="238.52" height="113.32" rx="56.66" ry="56.66" transform="translate(-63.75 74.82) rotate(-6.46)"/>
    <rect class="cls-9" x="498.08" y="835.81" width="26.99" height="45.85" rx="13.5" ry="13.5" transform="translate(497.91 -140.74) rotate(30)"/>
    <rect class="cls-9" x="541.28" y="831.41" width="26.99" height="115.95" rx="13.5" ry="13.5" transform="translate(519.02 -158.23) rotate(30)"/>
    <rect class="cls-9" x="604.15" y="826.14" width="26.99" height="115.95" rx="13.5" ry="13.5" transform="translate(524.81 -190.37) rotate(30)"/>
    <rect class="cls-9" x="667.5" y="817.61" width="26.99" height="115.95" rx="13.5" ry="13.5" transform="translate(529.03 -223.19) rotate(30)"/>
    <rect class="cls-9" x="709.54" y="882.88" width="26.99" height="45.84" rx="13.5" ry="13.5" transform="translate(549.77 -240.16) rotate(30)"/>
    <path class="cls-9" d="M748.09,107.42c-5.53-27.61-29.42-33.97-40.49-34.77s-58.87-1.59-73.69-1.99c-11.24-.3-87.53-1.06-123.69-1.41v-.18s-3.54.03-9.48.09c-5.94-.06-9.47-.09-9.47-.09v.18c-36.17.35-112.45,1.11-123.7,1.41-14.82.4-62.62,1.19-73.69,1.99-11.06.79-34.95,7.15-40.49,34.77-5.53,27.61-6.88,128.65-4.9,177.32,1.98,48.67,4.35,93.17,9.09,135.69,4.74,42.51,34.77,54.04,43.07,58.41,8.3,4.37,86.13,20.26,123.87,21.85,14.12.59,27.72,1.38,41.27,2.06l-.05.92c12.1.49,23.67.54,35,.34,11.33.2,22.9.14,35-.34l-.05-.92c13.56-.67,27.15-1.46,41.27-2.06,37.73-1.59,115.57-17.48,123.87-21.85,8.3-4.37,38.33-15.89,43.07-58.41,4.74-42.51,7.11-87.02,9.09-135.69,1.98-48.67.63-149.71-4.9-177.32Z"/>
    <path class="cls-2" d="M726.39,124.82c-5.08-25.23-27.04-31.04-37.2-31.77-10.17-.73-54.09-1.45-67.71-1.82-10.33-.28-80.43-.97-113.65-1.29v-.16s-3.26.03-8.71.08c-5.45-.05-8.7-.08-8.7-.08v.16c-33.23.32-103.33,1.01-113.66,1.29-13.61.36-57.54,1.09-67.71,1.82-10.17.73-32.12,6.53-37.2,31.77-5.08,25.23-6.32,117.55-4.5,162.02,1.82,44.47,3.99,85.13,8.35,123.98,4.36,38.85,31.95,49.37,39.57,53.37,7.62,3.99,79.14,18.52,113.81,19.97,12.98.54,25.47,1.26,37.92,1.88l-.05.84c11.12.44,21.75.5,32.16.31,10.41.18,21.05.13,32.16-.31l-.05-.84c12.46-.61,24.95-1.34,37.92-1.88,34.67-1.45,106.19-15.97,113.81-19.97,7.62-3.99,35.22-14.52,39.57-53.37,4.36-38.85,6.53-79.51,8.35-123.98,1.82-44.47.58-136.79-4.5-162.02Z"/>
    <path class="cls-4" d="M328.9,40.2c117.61-4.75,232.47-5.05,341.01,0"/>
    <rect class="cls-11" x="341.13" y="120.25" width="316.54" height="316.54"/>
    <circle class="cls-7" cx="697.63" cy="39.68" r="5.68"/>
    <circle class="cls-7" cx="766.43" cy="158.42" r="5.68"/>
    <circle class="cls-7" cx="232.3" cy="158.42" r="5.68"/>
    <circle class="cls-7" cx="301.3" cy="39.9" r="5.93"/>
    <circle class="cls-7" cx="432.13" cy="957.16" r="5.68"/>
    <path class="cls-7" d="M304.47,39.47h-6.7v-23.38c2.21-.14,4.44-.25,6.7-.31v23.69Z"/>
    <path class="cls-7" d="M234.91,155.06v6.7h-22.55c.01-2.35.13-4.54.21-6.7h22.35Z"/>
    <path class="cls-7" d="M765.09,155.06v6.7s22.55,0,22.55,0c-.01-2.35-.13-4.54-.21-6.7h-22.35Z"/>
    <path class="cls-7" d="M428.78,983.97l6.7.3v-24.8c-2.35.01-4.54.15-6.7.23v24.27Z"/>
    <line class="cls-6" x1="647.05" y1="738.53" x2="734.13" y2="726.16"/>
    <line class="cls-6" x1="529.82" y1="746.28" x2="617.65" y2="741.55"/>
    <circle class="cls-3" cx="696.42" cy="596.41" r="41.66"/>
    <circle class="cls-3" cx="570.62" cy="610.3" r="41.66"/>
    <circle class="cls-3" cx="347.18" cy="648.77" r="73.75"/>
    <circle class="cls-13" cx="347.18" cy="648.77" r="51.02"/>
    <rect class="cls-1" x="378.51" y="632.24" width="60.31" height="32.54" rx="16.27" ry="16.27"/>
    <rect class="cls-1" x="254.76" y="632.24" width="60.31" height="32.54" rx="16.27" ry="16.27"/>
    <rect class="cls-1" x="316.43" y="570.3" width="60.31" height="32.54" rx="16.27" ry="16.27" transform="translate(-239.98 933.15) rotate(-90)"/>
    <rect class="cls-1" x="316.43" y="693.64" width="60.31" height="32.54" rx="16.27" ry="16.27" transform="translate(-363.32 1056.5) rotate(-90)"/>
  </g>
  <g id="TEXT">
    <g>
      <path class="cls-8" d="M307.91,828.58l-3.22,2.9c-3.33-3.01-5.91-7.74-7.74-14.18-2.47-8.38-4.14-13.38-5-14.99-1.29,1.08-2.9,3.38-4.83,6.93-2.36,4.19-4.03,6.93-5,8.22h-6.93c-2.9-7.2-5.96-13.11-9.19-17.73-1.83,2.9-2.74,6.99-2.74,12.25,0,1.51.08,3.84.24,7.01.16,3.17.24,5.51.24,7.01,0,5.27-1.08,9.19-3.22,11.76-1.4,0-2.85-.97-4.35-2.9,0-1.93-.48-5.61-1.45-11.04-.97-5.42-1.45-8.62-1.45-9.59,0-3.55,1.13-9.83,3.38-18.86,2.04-8.7,3.6-14.02,4.67-15.95,3.97,1.72,7.36,5.64,10.15,11.76,4.62,9.89,7.25,15.26,7.9,16.12,1.93-2.79,3.81-6.45,5.64-10.96,1.61-3.76,3.17-7.57,4.67-11.44.21-.54.11-1.13-.32-1.77l-.97-1.77c.64-1.5,1.72-3.81,3.22-6.93h4.51c2.47,2.04,3.71,4.78,3.71,8.22,0,16.87,2.68,30.78,8.06,41.74v4.19Z"/>
      <path class="cls-8" d="M341.75,822.78c-5.48,1.72-9.24,2.58-11.28,2.58-7.84,0-13.92-2.58-18.21-7.74-3.65-4.51-5.48-9.99-5.48-16.44,0-3.55,2.26-8.84,6.77-15.87,4.51-7.04,8.06-10.56,10.64-10.56s4.97,1.18,6.85,3.54c1.88,2.37,2.82,4.94,2.82,7.74,0,4.51-2.85,8.81-8.54,12.89-3.98,2.36-7.9,4.67-11.76,6.93.54,4.08,3.55,7.9,9.02,11.44,4.73,3.12,8.65,4.67,11.76,4.67,1.61-.64,2.74-.97,3.38-.97,1.4,0,2.74.59,4.03,1.77ZM327.09,787.64l-2.74-2.74c-1.4.65-3.04,2.12-4.92,4.43-1.88,2.31-3.04,4.16-3.46,5.56,3.97-1.4,7.68-3.81,11.12-7.25Z"/>
      <path class="cls-8" d="M367.05,812.62c0,12.03-.91,20.31-2.74,24.82-2.15,5.48-4.94,10.47-8.38,14.99-4.62,6.02-9.02,9.02-13.21,9.02-1.4,0-3.2-1.16-5.4-3.46-2.2-2.31-3.09-4.33-2.66-6.04.32.11,1.61.64,3.87,1.61,1.72.75,3.11,1.13,4.19,1.13,4.73,0,8.76-3.33,12.09-9.99,2.47-4.73,4.46-10.9,5.96-18.53.64-3.44,1.23-6.87,1.77-10.31l-2.9-2.9c-2.9,2.26-6.29,3.38-10.15,3.38-2.69,0-4.89-1.56-6.61-4.67-1.18-2.47-1.77-4.83-1.77-7.09,0-3.87,1.45-8.86,4.35-14.99,3.76-7.63,8.11-11.44,13.05-11.44,1.07,0,1.93.22,2.58.64.64.43,1.07.65,1.29.65v5.16c-1.72.22-3.98,1.13-6.77,2.74-5.16,6.66-7.79,11.23-7.9,13.7v7.74c.21,0,.59.14,1.13.4.54.27,1.34.4,2.42.4,1.5,0,2.85-.97,4.03-2.9.21-1.93,1.93-6.18,5.16-12.73h6.29c0,2.15.05,5.62.16,10.39.11,4.78.16,7.55.16,8.3Z"/>
      <path class="cls-8" d="M400.57,827.45c-.32,0-1.18.22-2.58.64-1.4.43-2.31.64-2.74.64-1.18-2.36-2.63-6.87-4.35-13.54-.11.11-2.31,1.93-6.61,5.48-3.01,2.36-5.05,3.55-6.12,3.55-3.01,0-5.05-1.18-6.12-3.55-1.72-3.65-2.69-5.58-2.9-5.8.11-.43.59-3.12,1.45-8.06.54-3.44,1.29-5.8,2.26-7.09,3.44-4.51,9.45-8.22,18.05-11.12.97.43,2.2,1.18,3.71,2.26.75,8.38,1.4,14.56,1.93,18.53.97,6.66,2.31,12.68,4.03,18.05ZM387.03,809.24v-13.05h-4.03c-2.04,1.61-3.92,4.11-5.64,7.49-1.72,3.38-2.58,6.1-2.58,8.14,0,.97.21,2.09.64,3.38.43,1.29.64,2.04.64,2.26h3.87c1.18-.65,2.68-1.93,4.51-3.87,1.83-1.93,2.68-3.38,2.58-4.35Z"/>
    </g>
    <g>
      <path class="cls-8" d="M322.08,910.56c0,1.18-.64,2.79-1.93,4.83-1.29,2.04-2.53,3.33-3.71,3.87-.86-.75-3.28-1.93-7.25-3.55-4.51-1.72-8.06-3.38-10.64-5-4.19-2.58-7.52-5.69-9.99-9.35-.86,1.4-1.29,3.28-1.29,5.64v5.64c0,4.41-1.27,7.84-3.8,10.31-2-1.5-3.22-3.49-3.64-5.96-.63-3.54-1.06-5.53-1.27-5.96.43-.75.75-2.68.97-5.8l-.97-1.29.97-1.77c0-2.47-.32-4.19-.97-5.16-.11-4.51.16-11.33.81-20.47.75-3.87,5.42-10.58,14.02-20.14.97-.43,2.15-.64,3.55-.64,3.87,0,6.71,2.09,8.54,6.29,1.07,2.47,1.61,4.83,1.61,7.09,0,3.54-.22,5.75-.64,6.61-.86,1.93-3.01,5.37-6.45,10.31-2.9,4.08-4.35,6.66-4.35,7.74,0,1.18.43,2.34,1.29,3.46.86,1.13,1.77,2.18,2.74,3.14,2.58,3.54,8.27,6.18,17.08,7.9,2.36,1.51,4.13,2.26,5.32,2.26ZM300.48,871.08c0-2.26-.53-3.97-1.59-5.16h-4.14c-3.29,2.58-5.31,6.77-6.05,12.57-.32,4.3-.64,8.54-.95,12.73,2.23-2.36,4.67-5.37,7.32-9.02,3.61-5.05,5.41-8.76,5.41-11.12Z"/>
      <path class="cls-8" d="M353.51,915.24c-.32,0-1.18.22-2.58.64-1.4.43-2.31.64-2.74.64-1.18-2.36-2.63-6.87-4.35-13.54-.11.11-2.31,1.93-6.61,5.48-3.01,2.36-5.05,3.55-6.12,3.55-3.01,0-5.05-1.18-6.12-3.55-1.72-3.65-2.69-5.58-2.9-5.8.11-.43.59-3.12,1.45-8.06.54-3.44,1.29-5.8,2.26-7.09,3.44-4.51,9.45-8.22,18.05-11.12.97.43,2.2,1.18,3.71,2.26.75,8.38,1.4,14.56,1.93,18.53.97,6.66,2.31,12.68,4.03,18.05ZM339.97,897.03v-13.05h-4.03c-2.04,1.61-3.92,4.11-5.64,7.49-1.72,3.38-2.58,6.1-2.58,8.14,0,.97.21,2.09.64,3.38.43,1.29.64,2.04.64,2.26h3.87c1.18-.65,2.68-1.93,4.51-3.87,1.83-1.93,2.68-3.38,2.58-4.35Z"/>
      <path class="cls-8" d="M397.66,860.77c-4.19,2.26-9.35,4.57-15.47,6.93-2.15.86-3.38,3.28-3.71,7.25-.11,2.79-.22,5.59-.32,8.38-1.72,9.02-4.3,22.72-7.74,41.1-.32-1.4-1.18-4.19-2.58-8.38-1.18-3.44-1.77-5.75-1.77-6.93,0-1.07.83-5.42,2.5-13.05,1.66-7.63,2.55-11.98,2.66-13.05v-13.38c-3.87-.86-9.35-2.15-16.44-3.87v-7.25c.21,0,.78-.43,1.69-1.29.91-.86,1.96-1.29,3.14-1.29,1.29,0,2.09.22,2.42.64.65,1.08,1.02,1.61,1.13,1.61,1.4.11,5.53.16,12.41.16,10.85,0,17.62-1.23,20.31-3.71l1.77,1.45v4.67Z"/>
    </g>
  </g>
</svg>