<?xml version="1.0" encoding="UTF-8"?>
<svg id="Layer_1" data-name="Layer 1" xmlns="http://www.w3.org/2000/svg" viewBox="0 0 1000 1000">
  <defs>
    <style>
      .cls-1 {
        fill: #adc3e5;
      }

      .cls-2 {
        fill: #f79571;
      }

      .cls-3 {
        stroke: #eb9cc4;
      }

      .cls-3, .cls-4 {
        fill: none;
        stroke-miterlimit: 10;
        stroke-width: 4px;
      }

      .cls-5 {
        fill: #66686a;
      }

      .cls-6 {
        fill: #a4a3a4;
      }

      .cls-7 {
        fill: #7d7f82;
      }

      .cls-8 {
        fill: #c6c6c5;
      }

      .cls-9 {
        fill: #4f4f4f;
      }

      .cls-10 {
        fill: #b0b0b0;
      }

      .cls-4 {
        stroke: #7eced0;
      }

      .cls-11 {
        fill: #bfbfbf;
      }

      .cls-12 {
        fill: #222323;
      }

      .cls-13 {
        fill: #b7b7b7;
      }
    </style>
  </defs>
  <rect class="cls-6" x="265.96" y="343.96" width="461.45" height="221.51"/>
  <path class="cls-5" d="M301.38,313.49l-149.32-7.3,13.53-97.79c1.85-27.91,110.31-23.96,118.1-3.37l17.69,108.47Z"/>
  <path class="cls-5" d="M853.24,313.49l-149.32-7.3,13.53-97.79c1.85-27.91,110.31-23.96,118.1-3.37l17.69,108.47Z"/>
  <path class="cls-13" d="M323.74,335.36l-200.05-7.3,18.13-97.79c16.59-37.91,139.91-39.15,158.23-3.37l23.7,108.47Z"/>
  <path class="cls-13" d="M878.61,335.36l-200.05-7.3,18.13-97.79c16.59-37.91,139.91-39.15,158.23-3.37l23.7,108.47Z"/>
  <rect class="cls-8" x="312.37" y="294.95" width="374.49" height="221.51"/>
  <rect class="cls-13" x="325.76" y="308.95" width="347.71" height="234.49"/>
  <path class="cls-10" d="M364.51,497.01L59.52,398.06l-40.16,279.06c-1.65,7.61-2.53,15.51-2.53,23.62,0,61.16,49.58,110.73,110.73,110.73,41.2,0,77.14-22.5,96.21-55.88h0s140.73-258.59,140.73-258.59Z"/>
  <path class="cls-10" d="M638.56,502.31l301.91-104.25,40.16,279.06c1.65,7.61,2.53,15.51,2.53,23.62,0,61.16-49.58,110.73-110.73,110.73-41.2,0-77.14-22.5-96.21-55.88h0s-137.66-253.29-137.66-253.29Z"/>
  <circle class="cls-11" cx="778.58" cy="418.46" r="163.19"/>
  <circle class="cls-11" cx="221.44" cy="418.46" r="163.19"/>
  <path class="cls-10" d="M330.13,373.89h-57.08c-3.33,0-6.04-2.7-6.04-6.04v-57.08c0-6.8-5.51-12.3-12.3-12.3h-66.53c-6.8,0-12.3,5.51-12.3,12.3v57.08c0,3.33-2.7,6.04-6.04,6.04h-57.08c-6.8,0-12.3,5.51-12.3,12.3v66.53c0,6.8,5.51,12.3,12.3,12.3h57.08c3.33,0,6.04,2.7,6.04,6.04v57.08c0,6.8,5.51,12.3,12.3,12.3h66.53c6.8,0,12.3-5.51,12.3-12.3v-57.08c0-3.33,2.7-6.04,6.04-6.04h57.08c6.8,0,12.3-5.51,12.3-12.3v-66.53c0-6.8-5.51-12.3-12.3-12.3Z"/>
  <path class="cls-9" d="M247.34,462.04h0s0,0,0,0c-.45-.58-.98-1.09-1.57-1.51l-16.41-15.77c-4.51-4.34-11.64-4.34-16.16-.02l-17.42,16.67c-1.33,1.37-2.14,3.23-2.14,5.29v27.46c0,4.19,3.4,7.59,7.59,7.59h40.14c4.19,0,7.59-3.4,7.59-7.59v-27.46c0-1.76-.6-3.37-1.6-4.65Z"/>
  <path class="cls-9" d="M247.34,378.67h0s0,0,0,0c-.45.58-.98,1.09-1.57,1.51l-16.41,15.77c-4.51,4.34-11.64,4.34-16.16.02l-17.42-16.67c-1.33-1.37-2.14-3.23-2.14-5.29v-27.46c0-4.19,3.4-7.59,7.59-7.59h40.14c4.19,0,7.59,3.4,7.59,7.59v27.46c0,1.76-.6,3.37-1.6,4.65Z"/>
  <path class="cls-9" d="M262.96,394.3h0s0,0,0,0c-.58.45-1.09.98-1.51,1.57l-15.77,16.41c-4.34,4.51-4.34,11.64-.02,16.16l16.67,17.42c1.37,1.33,3.23,2.14,5.29,2.14h27.46c4.19,0,7.59-3.4,7.59-7.59v-40.14c0-4.19-3.4-7.59-7.59-7.59h-27.46c-1.76,0-3.37.6-4.65,1.6Z"/>
  <path class="cls-9" d="M179.59,394.3h0s0,0,0,0c.58.45,1.09.98,1.51,1.57l15.77,16.41c4.34,4.51,4.34,11.64.02,16.16l-16.67,17.42c-1.37,1.33-3.23,2.14-5.29,2.14h-27.46c-4.19,0-7.59-3.4-7.59-7.59v-40.14c0-4.19,3.4-7.59,7.59-7.59h27.46c1.76,0,3.37.6,4.65,1.6Z"/>
  <path class="cls-10" d="M900.27,373.89h-68.08c-3.33,0-6.04-2.7-6.04-6.04v-59.08c0-6.8-5.51-12.3-12.3-12.3h-66.53c-6.8,0-12.3,5.51-12.3,12.3v59.08c0,3.33-2.7,6.04-6.04,6.04h-65.08c-6.8,0-12.3,5.51-12.3,12.3v66.53c0,6.8,5.51,12.3,12.3,12.3h65.08c3.33,0,6.04,2.7,6.04,6.04v60.08c0,6.8,5.51,12.3,12.3,12.3h66.53c6.8,0,12.3-5.51,12.3-12.3v-60.08c0-3.33,2.7-6.04,6.04-6.04h68.08c6.8,0,12.3-5.51,12.3-12.3v-66.53c0-6.8-5.51-12.3-12.3-12.3Z"/>
  <circle class="cls-9" cx="779.58" cy="341.7" r="35.15"/>
  <circle class="cls-9" cx="779.58" cy="497.45" r="35.15"/>
  <circle class="cls-9" cx="695.71" cy="419.57" r="35.15"/>
  <circle class="cls-9" cx="864.46" cy="419.57" r="35.15"/>
  <path class="cls-2" d="M864.46,398.42c11.66,0,21.15,9.49,21.15,21.15s-9.49,21.15-21.15,21.15-21.15-9.49-21.15-21.15,9.49-21.15,21.15-21.15M864.46,394.72c-13.73,0-24.85,11.13-24.85,24.85s11.13,24.85,24.85,24.85,24.85-11.13,24.85-24.85-11.13-24.85-24.85-24.85h0Z"/>
  <polygon class="cls-4" points="755.31 355.87 803.86 355.87 779.58 314.86 755.31 355.87"/>
  <rect class="cls-3" x="677.02" y="400.76" width="37.38" height="37.38"/>
  <polygon class="cls-1" points="800.71 479.15 797.88 476.32 779.58 494.62 761.29 476.32 758.46 479.15 776.75 497.45 758.46 515.74 761.29 518.57 779.58 500.28 797.88 518.57 800.71 515.74 782.41 497.45 800.71 479.15"/>
  <path class="cls-12" d="M533.61,471.9v22.31c0,4.59,4.4,7.93,8.89,6.75l42.71-11.16c7.02-1.83,7.02-11.67,0-13.51l-42.71-11.16c-4.49-1.17-8.89,2.17-8.89,6.75Z"/>
  <path class="cls-9" d="M537.42,471.14v23.83c0,1.62,1.54,2.81,3.11,2.39l45.03-11.92c2.45-.65,2.45-4.13,0-4.78l-45.03-11.92c-1.57-.42-3.11.77-3.11,2.39Z"/>
  <rect class="cls-12" x="415.02" y="467.72" width="49.47" height="30.66" rx="5.56" ry="5.56"/>
  <rect class="cls-9" x="418.57" y="471.44" width="42.38" height="23.24" rx="2.35" ry="2.35"/>
  <g>
    <path class="cls-7" d="M447.57,360.37v3.24h-16.98v-3.24h3.55c.81,0,1.47-.54,1.47-1.35v-17.37c0-.89-.69-1.43-1.54-1.43h-3.47v-3.28h30.06v10.27h-3.36c-.35-3.28-.54-6.98-4.63-6.98h-10.42v7.83h4.01c1.62,0,2.62-1.08,2.62-2.35v-2.08h3.24v12.43h-3.28v-1.43c0-1.74-.5-3.16-2.7-3.16h-3.9v7.6c0,.96.66,1.31,1.62,1.31h3.7Z"/>
    <path class="cls-7" d="M480.15,335.95c9.99,0,16.55,5.6,16.55,14.08s-6.48,14.28-16.94,14.28c-9.3,0-16.59-5.36-16.59-14.05s5.87-14.32,16.98-14.32ZM479.8,360.92c7.91,0,9.42-5.63,9.42-10.77s-1.35-10.84-9.18-10.84-9.61,5.87-9.61,10.88,1.54,10.73,9.38,10.73Z"/>
    <path class="cls-7" d="M504.31,359.02v-17.44c0-.62-.54-1.35-1.62-1.35h-3.4v-3.28h11.54l15.75,19.06v-14.36c0-1.2-.7-1.43-1.85-1.43h-3.05v-3.28h13.89v3.28h-3.4c-.93,0-1.58.39-1.58,1.39v22h-5.44l-16.83-19.87v15.32c0,.96.66,1.31,1.62,1.31h3.36v3.24h-14.01v-3.24h3.55c.81,0,1.47-.54,1.47-1.35Z"/>
    <path class="cls-7" d="M544.18,360.37h3.47c1.62,0,1.5-1.12,1.5-2.59v-4.75l-9.34-11.77c-.73-.93-1.12-1.04-2.66-1.04h-1.2v-3.28h15.47v3.28h-3.28c-.69,0-1,.31-1,.81,0,1.12,3.24,4.36,6.45,8.45,3.51-4.09,6.44-7.33,6.44-8.45,0-.73-.77-.81-2.2-.81h-1.81v-3.28h13.04v3.28h-1.2c-1.7,0-2.08.15-3.59,2.01l-8.45,10.46v6.33c0,1.16.77,1.35,1.85,1.35h3.16v3.24h-16.67v-3.24Z"/>
  </g>
  <path class="cls-7" d="M500.41,419.49l10.47,2.66,3.85.94-5.98,4.66-3.81-1.09-26.73-7.37-3.11-.82,7.97-4.99c6.67-4.17,12.38-4.25,17.52-3.12l.09.02c3.3.73,5.45,1.89,5.05,3.76l19.18,1.03-5.65,4.4-17.13-1.29-1.72,1.22ZM494.7,418.04l1.15-.78c2.68-1.82,1.36-2.63-.88-3.17l-.09-.02c-2.19-.52-4.54-.57-7.13,1.09l-1.23.8,8.18,2.08Z"/>
  <g>
    <path class="cls-7" d="M502.58,426.51l-2.42-14.54-.72-.18-.25,9.65-.06,4.1-6.36-1.77.09-3.8.39-28.55.02-4.53,8.16,1.62c6.15,1.22,8.95,5.84,8.56,14.11v.11c-.21,4.3-1.37,7.19-3.45,8.58l3,17.14-6.96-1.94ZM500.33,404.77c.28.07.54.1.78.1h0c.9,0,1.83-.43,1.94-3.62v-.11c.11-3.05-.69-4.59-2.59-5l-.61-.13-.22,8.59.7.17Z"/>
    <path class="cls-13" d="M493.78,387.5l7.56,1.5c6.96,1.38,8.46,7.19,8.16,13.59v.11c-.19,3.89-1.17,7.01-3.5,8.36l2.93,16.69-5.89-1.64-2.42-14.55-1.65-.41-.26,10.28-.05,3.46-5.36-1.49.08-3.41.39-28.55.02-3.93M501.1,405.37c1.89,0,2.37-1.81,2.44-4.1v-.11c.09-2.64-.42-4.96-2.99-5.51l-1.2-.26-.24,9.6,1.1.26c.33.08.62.11.89.11M492.78,386.28v1.21s-.02,3.93-.02,3.93l-.39,28.54-.08,3.4-.02.78.75.21,5.36,1.49,1.25.35.02-1.3.05-3.46.2-8.02,2.14,12.85.1.63.61.17,5.89,1.64,1.53.43-.27-1.56-2.81-16.05c2.05-1.54,3.19-4.49,3.4-8.78v-.11c.41-8.56-2.52-13.34-8.95-14.62l-7.56-1.5-1.19-.24h0ZM500.14,404.21l.19-7.58h.02c1.16.25,2.33.98,2.2,4.5v.11c-.11,3.14-.98,3.14-1.45,3.14-.19,0-.42-.03-.66-.09l-.31-.07h0Z"/>
  </g>
  <g>
    <path class="cls-7" d="M459.33,442.7c1.81,0,2.55-1.27,2.55-3.54,0-2.4-.65-3.05-2.25-3.05-1.1,0-1.49.54-1.49,1.62v11.78c0,.41,0,.63-.58.63h-1.92c-.45,0-.6-.09-.6-.63v-11.54c0-1.84.91-3.48,4.84-3.48,3.22,0,5.21,1.21,5.21,4.15s-1.15,4.19-3.22,4.84l1.79,2.68c1.62,2.42,2.23,2.72,2.23,3.37,0,.52-.63.76-1.27.76-.97,0-1.92-.39-3.46-2.51-.67-.93-1.73-2.59-2.35-4.21-.11-.28-.13-.45-.13-.54,0-.3.13-.32.26-.32h.41Z"/>
    <path class="cls-7" d="M476.59,448.19c0,1.02-.91,2.14-4.62,2.14s-4.41-1.77-4.41-3.61c0-2.29,1.15-3.24,4.04-3.24,1.36,0,2.03.09,2.03.09v-.89c0-1.47-.41-1.94-1.34-1.94-.67,0-1.04.22-1.75.89-.82.76-1.12.89-1.43.89-.52,0-.86-.43-.86-1.04,0-1.23,1.38-2.12,4.06-2.12s4.28.28,4.28,3.15v5.68ZM473.63,444.77c-.37-.06-.82-.09-1.27-.09-1.15,0-1.75.84-1.75,2.29,0,1.08.43,1.97,1.75,1.97.86,0,1.27-.24,1.27-.86v-3.31Z"/>
    <path class="cls-7" d="M482.53,446.98c0,.91.15,1.43.89,1.43.52,0,1.17-.15,1.38-.15.24,0,.28.28.28.43,0,.65-.93,1.62-3.24,1.62-1.66,0-2.27-.95-2.27-2.51v-6.68c-.91,0-1.04-.02-1.04-.6,0-.48.69-.93,1.64-2.53.86-1.45.93-2.14,1.66-2.14.56,0,.69.17.69.6v3.09h2.18c.26,0,.37.13.37.39,0,.45-.09,1.19-.63,1.19h-1.92v5.86Z"/>
    <path class="cls-7" d="M490.65,450.35c-2.4,0-4.08-.71-4.08-2.05,0-.6.11-1.1.91-1.1s1.86,1.77,3.59,1.77c.91,0,1.4-.35,1.4-1.17s-.17-1.01-2.51-1.86c-2.46-.89-3.24-1.53-3.24-3.33,0-2.12,1.45-3.26,4-3.26,2.31,0,3.76.56,3.76,1.84,0,.78-.41,1.1-.84,1.1-.82,0-1.73-1.56-3.37-1.56-.71,0-1.02.37-1.02.95,0,.89.54,1.15,2.25,1.71,3.07,1.02,3.44,1.66,3.44,3.39,0,2.1-1.4,3.56-4.28,3.56Z"/>
    <path class="cls-7" d="M500.4,446.98c0,.91.15,1.43.89,1.43.52,0,1.17-.15,1.38-.15.24,0,.28.28.28.43,0,.65-.93,1.62-3.24,1.62-1.66,0-2.27-.95-2.27-2.51v-6.68c-.91,0-1.04-.02-1.04-.6,0-.48.69-.93,1.64-2.53.86-1.45.93-2.14,1.66-2.14.56,0,.69.17.69.6v3.09h2.18c.26,0,.37.13.37.39,0,.45-.09,1.19-.63,1.19h-1.92v5.86Z"/>
    <path class="cls-7" d="M513.49,448.19c0,1.02-.91,2.14-4.62,2.14s-4.41-1.77-4.41-3.61c0-2.29,1.14-3.24,4.04-3.24,1.36,0,2.03.09,2.03.09v-.89c0-1.47-.41-1.94-1.34-1.94-.67,0-1.04.22-1.75.89-.82.76-1.12.89-1.43.89-.52,0-.86-.43-.86-1.04,0-1.23,1.38-2.12,4.06-2.12s4.28.28,4.28,3.15v5.68ZM510.53,444.77c-.37-.06-.82-.09-1.28-.09-1.14,0-1.75.84-1.75,2.29,0,1.08.43,1.97,1.75,1.97.86,0,1.28-.24,1.28-.86v-3.31Z"/>
    <path class="cls-7" d="M519.43,446.98c0,.91.15,1.43.89,1.43.52,0,1.17-.15,1.38-.15.24,0,.28.28.28.43,0,.65-.93,1.62-3.24,1.62-1.66,0-2.27-.95-2.27-2.51v-6.68c-.91,0-1.04-.02-1.04-.6,0-.48.69-.93,1.64-2.53.86-1.45.93-2.14,1.66-2.14.56,0,.69.17.69.6v3.09h2.18c.26,0,.37.13.37.39,0,.45-.09,1.19-.63,1.19h-1.92v5.86Z"/>
    <path class="cls-7" d="M525.37,437.67c-1.27,0-1.6-.84-1.6-1.62,0-.86.26-1.69,1.6-1.69,1.12,0,1.58.73,1.58,1.69,0,.86-.32,1.62-1.58,1.62ZM526.93,449.53c0,.39,0,.61-.56.61h-1.84c-.43,0-.58-.09-.58-.61v-9.4c0-.37.09-.58.43-.58h1.99c.41,0,.56.09.56.58v9.4Z"/>
    <path class="cls-7" d="M534.16,450.35c-2.53,0-4.93-.82-4.93-5.64s2.29-5.36,4.97-5.36,4.88.58,4.88,5.36-2.38,5.64-4.93,5.64ZM536,444.32c0-3-.54-3.59-1.84-3.59s-1.86.58-1.86,3.54v1.21c0,2.55.67,3.48,1.86,3.48s1.84-.93,1.84-3.44v-1.21Z"/>
    <path class="cls-7" d="M550.78,449.53c0,.39,0,.61-.56.61h-1.88c-.41,0-.54-.09-.54-.61v-7.17c0-.93-.5-1.38-1.53-1.38s-1.38.15-1.75.39v8.17c0,.39,0,.61-.58.61h-1.84c-.41,0-.56-.09-.56-.61v-9.35c0-.52.28-.58.56-.58.43,0,1.02.28,1.71.28.54,0,1.73-.52,3.33-.52,3.02,0,3.65,1.25,3.65,2.85v7.32Z"/>
  </g>
</svg>