<?xml version="1.0" encoding="UTF-8"?>
<svg id="Layer_1" data-name="Layer 1" xmlns="http://www.w3.org/2000/svg" viewBox="0 0 1000 1000">
  <defs>
    <style>
      .cls-1 {
        fill: #adc3e5;
      }

      .cls-2 {
        fill: #f79571;
      }

      .cls-3 {
        fill: #181818;
      }

      .cls-4 {
        stroke: #eb9cc4;
      }

      .cls-4, .cls-5 {
        fill: none;
        stroke-miterlimit: 10;
        stroke-width: 4px;
      }

      .cls-6 {
        fill: #2b2b2b;
      }

      .cls-7 {
        fill: #121212;
      }

      .cls-8 {
        fill: #232323;
      }

      .cls-9 {
        fill: #515251;
      }

      .cls-10 {
        fill: #474745;
      }

      .cls-11 {
        fill: #4f5251;
      }

      .cls-12 {
        fill: #7d7f82;
      }

      .cls-13 {
        fill: #242625;
      }

      .cls-14 {
        fill: #662726;
      }

      .cls-15 {
        fill: #3a3a3a;
      }

      .cls-16 {
        fill: #4f4f4f;
      }

      .cls-17 {
        fill: #212121;
      }

      .cls-5 {
        stroke: #7eced0;
      }
    </style>
  </defs>
  <path class="cls-17" d="M638.02,502.29l297.94-103.88,41.55,277.36c1.64,7.56,2.51,15.4,2.51,23.44,0,60.69-49.2,109.9-109.9,109.9-40.88,0-76.55-22.33-95.48-55.45h0s-136.62-251.37-136.62-251.37Z"/>
  <path class="cls-17" d="M365.03,497.04L57.26,398.83l-34.76,276.95c-1.64,7.56-2.51,15.4-2.51,23.44,0,60.69,49.2,109.9,109.9,109.9,40.88,0,76.55-22.33,95.48-55.45h0s139.67-256.63,139.67-256.63Z"/>
  <circle class="cls-15" cx="362.03" cy="573.17" r="99.76"/>
  <circle class="cls-15" cx="633.47" cy="573.17" r="99.76"/>
  <rect class="cls-3" x="267.23" y="345.14" width="457.96" height="254.51"/>
  <path class="cls-10" d="M286.59,314.9l-132.65-7.25,12.02-97.05c1.64-27.7,97.99-23.78,104.92-3.35l15.71,107.65Z"/>
  <path class="cls-10" d="M852.18,314.9l-135.77-7.25,12.3-97.05c1.68-27.7,100.3-23.78,107.38-3.35l16.08,107.65Z"/>
  <path class="cls-13" d="M306.46,336.61l-177.72-7.25,16.1-97.05c14.74-37.62,124.29-38.86,140.57-3.35l21.05,107.65Z"/>
  <path class="cls-13" d="M875.24,336.61l-181.9-7.25,16.48-97.05c15.08-37.62,127.21-38.86,143.87-3.35l21.55,107.65Z"/>
  <rect class="cls-9" x="313.29" y="296.5" width="371.66" height="219.84"/>
  <rect class="cls-17" x="326.58" y="310.4" width="345.08" height="268.29"/>
  <circle class="cls-6" cx="787.6" cy="401.02" r="148.37"/>
  <circle class="cls-6" cx="205.62" cy="401.02" r="148.37"/>
  <path class="cls-8" d="M313.48,356.29h-56.64c-3.31,0-5.99-2.68-5.99-5.99v-56.64c0-6.74-5.47-12.21-12.21-12.21h-66.03c-6.74,0-12.21,5.47-12.21,12.21v56.64c0,3.31-2.68,5.99-5.99,5.99h-56.64c-6.74,0-12.21,5.47-12.21,12.21v66.03c0,6.74,5.47,12.21,12.21,12.21h56.64c3.31,0,5.99,2.68,5.99,5.99v56.64c0,6.74,5.47,12.21,12.21,12.21h66.03c6.74,0,12.21-5.47,12.21-12.21v-56.64c0-3.31,2.68-5.99,5.99-5.99h56.64c6.74,0,12.21-5.47,12.21-12.21v-66.03c0-6.74-5.47-12.21-12.21-12.21Z"/>
  <path class="cls-16" d="M231.31,443.78h0s0,0,0,0c-.45-.57-.97-1.08-1.56-1.5l-16.28-15.65c-4.48-4.3-11.55-4.31-16.04-.02l-17.29,16.54c-1.32,1.36-2.13,3.21-2.13,5.25v27.25c0,4.16,3.37,7.53,7.53,7.53h39.83c4.16,0,7.53-3.37,7.53-7.53v-27.25c0-1.74-.6-3.34-1.59-4.62Z"/>
  <path class="cls-16" d="M231.31,361.04h0s0,0,0,0c-.45.57-.97,1.08-1.56,1.5l-16.28,15.65c-4.48,4.3-11.55,4.31-16.04.02l-17.29-16.54c-1.32-1.36-2.13-3.21-2.13-5.25v-27.25c0-4.16,3.37-7.53,7.53-7.53h39.83c4.16,0,7.53,3.37,7.53,7.53v27.25c0,1.74-.6,3.34-1.59,4.62Z"/>
  <path class="cls-16" d="M246.82,376.55h0s0,0,0,0c-.57.45-1.08.97-1.5,1.56l-15.65,16.28c-4.3,4.48-4.31,11.55-.02,16.04l16.54,17.29c1.36,1.32,3.21,2.13,5.25,2.13h27.25c4.16,0,7.53-3.37,7.53-7.53v-39.83c0-4.16-3.37-7.53-7.53-7.53h-27.25c-1.74,0-3.34.6-4.62,1.59Z"/>
  <path class="cls-16" d="M164.08,376.55h0s0,0,0,0c.57.45,1.08.97,1.5,1.56l15.65,16.28c4.3,4.48,4.31,11.55.02,16.04l-16.54,17.29c-1.36,1.32-3.21,2.13-5.25,2.13h-27.25c-4.16,0-7.53-3.37-7.53-7.53v-39.83c0-4.16,3.37-7.53,7.53-7.53h27.25c1.74,0,3.34.6,4.62,1.59Z"/>
  <path class="cls-8" d="M907.37,355.79h-67.56c-3.31,0-5.99-2.68-5.99-5.99v-58.63c0-6.74-5.47-12.21-12.21-12.21h-66.03c-6.74,0-12.21,5.47-12.21,12.21v58.63c0,3.31-2.68,5.99-5.99,5.99h-64.58c-6.74,0-12.21,5.47-12.21,12.21v66.03c0,6.74,5.47,12.21,12.21,12.21h64.58c3.31,0,5.99,2.68,5.99,5.99v59.62c0,6.74,5.47,12.21,12.21,12.21h66.03c6.74,0,12.21-5.47,12.21-12.21v-59.62c0-3.31,2.68-5.99,5.99-5.99h67.56c6.74,0,12.21-5.47,12.21-12.21v-66.03c0-6.74-5.47-12.21-12.21-12.21Z"/>
  <circle class="cls-16" cx="787.6" cy="323.85" r="34.88"/>
  <circle class="cls-16" cx="787.6" cy="478.42" r="34.88"/>
  <circle class="cls-16" cx="704.36" cy="401.14" r="34.88"/>
  <circle class="cls-16" cx="871.83" cy="401.14" r="34.88"/>
  <path class="cls-2" d="M871.83,380.17c11.56,0,20.97,9.41,20.97,20.97s-9.41,20.97-20.97,20.97-20.97-9.41-20.97-20.97,9.41-20.97,20.97-20.97M871.83,376.47c-13.62,0-24.66,11.04-24.66,24.66s11.04,24.66,24.66,24.66,24.66-11.04,24.66-24.66-11.04-24.66-24.66-24.66h0Z"/>
  <polygon class="cls-5" points="763.51 337.91 811.69 337.91 787.6 297.21 763.51 337.91"/>
  <rect class="cls-4" x="685.81" y="382.47" width="37.1" height="37.1"/>
  <polygon class="cls-1" points="808.56 460.26 805.76 457.46 787.6 475.61 769.44 457.46 766.64 460.26 784.79 478.42 766.64 496.58 769.44 499.38 787.6 481.23 805.76 499.38 808.56 496.58 790.41 478.42 808.56 460.26"/>
  <path class="cls-7" d="M558.87,398.13v22.14c0,4.55,4.36,7.87,8.82,6.7l42.38-11.07c6.97-1.82,6.97-11.59,0-13.41l-42.38-11.07c-4.46-1.16-8.82,2.15-8.82,6.7Z"/>
  <path class="cls-16" d="M562.65,397.38v23.65c0,1.61,1.53,2.79,3.08,2.37l44.69-11.83c2.44-.64,2.44-4.1,0-4.75l-44.69-11.83c-1.56-.41-3.08.76-3.08,2.37Z"/>
  <rect class="cls-7" x="384.41" y="395.81" width="49.1" height="30.43" rx="5.52" ry="5.52"/>
  <rect class="cls-16" x="387.93" y="399.5" width="42.06" height="23.06" rx="2.34" ry="2.34"/>
  <rect class="cls-3" x="461.01" y="480.94" width="71.71" height="32.73" rx="6.92" ry="6.92"/>
  <rect class="cls-16" x="475.83" y="485.78" width="42.06" height="23.06" rx="2.34" ry="2.34"/>
  <rect class="cls-14" x="477.12" y="534.17" width="39.48" height="10.13" rx="1.5" ry="1.5"/>
  <g>
    <path class="cls-12" d="M447.47,343.43v3.22h-16.85v-3.22h3.52c.8,0,1.46-.54,1.46-1.34v-17.23c0-.88-.69-1.42-1.53-1.42h-3.45v-3.26h29.84v10.19h-3.33c-.34-3.26-.54-6.93-4.6-6.93h-10.34v7.77h3.98c1.61,0,2.6-1.07,2.6-2.34v-2.07h3.22v12.33h-3.26v-1.42c0-1.72-.5-3.14-2.68-3.14h-3.87v7.54c0,.96.65,1.3,1.61,1.3h3.68Z"/>
    <path class="cls-12" d="M479.8,319.19c9.92,0,16.43,5.55,16.43,13.98s-6.43,14.17-16.81,14.17c-9.23,0-16.47-5.32-16.47-13.94s5.82-14.21,16.85-14.21ZM479.46,343.97c7.85,0,9.34-5.59,9.34-10.69s-1.34-10.76-9.12-10.76-9.54,5.82-9.54,10.8,1.53,10.65,9.31,10.65Z"/>
    <path class="cls-12" d="M503.78,342.09v-17.31c0-.61-.54-1.34-1.61-1.34h-3.37v-3.26h11.45l15.63,18.92v-14.25c0-1.19-.69-1.42-1.84-1.42h-3.03v-3.26h13.79v3.26h-3.37c-.92,0-1.57.38-1.57,1.38v21.83h-5.4l-16.7-19.72v15.2c0,.96.65,1.3,1.61,1.3h3.33v3.22h-13.9v-3.22h3.52c.8,0,1.46-.54,1.46-1.34Z"/>
    <path class="cls-12" d="M543.35,343.43h3.45c1.61,0,1.49-1.11,1.49-2.57v-4.71l-9.27-11.68c-.73-.92-1.11-1.03-2.64-1.03h-1.19v-3.26h15.36v3.26h-3.25c-.69,0-1,.31-1,.8,0,1.11,3.22,4.33,6.4,8.39,3.49-4.06,6.4-7.28,6.4-8.39,0-.73-.77-.8-2.18-.8h-1.8v-3.26h12.95v3.26h-1.19c-1.69,0-2.07.15-3.56,1.99l-8.39,10.38v6.28c0,1.15.77,1.34,1.84,1.34h3.14v3.22h-16.55v-3.22Z"/>
  </g>
  <path class="cls-12" d="M499.91,392.1l10.39,2.64,3.82.93-5.94,4.62-3.78-1.08-26.53-7.31-3.08-.81,7.91-4.95c6.62-4.14,12.29-4.22,17.39-3.1l.09.02c3.27.72,5.41,1.88,5.01,3.73l19.04,1.02-5.61,4.37-17-1.28-1.71,1.21ZM494.24,390.66l1.14-.78c2.66-1.81,1.35-2.61-.87-3.14l-.09-.02c-2.18-.52-4.51-.57-7.07,1.09l-1.22.79,8.11,2.06Z"/>
  <g>
    <path class="cls-12" d="M502.06,399.07l-2.4-14.43-.71-.18-.24,9.58-.06,4.08-6.32-1.76.09-3.78.39-28.33.02-4.5,8.1,1.61c6.1,1.21,8.88,5.79,8.49,14v.1c-.21,4.27-1.35,7.13-3.42,8.51l2.98,17.02-6.92-1.93ZM499.83,377.48c.28.07.54.1.77.1.89,0,1.82-.43,1.93-3.59v-.11c.11-3.03-.69-4.56-2.57-4.96l-.6-.13-.22,8.52.69.16Z"/>
    <path class="cls-17" d="M493.33,360.35l7.5,1.49c6.91,1.37,8.39,7.14,8.09,13.49v.11c-.19,3.86-1.16,6.96-3.47,8.29l2.9,16.57-5.85-1.63-2.4-14.44-1.63-.41-.26,10.2-.05,3.44-5.32-1.48.08-3.39.39-28.34.02-3.9M500.6,378.08c1.87,0,2.35-1.8,2.43-4.07v-.1c.09-2.62-.42-4.92-2.97-5.47l-1.19-.25-.24,9.53,1.09.26c.32.08.62.11.88.11M492.33,359.13v1.21s-.02,3.9-.02,3.9l-.39,28.33-.08,3.38-.02.78.75.21,5.32,1.48,1.25.35.02-1.3.05-3.44.2-7.88,2.11,12.67.1.63.61.17,5.85,1.63,1.53.43-.27-1.56-2.79-15.92c2.04-1.53,3.17-4.46,3.37-8.72v-.11c.41-8.5-2.5-13.25-8.89-14.52l-7.5-1.49-1.19-.24h0ZM499.64,376.93l.19-7.51h.01c1.15.25,2.3.97,2.18,4.46v.1c-.11,3.11-.97,3.11-1.43,3.11-.19,0-.41-.03-.66-.09l-.3-.07h0Z"/>
  </g>
  <g>
    <path class="cls-12" d="M455.01,413.36c1.81,0,2.54-1.01,2.54-2.81,0-1.9-.65-2.41-2.24-2.41-1.1,0-1.48.43-1.48,1.28v9.33c0,.33,0,.5-.58.5h-1.91c-.45,0-.6-.07-.6-.5v-9.14c0-1.46.9-2.76,4.82-2.76,3.2,0,5.18.96,5.18,3.29s-1.14,3.32-3.2,3.83l1.78,2.12c1.61,1.92,2.21,2.16,2.21,2.67,0,.41-.62.6-1.27.6-.97,0-1.91-.31-3.44-1.99-.67-.74-1.72-2.05-2.34-3.34-.11-.22-.13-.36-.13-.43,0-.24.13-.26.26-.26h.41Z"/>
    <path class="cls-12" d="M472.19,417.71c0,.8-.9,1.7-4.6,1.7s-4.39-1.4-4.39-2.86c0-1.81,1.14-2.57,4.02-2.57,1.35,0,2.02.07,2.02.07v-.7c0-1.16-.41-1.54-1.33-1.54-.67,0-1.03.17-1.74.7-.82.6-1.12.7-1.42.7-.52,0-.86-.34-.86-.82,0-.98,1.38-1.68,4.04-1.68s4.26.22,4.26,2.5v4.5ZM469.24,415c-.37-.05-.82-.07-1.27-.07-1.14,0-1.74.67-1.74,1.81,0,.86.43,1.56,1.74,1.56.86,0,1.27-.19,1.27-.69v-2.62Z"/>
    <path class="cls-12" d="M478.1,416.75c0,.72.15,1.13.88,1.13.52,0,1.16-.12,1.38-.12.24,0,.28.22.28.34,0,.51-.92,1.28-3.22,1.28-1.66,0-2.26-.75-2.26-1.99v-5.29c-.9,0-1.03-.02-1.03-.48,0-.38.69-.74,1.63-2,.86-1.15.92-1.69,1.66-1.69.56,0,.69.14.69.48v2.45h2.17c.26,0,.37.1.37.31,0,.36-.09.94-.62.94h-1.91v4.64Z"/>
    <path class="cls-12" d="M486.18,419.42c-2.39,0-4.06-.56-4.06-1.63,0-.48.11-.87.9-.87s1.85,1.4,3.57,1.4c.9,0,1.4-.27,1.4-.92s-.17-.8-2.49-1.47c-2.45-.7-3.22-1.22-3.22-2.64,0-1.68,1.44-2.58,3.98-2.58,2.3,0,3.74.44,3.74,1.46,0,.62-.41.87-.84.87-.82,0-1.72-1.23-3.35-1.23-.71,0-1.01.29-1.01.75,0,.7.54.91,2.24,1.35,3.05.8,3.42,1.32,3.42,2.69,0,1.66-1.4,2.83-4.26,2.83Z"/>
    <path class="cls-12" d="M495.88,416.75c0,.72.15,1.13.88,1.13.52,0,1.16-.12,1.38-.12.24,0,.28.22.28.34,0,.51-.92,1.28-3.22,1.28-1.66,0-2.26-.75-2.26-1.99v-5.29c-.9,0-1.03-.02-1.03-.48,0-.38.69-.74,1.63-2,.86-1.15.92-1.69,1.66-1.69.56,0,.69.14.69.48v2.45h2.17c.26,0,.37.1.37.31,0,.36-.09.94-.62.94h-1.91v4.64Z"/>
    <path class="cls-12" d="M508.9,417.71c0,.8-.9,1.7-4.6,1.7s-4.39-1.4-4.39-2.86c0-1.81,1.14-2.57,4.02-2.57,1.35,0,2.02.07,2.02.07v-.7c0-1.16-.41-1.54-1.33-1.54-.67,0-1.03.17-1.74.7-.82.6-1.12.7-1.42.7-.52,0-.86-.34-.86-.82,0-.98,1.38-1.68,4.04-1.68s4.26.22,4.26,2.5v4.5ZM505.96,415c-.37-.05-.82-.07-1.27-.07-1.14,0-1.74.67-1.74,1.81,0,.86.43,1.56,1.74,1.56.86,0,1.27-.19,1.27-.69v-2.62Z"/>
    <path class="cls-12" d="M514.81,416.75c0,.72.15,1.13.88,1.13.52,0,1.16-.12,1.38-.12.24,0,.28.22.28.34,0,.51-.92,1.28-3.22,1.28-1.66,0-2.26-.75-2.26-1.99v-5.29c-.9,0-1.03-.02-1.03-.48,0-.38.69-.74,1.63-2,.86-1.15.92-1.69,1.66-1.69.56,0,.69.14.69.48v2.45h2.17c.26,0,.37.1.37.31,0,.36-.09.94-.62.94h-1.91v4.64Z"/>
    <path class="cls-12" d="M520.72,409.37c-1.27,0-1.59-.67-1.59-1.28,0-.68.26-1.34,1.59-1.34,1.12,0,1.57.58,1.57,1.34,0,.69-.32,1.28-1.57,1.28ZM522.27,418.77c0,.31,0,.48-.56.48h-1.83c-.43,0-.58-.07-.58-.48v-7.45c0-.29.09-.46.43-.46h1.98c.41,0,.56.07.56.46v7.45Z"/>
    <path class="cls-12" d="M529.47,419.42c-2.52,0-4.9-.65-4.9-4.47s2.28-4.25,4.94-4.25,4.86.46,4.86,4.25-2.37,4.47-4.9,4.47ZM531.3,414.64c0-2.38-.54-2.84-1.83-2.84s-1.85.46-1.85,2.81v.96c0,2.02.67,2.76,1.85,2.76s1.83-.74,1.83-2.72v-.96Z"/>
    <path class="cls-12" d="M546,418.77c0,.31,0,.48-.56.48h-1.87c-.41,0-.54-.07-.54-.48v-5.68c0-.74-.5-1.1-1.53-1.1s-1.38.12-1.74.31v6.47c0,.31,0,.48-.58.48h-1.83c-.41,0-.56-.07-.56-.48v-7.41c0-.41.28-.46.56-.46.43,0,1.01.22,1.7.22.54,0,1.72-.41,3.31-.41,3.01,0,3.63.99,3.63,2.26v5.8Z"/>
  </g>
  <circle class="cls-8" cx="641.55" cy="550.17" r="99.76"/>
  <circle class="cls-11" cx="641.55" cy="550.17" r="69.23"/>
  <circle class="cls-8" cx="352.03" cy="550.17" r="99.76"/>
  <circle class="cls-11" cx="352.03" cy="550.17" r="69.23"/>
</svg>