<?xml version="1.0" encoding="UTF-8"?>
<svg id="Layer_1" data-name="Layer 1" xmlns="http://www.w3.org/2000/svg" viewBox="0 0 1000 1000">
  <defs>
    <style>
      .cls-1 {
        fill: #adc3e5;
      }

      .cls-2 {
        fill: #f79571;
      }

      .cls-3 {
        fill: #181818;
      }

      .cls-4 {
        fill: #2b2b2b;
      }

      .cls-5 {
        stroke: #7eced0;
      }

      .cls-5, .cls-6 {
        fill: none;
        stroke-miterlimit: 10;
        stroke-width: 3.93px;
      }

      .cls-7 {
        fill: #121212;
      }

      .cls-8 {
        fill: #232323;
      }

      .cls-9 {
        fill: #101010;
      }

      .cls-10 {
        fill: #474745;
      }

      .cls-11 {
        fill: #351b1b;
      }

      .cls-12 {
        fill: #d33a39;
      }

      .cls-13 {
        fill: #4f5251;
      }

      .cls-14 {
        fill: #7d7f82;
      }

      .cls-15 {
        fill: #242625;
      }

      .cls-16 {
        fill: #c6c6c5;
      }

      .cls-6 {
        stroke: #eb9cc4;
      }

      .cls-17 {
        fill: #3a3a3a;
      }

      .cls-18 {
        fill: #fff;
        opacity: .06;
      }

      .cls-19 {
        fill: #4f4f4f;
      }

      .cls-20 {
        fill: #212121;
      }
    </style>
  </defs>
  <rect class="cls-3" x="277.7" y="294.98" width="485.77" height="231.02"/>
  <path class="cls-20" d="M635.74,507.19l295.05-97.8,38.83,260.02c1.61,7.06,2.47,14.4,2.47,21.92,0,56.75-48.39,102.76-108.08,102.76-40.21,0-75.29-20.88-93.9-51.85h0s-134.36-235.04-134.36-235.04Z"/>
  <path class="cls-20" d="M367.26,502.27l-298.64-91.83-38.24,258.96c-1.61,7.06-2.47,14.4-2.47,21.92,0,56.75,48.39,102.76,108.08,102.76,40.21,0,75.29-20.88,93.9-51.85h0s137.36-239.96,137.36-239.96Z"/>
  <circle class="cls-17" cx="640.98" cy="583.45" r="94.31"/>
  <circle class="cls-17" cx="358.19" cy="583.45" r="94.31"/>
  <rect class="cls-3" x="271.07" y="357.63" width="450.4" height="250.31"/>
  <path class="cls-10" d="M290.11,327.89l-130.46-7.13,11.82-95.45c1.62-27.24,96.38-23.39,103.19-3.29l15.45,105.87Z"/>
  <path class="cls-10" d="M846.37,327.89l-133.53-7.13,12.1-95.45c1.66-27.24,98.64-23.39,105.61-3.29l15.82,105.87Z"/>
  <path class="cls-15" d="M309.66,349.24l-174.79-7.13,15.84-95.45c14.49-37,122.24-38.22,138.25-3.29l20.7,105.87Z"/>
  <path class="cls-15" d="M869.05,349.24l-178.9-7.13,16.21-95.45c14.84-37,125.11-38.22,141.5-3.29l21.19,105.87Z"/>
  <rect class="cls-20" x="265.89" y="323.46" width="466.47" height="263.86"/>
  <circle class="cls-4" cx="782.85" cy="434.59" r="150.04"/>
  <circle class="cls-4" cx="217.91" cy="436.11" r="151.46"/>
  <path class="cls-9" d="M336.33,398.31v65.81c0,6.72-5.45,12.17-12.17,12.17h-56.46c-3.3,0-5.97,2.68-5.97,5.97v56.46c0,6.72-5.45,12.17-12.17,12.17h-65.81c-6.72,0-12.17-5.45-12.17-12.17v-56.46c0-1.36-.46-2.63-1.25-3.64-1.09-1.42-2.8-2.33-4.73-2.33h-56.45c-6.73,0-12.17-5.45-12.17-12.17v-65.81c0-6.72,5.44-12.17,12.17-12.17h56.45c3.3,0,5.98-2.67,5.98-5.97v-56.46c0-6.72,5.45-12.17,12.17-12.17h65.81c6.72,0,12.17,5.45,12.17,12.17v56.46c0,1.93.91,3.64,2.33,4.72,1.01.79,2.27,1.25,3.64,1.25h56.46c6.72,0,12.17,5.45,12.17,12.17Z"/>
  <path class="cls-19" d="M242.27,473.33h0s0,0,0,0c-.44-.57-.97-1.07-1.56-1.5l-16.23-15.59c-4.46-4.29-11.52-4.3-15.99-.02l-17.24,16.49c-1.31,1.35-2.12,3.2-2.12,5.23v27.16c0,4.15,3.36,7.51,7.51,7.51h39.7c4.15,0,7.51-3.36,7.51-7.51v-27.16c0-1.74-.59-3.33-1.58-4.6Z"/>
  <path class="cls-19" d="M242.27,390.87h0s0,0,0,0c-.44.57-.97,1.07-1.56,1.5l-16.23,15.59c-4.46,4.29-11.52,4.3-15.99.02l-17.24-16.49c-1.31-1.35-2.12-3.2-2.12-5.23v-27.16c0-4.15,3.36-7.51,7.51-7.51h39.7c4.15,0,7.51,3.36,7.51,7.51v27.16c0,1.74-.59,3.33-1.58,4.6Z"/>
  <path class="cls-19" d="M257.72,406.32h0s0,0,0,0c-.57.44-1.07.97-1.5,1.56l-15.59,16.23c-4.29,4.46-4.3,11.52-.02,15.99l16.49,17.24c1.35,1.31,3.2,2.12,5.23,2.12h27.16c4.15,0,7.51-3.36,7.51-7.51v-39.7c0-4.15-3.36-7.51-7.51-7.51h-27.16c-1.74,0-3.33.59-4.6,1.58Z"/>
  <path class="cls-19" d="M175.25,406.32h0s0,0,0,0c.57.44,1.07.97,1.5,1.56l15.59,16.23c4.29,4.46,4.3,11.52.02,15.99l-16.49,17.24c-1.35,1.31-3.2,2.12-5.23,2.12h-27.16c-4.15,0-7.51-3.36-7.51-7.51v-39.7c0-4.15,3.36-7.51,7.51-7.51h27.16c1.74,0,3.33.59,4.6,1.58Z"/>
  <path class="cls-9" d="M910.22,401.64v64.94c0,6.63-5.38,12-12.01,12h-66.45c-3.25,0-5.89,2.64-5.89,5.9v58.64c0,6.63-5.38,12-12.01,12h-64.94c-6.63,0-12.01-5.37-12.01-12v-58.64c0-1.06-.28-2.06-.78-2.92-1.01-1.78-2.92-2.98-5.11-2.98h-63.52c-6.63,0-12.01-5.37-12.01-12v-64.94c0-6.64,5.38-12.01,12.01-12.01h63.52c3.25,0,5.89-2.64,5.89-5.9v-57.66c0-6.63,5.38-12.01,12.01-12.01h64.94c6.63,0,12.01,5.38,12.01,12.01v57.66c0,2.19,1.2,4.11,2.97,5.12.86.5,1.86.78,2.92.78h66.45c6.63,0,12.01,5.37,12.01,12.01Z"/>
  <circle class="cls-19" cx="782.85" cy="357.39" r="34.3"/>
  <circle class="cls-19" cx="782.85" cy="509.41" r="34.3"/>
  <circle class="cls-19" cx="700.99" cy="433.4" r="34.3"/>
  <circle class="cls-19" cx="865.69" cy="433.4" r="34.3"/>
  <path class="cls-2" d="M865.69,412.78c11.37,0,20.62,9.25,20.62,20.62s-9.25,20.62-20.62,20.62-20.62-9.25-20.62-20.62,9.25-20.62,20.62-20.62M865.69,409.15c-13.4,0-24.26,10.86-24.26,24.26s10.86,24.26,24.26,24.26,24.26-10.86,24.26-24.26-10.86-24.26-24.26-24.26h0Z"/>
  <polygon class="cls-5" points="759.16 371.22 806.55 371.22 782.85 331.19 759.16 371.22"/>
  <rect class="cls-6" x="682.75" y="415.04" width="36.49" height="36.49"/>
  <polygon class="cls-1" points="803.47 491.55 800.71 488.79 782.85 506.65 765 488.79 762.24 491.55 780.09 509.41 762.24 527.27 765 530.03 782.85 512.17 800.71 530.03 803.47 527.27 785.61 509.41 803.47 491.55"/>
  <path class="cls-7" d="M562.28,425.71v21.78c0,4.48,4.29,7.74,8.68,6.59l41.68-10.89c6.85-1.79,6.85-11.39,0-13.18l-41.68-10.89c-4.38-1.14-8.68,2.12-8.68,6.59Z"/>
  <path class="cls-19" d="M566,424.97v23.26c0,1.58,1.5,2.74,3.03,2.33l43.95-11.63c2.4-.63,2.4-4.03,0-4.67l-43.95-11.63c-1.53-.41-3.03.75-3.03,2.33Z"/>
  <rect class="cls-7" x="389.78" y="421.64" width="48.29" height="29.93" rx="5.43" ry="5.43"/>
  <rect class="cls-19" x="393.24" y="425.26" width="41.36" height="22.68" rx="2.3" ry="2.3"/>
  <g>
    <path class="cls-14" d="M440.54,362.94v3.66h-19.15v-3.66h4c.91,0,1.65-.61,1.65-1.52v-19.58c0-1-.78-1.61-1.74-1.61h-3.92v-3.7h33.9v11.58h-3.79c-.39-3.7-.61-7.88-5.22-7.88h-11.75v8.83h4.53c1.83,0,2.96-1.22,2.96-2.65v-2.35h3.66v14.01h-3.7v-1.61c0-1.96-.57-3.57-3.05-3.57h-4.4v8.57c0,1.09.74,1.48,1.83,1.48h4.18Z"/>
    <path class="cls-14" d="M477.27,335.39c11.27,0,18.67,6.31,18.67,15.88s-7.31,16.1-19.1,16.1c-10.49,0-18.71-6.05-18.71-15.84s6.61-16.15,19.15-16.15ZM476.87,363.55c8.92,0,10.62-6.35,10.62-12.14s-1.52-12.23-10.36-12.23-10.84,6.61-10.84,12.27,1.74,12.1,10.58,12.1Z"/>
    <path class="cls-14" d="M504.51,361.41v-19.67c0-.7-.61-1.52-1.83-1.52h-3.83v-3.7h13.01l17.76,21.5v-16.19c0-1.35-.78-1.61-2.09-1.61h-3.44v-3.7h15.67v3.7h-3.83c-1.04,0-1.78.44-1.78,1.57v24.81h-6.14l-18.97-22.41v17.28c0,1.09.74,1.48,1.83,1.48h3.79v3.66h-15.8v-3.66h4c.91,0,1.65-.61,1.65-1.52Z"/>
    <path class="cls-14" d="M549.47,362.94h3.92c1.83,0,1.7-1.26,1.7-2.92v-5.35l-10.53-13.27c-.83-1.04-1.26-1.18-3-1.18h-1.35v-3.7h17.45v3.7h-3.7c-.78,0-1.13.35-1.13.91,0,1.26,3.66,4.92,7.27,9.53,3.96-4.61,7.27-8.27,7.27-9.53,0-.83-.87-.91-2.48-.91h-2.05v-3.7h14.71v3.7h-1.35c-1.92,0-2.35.17-4.05,2.26l-9.53,11.79v7.14c0,1.31.87,1.52,2.09,1.52h3.57v3.66h-18.8v-3.66Z"/>
  </g>
  <path d="M530.88,490.05c0,16.53-13.39,29.93-29.92,29.93-8.5,0-16.16-3.54-21.6-9.23-5.16-5.37-8.32-12.66-8.32-20.7,0-16.52,13.39-29.92,29.92-29.92,9.45,0,17.87,4.38,23.35,11.22,4.11,5.12,6.57,11.62,6.57,18.7Z"/>
  <path class="cls-16" d="M501.31,499.66l9.29,2.36,3.42.83-5.31,4.13-3.38-.97-23.71-6.53-2.76-.73,7.07-4.43c5.91-3.7,10.98-3.77,15.54-2.77l.08.02c2.92.64,4.84,1.68,4.48,3.34l17.01.91-5.01,3.9-15.2-1.14-1.53,1.08ZM496.25,498.38l1.02-.69c2.38-1.62,1.2-2.34-.78-2.81l-.08-.02c-1.95-.47-4.03-.51-6.32.97l-1.09.71,7.25,1.84Z"/>
  <g>
    <path class="cls-16" d="M503.24,505.89l-2.14-12.9-.63-.16-.22,8.56-.05,3.65-5.65-1.57.08-3.38.35-25.32.02-4.02,7.24,1.44c5.46,1.08,7.94,5.18,7.59,12.52-.18,3.91-1.21,6.47-3.06,7.7l2.67,15.21-6.19-1.72ZM501.24,486.6c.25.06.48.09.69.09h0c.8,0,1.62-.38,1.72-3.21.1-2.8-.61-4.17-2.3-4.53l-.54-.11-.19,7.61.62.15Z"/>
    <path d="M495.43,471.29l6.71,1.33c6.18,1.23,7.5,6.38,7.23,12.06v.09c-.17,3.45-1.04,6.22-3.11,7.41l2.6,14.81-5.23-1.46-2.15-12.91-1.46-.36-.23,9.12-.05,3.07-4.75-1.32.07-3.03.35-25.33v-3.49M501.93,487.14c1.67,0,2.1-1.61,2.17-3.64v-.09c.08-2.34-.37-4.4-2.65-4.89l-1.06-.23-.22,8.52.97.23c.29.07.55.1.79.1M494.54,470.2v1.08s-.02,3.49-.02,3.49l-.35,25.32-.07,3.02-.02.7.67.19,4.75,1.32,1.12.31.02-1.16.05-3.07.18-7.04,1.88,11.33.09.56.55.15,5.23,1.46,1.36.38-.24-1.4-2.49-14.23c1.82-1.37,2.83-3.99,3.01-7.79v-.09c.36-7.6-2.24-11.84-7.95-12.98l-6.71-1.33-1.06-.21h0ZM501.08,486.1l.17-6.71h0c1.02.22,2.06.87,1.95,3.98v.09c-.1,2.78-.87,2.78-1.28,2.78-.17,0-.37-.03-.59-.08l-.27-.06h0Z"/>
  </g>
  <circle class="cls-8" cx="644.52" cy="572.25" r="93.96"/>
  <circle class="cls-8" cx="355.61" cy="572.47" r="93.96"/>
  <circle class="cls-13" cx="644.52" cy="572.47" r="68.08"/>
  <circle class="cls-13" cx="355.61" cy="572.25" r="68.08"/>
  <rect class="cls-12" x="421.72" y="307.53" width="4.34" height="4.34"/>
  <rect class="cls-11" x="393.82" y="307.53" width="4.34" height="4.34"/>
  <rect class="cls-11" x="365.92" y="307.53" width="4.34" height="4.34"/>
  <rect class="cls-11" x="338.02" y="307.53" width="4.34" height="4.34"/>
  <path class="cls-18" d="M264.06,384.89l-93.73,93.73c-1.09-1.42-2.8-2.33-4.73-2.33h-56.45c-6.73,0-12.17-5.45-12.17-12.17v-65.81c0-6.72,5.44-12.17,12.17-12.17h56.45c3.3,0,5.98-2.67,5.98-5.97v-56.46c0-6.72,5.45-12.17,12.17-12.17h65.81c6.72,0,12.17,5.45,12.17,12.17v56.46c0,1.93.91,3.64,2.33,4.72Z"/>
  <path class="cls-18" d="M828.84,388.85l-92.71,92.71c-1.01-1.78-2.92-2.98-5.11-2.98h-63.52c-6.63,0-12.01-5.37-12.01-12v-64.94c0-6.64,5.38-12.01,12.01-12.01h63.52c3.25,0,5.89-2.64,5.89-5.9v-57.66c0-6.63,5.38-12.01,12.01-12.01h64.94c6.63,0,12.01,5.38,12.01,12.01v57.66c0,2.19,1.2,4.11,2.97,5.12Z"/>
  <path class="cls-18" d="M524.31,471.35c-12.26,16.22-27.55,29.69-44.95,39.4-5.16-5.37-8.32-12.66-8.32-20.7,0-16.52,13.39-29.92,29.92-29.92,9.45,0,17.87,4.38,23.35,11.22Z"/>
</svg>