<?xml version="1.0" encoding="UTF-8"?>
<svg id="Layer_1" data-name="Layer 1" xmlns="http://www.w3.org/2000/svg" viewBox="0 0 1000 1000">
  <defs>
    <style>
      .cls-1 {
        stroke-width: 3.44px;
      }

      .cls-1, .cls-2 {
        stroke: #212123;
      }

      .cls-1, .cls-2, .cls-3 {
        fill: none;
        stroke-miterlimit: 10;
      }

      .cls-4 {
        fill: #323233;
      }

      .cls-5 {
        opacity: .07;
      }

      .cls-6 {
        fill: #202023;
      }

      .cls-7 {
        fill: #fff;
      }

      .cls-2 {
        stroke-width: 4px;
      }

      .cls-8 {
        fill: #b3b3b3;
      }

      .cls-9 {
        fill: #c6c6c5;
      }

      .cls-10 {
        fill: #e1e8f4;
      }

      .cls-11 {
        fill: #a5a4a4;
      }

      .cls-12 {
        fill: #8696b2;
      }

      .cls-13 {
        fill: #282627;
      }

      .cls-14 {
        opacity: .45;
      }

      .cls-15 {
        fill: #fcb97e;
      }

      .cls-16 {
        fill: #060707;
      }

      .cls-3 {
        stroke: #a5a4a4;
        stroke-width: 1.76px;
      }

      .cls-17 {
        fill: #76c7a7;
      }

      .cls-18 {
        fill: #1a1c1d;
      }

      .cls-19 {
        fill: #f0efef;
      }
    </style>
  </defs>
  <g class="cls-14">
    <path class="cls-12" d="M201.49,319.55v63.98l-141.06-1.56c6.8-9.73,44.62-62.16,69.33-62.16s64.93-.22,71.73-.26M202.49,318.54s-44.78.26-72.73.26-71.22,64.14-71.22,64.14l143.95,1.59v-65.99h0Z"/>
  </g>
  <g class="cls-5">
    <path class="cls-10" d="M796.93,318.51c5.02.03,46.18.26,72.23.26s65.25,55.89,70.28,63.15l-142.51,1.58v-64.99Z"/>
    <path class="cls-7" d="M797.43,319.01c6.8.04,46.41.26,71.73.26s62.53,52.43,69.33,62.16l-141.06,1.56v-63.98M796.43,318v65.99l143.95-1.59s-43.27-64.14-71.22-64.14-72.73-.26-72.73-.26h0Z"/>
  </g>
  <path class="cls-11" d="M59.44,647.1s26.32,64.51,66.74,65.73c27.94.85,72.73.26,72.73.26v-65.99H59.44ZM164.86,703.18h-34.14c-7.54,0-14.82-2.75-20.47-7.74l-8.86-6.69c-1.98-1.74-.74-5,1.89-5l41.37,1c4.64,0,9.08,1.9,12.29,5.25l9.94,8.43c1.71,1.79.44,4.75-2.03,4.75Z"/>
  <g class="cls-14">
    <path class="cls-12" d="M797.43,319.01c6.8.04,46.41.26,71.73.26s62.53,52.43,69.33,62.16l-141.06,1.56v-63.98M796.43,318v65.99l143.95-1.59s-43.27-64.14-71.22-64.14-72.73-.26-72.73-.26h0Z"/>
  </g>
  <path class="cls-16" d="M973.36,498.19c-1.59-89.33-52.65-145.53-56.53-145.75s-33.25-.55-56.6-.55-35.54-18.46-41.81-27.11c-5.77-6.77-12.38-6.8-12.38-6.8h-116.66l-28.9.05-350.76.52h-116.66s-7.15.28-12.38,6.8c-6.27,8.66-18.46,27.11-41.81,27.11s-52.73.32-56.6.55-54.93,56.42-56.53,145.75c-1.59,89.33,19.44,124.61,25.82,135.85,6.38,11.24,19.44,35.85,21.87,39.19s9.2,3.95,14.97,3.95c0,0,48.67-.46,58.92,1.82s21.04,13.06,30,22.48,12.61,11.01,12.61,11.01l508.81-.57h110.4s3.65-1.59,12.61-11.01c8.96-9.42,19.75-20.2,30-22.48,10.25-2.28,58.92-1.82,58.92-1.82,5.77,0,12.54-.61,14.97-3.95,2.43-3.34,15.49-27.95,21.87-39.19,6.38-11.24,27.42-46.52,25.82-135.85Z"/>
  <circle class="cls-1" cx="874.06" cy="494.41" r="62.26"/>
  <path class="cls-13" d="M154.82,535.03v24.87c0,.41-.04.8-.11,1.19-7.68,2.78-15.97,4.29-24.61,4.29s-17.44-1.61-25.32-4.55c-.05-.3-.07-.61-.07-.93v-24.87c0-1.86.74-3.55,1.95-4.79l15.78-15.09c4.1-3.92,10.55-3.91,14.64.01l14.86,14.28c.54.39,1.02.85,1.43,1.38.91,1.16,1.45,2.62,1.45,4.21Z"/>
  <path class="cls-13" d="M154.82,426.22v24.87c0,1.59-.54,3.05-1.45,4.21-.41.53-.89.99-1.43,1.38l-14.86,14.28c-4.09,3.92-10.54,3.93-14.64.01l-15.78-15.09c-1.21-1.24-1.95-2.93-1.95-4.79v-24.87c0-.37.03-.74.1-1.09,7.87-2.94,16.39-4.54,25.29-4.54s16.91,1.51,24.59,4.28c.08.44.13.89.13,1.35Z"/>
  <path class="cls-13" d="M202.49,492.99c0,8.77-1.56,17.18-4.42,24.96-.47.11-.96.16-1.46.16h-24.87c-1.86,0-3.55-.74-4.79-1.94l-15.1-15.78c-3.91-4.1-3.91-10.56.02-14.64l14.28-14.86c.39-.54.85-1.02,1.37-1.43h.01c1.16-.91,2.62-1.45,4.21-1.45h24.87c.52,0,1.03.06,1.52.17,2.82,7.74,4.36,16.09,4.36,24.81Z"/>
  <path class="cls-13" d="M107.68,500.39l-15.1,15.78c-1.23,1.2-2.92,1.94-4.79,1.94h-24.86c-.26,0-.52-.01-.77-.05-2.89-7.81-4.46-16.26-4.46-25.07s1.55-17.15,4.4-24.92c.27-.04.55-.06.83-.06h24.86c1.59,0,3.05.54,4.22,1.45.53.41.99.89,1.37,1.43l14.28,14.86c3.93,4.08,3.94,10.54.02,14.64Z"/>
  <circle class="cls-13" cx="875.83" cy="436.94" r="24.72"/>
  <circle class="cls-13" cx="874.92" cy="549.18" r="24.72"/>
  <circle class="cls-13" cx="819.57" cy="492.87" r="24.72"/>
  <circle class="cls-13" cx="932.19" cy="491.37" r="24.72"/>
  <path class="cls-19" d="M932.19,483.18c4.52,0,8.19,3.67,8.19,8.19s-3.67,8.19-8.19,8.19-8.19-3.67-8.19-8.19,3.67-8.19,8.19-8.19M932.19,481.74c-5.32,0-9.63,4.31-9.63,9.63s4.31,9.63,9.63,9.63,9.63-4.31,9.63-9.63-4.31-9.63-9.63-9.63h0Z"/>
  <path class="cls-19" d="M884.23,442.9h-16.8l8.4-14.19,8.4,14.19ZM869.57,441.68h12.53l-6.26-10.58-6.26,10.58Z"/>
  <path class="cls-19" d="M827.6,500.81h-16.06v-16.06h16.06v16.06ZM813.1,499.25h12.93v-12.93h-12.93v12.93Z"/>
  <polygon class="cls-19" points="882.24 542.84 881.26 541.86 874.92 548.2 868.58 541.86 867.6 542.84 873.94 549.18 867.6 555.52 868.58 556.5 874.92 550.16 881.26 556.5 882.24 555.52 875.9 549.18 882.24 542.84"/>
  <circle class="cls-6" cx="133.97" cy="618.45" r="32.35"/>
  <path class="cls-13" d="M257.3,677.7c0,13.21-10.71,23.93-23.93,23.93s-23.94-10.72-23.94-23.93h47.88Z"/>
  <path class="cls-13" d="M729.25,677.41c0,1.64-.16,3.25-.47,4.8-2.24,11.24-12.16,19.71-24.05,19.71-13.54,0-24.52-10.98-24.52-24.52h49.04Z"/>
  <path class="cls-13" d="M791.58,677.41c0,13.54-10.98,24.52-24.52,24.52-11.9,0-21.81-8.47-24.04-19.71-.32-1.55-.48-3.16-.48-4.8h49.04Z"/>
  <circle class="cls-15" cx="50.56" cy="589.52" r="4.41"/>
  <circle class="cls-17" cx="67.42" cy="632.05" r="4.41"/>
  <circle class="cls-15" cx="932.96" cy="632.33" r="4.41"/>
  <circle class="cls-17" cx="949.21" cy="589.04" r="4.41"/>
  <rect class="cls-18" x="172.38" y="398.69" width="27.68" height="16.18" rx="8.09" ry="8.09"/>
  <rect class="cls-18" x="801.55" y="398.69" width="27.68" height="16.18" rx="8.09" ry="8.09"/>
  <rect class="cls-13" x="287.99" y="680.09" width="30.99" height="23.09" rx="11.54" ry="11.54"/>
  <rect class="cls-13" x="351.18" y="680.09" width="30.99" height="23.09" rx="11.54" ry="11.54"/>
  <rect class="cls-13" x="588.14" y="680.09" width="30.99" height="23.09" rx="11.54" ry="11.54"/>
  <rect class="cls-13" x="630.97" y="680.09" width="30.99" height="23.09" rx="11.54" ry="11.54"/>
  <rect class="cls-4" x="225.55" y="346.45" width="551.39" height="314.89" rx="5.47" ry="5.47"/>
  <path class="cls-2" d="M202.49,492.99c0,8.77-1.56,17.18-4.42,24.96-7.35,20.02-23.29,35.89-43.36,43.14-7.68,2.78-15.97,4.29-24.61,4.29s-17.44-1.61-25.32-4.55c-19.7-7.35-35.34-23.04-42.62-42.77-2.89-7.81-4.46-16.26-4.46-25.07s1.55-17.15,4.4-24.92c7.27-19.82,22.95-35.58,42.71-42.94,7.87-2.94,16.39-4.54,25.29-4.54s16.91,1.51,24.59,4.28c20.13,7.27,36.11,23.21,43.44,43.31,2.82,7.74,4.36,16.09,4.36,24.81Z"/>
  <polyline class="cls-3" points="445.8 676.41 480.2 676.41 480.2 687.13 445.8 687.13 445.8 702.18"/>
  <polyline class="cls-3" points="527.69 676.41 557.69 676.41 557.69 687.13 527.69 687.13 527.69 702.18"/>
  <line class="cls-3" x1="445.8" y1="687.13" x2="480.2" y2="702.18"/>
  <polyline class="cls-3" points="524.91 676.49 504.19 676.49 504.19 702.1 482.97 702.1"/>
  <path class="cls-19" d="M138.16,444.65h-16.8l8.4-9.67,8.4,9.67ZM123.5,443.82h12.53l-6.26-7.21-6.26,7.21Z"/>
  <path class="cls-19" d="M121.37,541.96h16.8s-8.4,9.67-8.4,9.67l-8.4-9.67ZM136.03,542.79h-12.53s6.26,7.21,6.26,7.21l6.26-7.21Z"/>
  <path class="cls-19" d="M81.11,484.91v16.8s-9.67-8.4-9.67-8.4l9.67-8.4ZM80.28,499.57v-12.53s-7.21,6.26-7.21,6.26l7.21,6.26Z"/>
  <path class="cls-19" d="M178.42,501.7v-16.8s9.67,8.4,9.67,8.4l-9.67,8.4ZM179.25,487.04v12.53s7.21-6.26,7.21-6.26l-7.21-6.26Z"/>
  <g>
    <path class="cls-9" d="M97.07,392.22l7.39,1.88,2.72.66-4.22,3.28-2.69-.77-18.86-5.2-2.19-.58,5.63-3.52c4.7-2.94,8.74-3,12.36-2.2h.06c2.33.53,3.85,1.35,3.56,2.67l13.53.72-3.99,3.1-12.09-.91-1.22.86ZM93.04,391.2l.81-.55c1.89-1.29.96-1.86-.62-2.23h-.06c-1.55-.38-3.21-.42-5.03.76l-.87.56,5.77,1.47Z"/>
    <g>
      <path class="cls-9" d="M98.6,397.18l-1.71-10.26-.5-.13-.17,6.81-.04,2.9-4.49-1.25.06-2.68.28-20.14v-3.2s5.77,1.15,5.77,1.15c4.34.86,6.32,4.12,6.04,9.96-.15,3.11-.96,5.15-2.43,6.13l2.12,12.1-4.92-1.37ZM97.01,381.83c.2.05.38.07.55.07.63,0,1.29-.3,1.37-2.55.08-2.23-.49-3.31-1.83-3.6l-.43-.09-.15,6.06.49.12Z"/>
      <path d="M92.39,369.65l5.33,1.06c4.91.98,5.97,5.07,5.75,9.59v.07c-.13,2.75-.82,4.95-2.47,5.9l2.06,11.78-4.16-1.16-1.71-10.27-1.16-.29-.18,7.25-.04,2.44-3.78-1.05.06-2.41.28-20.15v-2.77M97.56,382.26c1.33,0,1.67-1.28,1.72-2.89v-.07c.07-1.87-.3-3.5-2.11-3.89l-.85-.18-.17,6.77.77.18c.23.05.44.08.63.08M91.68,368.78v.86s-.01,2.77-.01,2.77l-.28,20.14-.06,2.4v.55s.52.15.52.15l3.78,1.05.89.25v-.92s.05-2.44.05-2.44l.14-5.6,1.5,9.01.07.45.44.12,4.16,1.16,1.09.3-.19-1.11-1.98-11.32c1.45-1.09,2.25-3.17,2.4-6.2v-.07c.29-6.04-1.78-9.42-6.32-10.32l-5.33-1.06-.85-.17h0ZM96.88,381.43l.14-5.34h0c.81.18,1.64.69,1.55,3.17v.07c-.08,2.21-.69,2.21-1.02,2.21-.14,0-.29-.02-.47-.06l-.21-.05h0Z"/>
    </g>
  </g>
  <g>
    <path class="cls-8" d="M820.11,386.6v1.53h-7.99v-1.53h1.67c.38,0,.69-.25.69-.64v-8.17c0-.42-.33-.67-.73-.67h-1.63v-1.54h14.15v4.83h-1.58c-.16-1.54-.25-3.29-2.18-3.29h-4.9v3.69h1.89c.76,0,1.24-.51,1.24-1.11v-.98h1.52v5.85h-1.54v-.67c0-.82-.24-1.49-1.27-1.49h-1.83v3.58c0,.45.31.62.76.62h1.74Z"/>
    <path class="cls-8" d="M835.43,375.11c4.7,0,7.79,2.63,7.79,6.63s-3.05,6.72-7.97,6.72c-4.38,0-7.81-2.52-7.81-6.61s2.76-6.74,7.99-6.74ZM835.27,386.85c3.72,0,4.43-2.65,4.43-5.07s-.64-5.1-4.32-5.1-4.52,2.76-4.52,5.12.73,5.05,4.41,5.05Z"/>
    <path class="cls-8" d="M846.79,385.96v-8.21c0-.29-.25-.64-.76-.64h-1.6v-1.54h5.43l7.41,8.97v-6.75c0-.56-.33-.67-.87-.67h-1.43v-1.54h6.54v1.54h-1.6c-.44,0-.74.18-.74.65v10.35h-2.56l-7.92-9.35v7.21c0,.45.31.62.76.62h1.58v1.53h-6.59v-1.53h1.67c.38,0,.69-.25.69-.64Z"/>
    <path class="cls-8" d="M865.55,386.6h1.63c.76,0,.71-.53.71-1.22v-2.23l-4.39-5.54c-.34-.44-.53-.49-1.25-.49h-.56v-1.54h7.28v1.54h-1.54c-.33,0-.47.15-.47.38,0,.53,1.52,2.05,3.03,3.98,1.65-1.92,3.03-3.45,3.03-3.98,0-.34-.36-.38-1.04-.38h-.85v-1.54h6.14v1.54h-.56c-.8,0-.98.07-1.69.94l-3.98,4.92v2.98c0,.54.36.64.87.64h1.49v1.53h-7.84v-1.53Z"/>
  </g>
</svg>